<svg t="1590749366940" class="icon" viewBox="0 0 1181 1024" version="1.1" xmlns="http://www.w3.org/2000/svg" p-id="3314" width="32" height="32"><path d="M551.317135 787.735744h78.754752v78.754752H551.317135v-78.754752z m0-472.528512h78.754752v393.77376H551.317135V315.207232z m592.629509 708.00522H36.65483a37.014733 37.014733 0 0 1-31.738165-18.113592 35.754657 35.754657 0 0 1 0-36.227186L558.641327 17.278005a38.589828 38.589828 0 0 1 64.263877 0l553.645907 952.302461a35.754657 35.754657 0 0 1 0 36.227186 37.014733 37.014733 0 0 1-31.81692 18.192348l-0.787547-0.787548z m-1043.736729-72.454371h980.260399L590.300737 108.633517 100.209915 950.758081z" fill="#d81e06" p-id="3315"></path></svg>