<svg t="1591325259741" class="icon" viewBox="0 0 1024 1024" version="1.1" xmlns="http://www.w3.org/2000/svg" p-id="9788" width="48" height="48"><path d="M566.355825 512l90.479264 90.507708a38.398933 38.398933 0 0 1-54.298936 54.32738L512.028445 566.270492l-90.507708 90.507709a38.398933 38.398933 0 0 1-54.32738-54.298937L457.757952 512l-90.507708-90.507708a38.398933 38.398933 0 0 1 54.298936-54.32738L512.028445 457.729508l90.507708-90.507709a38.398933 38.398933 0 0 1 54.32738 54.298937L566.298937 512zM874.030834 149.969168c199.95889 199.95889 199.95889 524.102775 0 724.061664-199.95889 199.95889-524.102775 199.95889-724.061665 0-199.95889-199.95889-199.95889-524.102775 0-724.061664 199.95889-199.95889 524.102775-199.95889 724.061665 0z m-54.32738 54.327379c-169.922391-169.979278-445.484514-169.979278-615.435349 0-169.950835 169.922391-169.950835 445.484514 0 615.435349s445.512958 169.950835 615.463793 0c169.950835-169.950835 169.950835-445.512958 0-615.463792z" p-id="9789" fill="#d81e06"></path></svg>