<?xml version="1.0" encoding="UTF-8"?>
<svg width="18px" height="19px" viewBox="0 0 18 19" version="1.1" xmlns="http://www.w3.org/2000/svg" xmlns:xlink="http://www.w3.org/1999/xlink">
    <!-- Generator: Sketch 60 (88103) - https://sketch.com -->
    <title>编组 2备份 13</title>
    <desc>Created with Sketch.</desc>
    <g id="风险排查" stroke="none" stroke-width="1" fill="none" fill-rule="evenodd">
        <g id="检查项目" transform="translate(-393.000000, -312.000000)" fill="#9FC8FE" fill-rule="nonzero">
            <g id="左侧" transform="translate(170.000000, 98.000000)">
                <g id="left">
                    <g id="menu" transform="translate(0.000000, 46.000000)">
                        <g id="编组-2" transform="translate(197.000000, 168.000000)">
                            <path d="M41.7662,5.1108 C41.9153149,4.96889167 41.9997201,4.77204761 41.9997201,4.5662 C41.9997201,4.36035239 41.9153149,4.16350833 41.7662,4.0216 L39.9784,2.2338 C39.8364917,2.08468507 39.6396476,2.00027992 39.4338,2.00027992 C39.2279524,2.00027992 39.0311083,2.08468507 38.8892,2.2338 L37.4892,3.6338 L40.4432,6.5878 L41.7662,5.1108 L41.7662,5.1108 Z M28,13.046 L28,16 L30.9554,16 L39.5108,7.3662 L36.5568,4.4122 L28,13.0432 L28,13.046 Z" id="形状"></path>
                        </g>
                    </g>
                </g>
            </g>
        </g>
    </g>
</svg>