<?xml version="1.0" encoding="UTF-8"?>
<svg width="73px" height="55px" viewBox="0 0 73 55" version="1.1" xmlns="http://www.w3.org/2000/svg" xmlns:xlink="http://www.w3.org/1999/xlink">
    <title>已失效</title>
    <defs>
        <polygon id="path-1" points="0 0.0420090938 71.8982451 0.0420090938 71.8982451 53.8892165 0 53.8892165"></polygon>
    </defs>
    <g id="群防共治" stroke="none" stroke-width="1" fill="none" fill-rule="evenodd" opacity="0.7">
        <g id="查看等级响应-监督整改" transform="translate(-573.000000, -326.000000)">
            <g id="弹框" transform="translate(335.000000, 59.000000)">
                <g id="穿梭组备份-2">
                    <g transform="translate(10.000000, 203.000000)">
                        <g id="分组-3">
                            <g id="已核验" transform="translate(220.000000, 50.000000)">
                                <g id="已失效" transform="translate(44.959569, 41.934635) rotate(-30.000000) translate(-44.959569, -41.934635) translate(8.959569, 14.434635)">
                                    <g id="分组" transform="translate(-0.000000, 0.045491)">
                                        <mask id="mask-2" fill="white">
                                            <use xlink:href="#path-1"></use>
                                        </mask>
                                        <g id="Clip-4"></g>
                                        <path d="M46.2284887,47.2757324 L47.393771,48.08722 L47.6464522,46.6527696 L48.8403466,45.7639474 L47.5552623,45.1481582 L47.1270471,43.7832563 L46.0806891,44.8398698 L44.627531,44.8891225 L45.2664747,46.1626052 L44.7961314,47.5555889 L46.2284887,47.2757324 Z M35.949131,52.4754294 C24.1040103,52.4754294 14.1476351,44.4551218 11.2269252,33.5722995 L9.6539652,33.1523836 C12.4556631,45.0359181 23.1632359,53.889234 35.949131,53.889234 C43.7007116,53.889234 50.6868763,50.6347978 55.6157827,45.4208411 L54.0431737,45.0011876 C49.4158347,49.6200008 43.0126184,52.4754294 35.949131,52.4754294 L35.949131,52.4754294 Z M17.9743637,40.3118634 L19.1328002,41.2428521 L19.4067209,39.8431322 L20.6142192,39.0871085 L19.3296615,38.3385208 L18.915138,36.9388009 L17.8478037,37.8764383 L16.387712,37.7714593 L17.0123497,39.1011932 L16.5211178,40.4381007 L17.9743637,40.3118634 Z M35.9419341,49.2211681 L36.8055613,50.3478552 L37.4867209,49.0529393 L38.8909928,48.5702109 L37.8519194,47.5904944 L37.8587652,46.1626052 L36.5388374,46.8485554 L35.1344778,46.4497227 L35.3590736,47.8563537 L34.4886005,49.0390296 L35.9419341,49.2211681 Z M27.2214937,44.8537796 L26.0911427,43.9374004 L25.7400747,45.3159496 L24.4759668,46.0578011 L25.7400747,46.7996527 L26.0911427,48.1781144 L27.2214937,47.2617352 L28.702825,47.3734504 L28.134446,46.0646248 L28.702825,44.7561491 L27.2214937,44.8537796 Z M42.4719737,41.9147177 C40.4707986,42.7823691 38.266004,43.2583613 35.949131,43.2583613 C30.5638363,43.2583613 25.7822906,40.6617934 22.804971,36.6516833 L20.7198029,36.0916204 C23.8300895,41.2428521 29.489305,44.6788146 35.949131,44.6788146 C39.0734603,44.6788146 42.0017182,43.8741506 44.5502961,42.467607 L42.4719737,41.9147177 Z M35.949131,1.4557262 C47.7943396,1.4557262 57.7574728,9.47612129 60.6713369,20.3659422 L62.2439458,20.7859456 C59.442599,8.89515004 48.7350262,0.0420090938 35.949131,0.0420090938 C28.1975504,0.0420090938 21.2112103,3.2962704 16.2821283,8.51040203 L17.8550883,8.93040549 C22.4820763,4.3112423 28.8855559,1.4557262 35.949131,1.4557262 L35.949131,1.4557262 Z M70.2413617,28.0571406 L66.1972343,43.1113032 C65.8951403,44.2451639 64.7227489,44.9171169 63.5852009,44.6160896 L3.15920792,28.4772316 C2.02165996,28.1765542 1.34760948,27.0073507 1.64970346,25.8739275 L5.69383083,10.8197649 C5.99583705,9.68590431 7.16849181,9.01412623 8.305952,9.3151535 L68.7387031,25.4539241 C69.8761633,25.7550388 70.5502137,26.9237174 70.2413617,28.0571406 L70.2413617,28.0571406 Z M69.791907,24.2712482 L7.99701219,7.76128943 C6.48031083,7.35572059 4.92174462,8.25136637 4.51450579,9.76315135 L0.097983068,26.1958631 C-0.309255767,27.7072107 0.589653748,29.2611622 2.10600404,29.6671685 L63.9011621,46.1697787 C65.4176002,46.5758725 66.9764297,45.6798768 67.3837563,44.1680043 L71.8001912,27.7425536 C72.2075178,26.2238575 71.3086961,24.6700809 69.791907,24.2712482 L69.791907,24.2712482 Z M53.7832957,13.5632159 L52.5545578,12.7095618 L52.3790238,14.1301025 L51.2206751,14.9701094 L52.5614037,15.6278903 L53.0743139,16.9996158 L54.0781928,15.9846439 L55.559524,15.9918175 L54.8364996,14.7110738 L55.2366293,13.3393482 L53.7832957,13.5632159 Z M37.8800048,4.66117228 L37.0091807,3.52731167 L36.3282844,4.82214007 L34.9100576,5.31177959 L35.9560646,6.29184597 L35.949131,7.7264714 L37.2762557,7.04060864 L38.6873734,7.43944134 L38.4628654,6.03281031 L39.3405353,4.85013447 L37.8800048,4.66117228 Z M26.8843807,6.65586063 L25.7119015,5.84384812 L25.4592203,7.28564711 L24.2585679,8.18129289 L25.5573438,8.79708217 L25.9858223,10.161984 L27.0459598,9.10537048 L28.5132483,9.05611783 L27.8745679,7.7824602 L28.351757,6.3896514 L26.8843807,6.65586063 Z M46.6847893,9.74915415 L47.8291831,10.6728818 L48.180251,9.29433266 L49.4581384,8.55239363 L48.180251,7.81054208 L47.8291831,6.431643 L46.6847893,7.35572059 L45.1889765,7.24356803 L45.7577943,8.55921726 L45.1889765,9.8748665 L46.6847893,9.74915415 Z M35.949131,10.6728818 C41.3344258,10.6728818 46.116147,13.2692748 49.09294,17.2726487 L51.1783714,17.8323617 C48.0678215,12.688391 42.408606,9.25225358 35.949131,9.25225358 C32.8244506,9.25225358 29.8966316,10.057005 27.347966,11.4636361 L29.4262883,12.0165254 C31.4273757,11.1488741 33.631907,10.6728818 35.949131,10.6728818 L35.949131,10.6728818 Z" id="Fill-3" fill="#F2B626" mask="url(#mask-2)"></path>
                                        <text id="待整改" mask="url(#mask-2)" transform="translate(35.205750, 26.819533) rotate(15.000000) translate(-35.205750, -26.819533) " font-family="PingFangSC-Semibold, PingFang SC" font-size="14.8" font-weight="500" fill="#F2B626">
                                            <tspan x="13.0057502" y="32.3195328">待整改</tspan>
                                        </text>
                                    </g>
                                </g>
                            </g>
                        </g>
                    </g>
                </g>
            </g>
        </g>
    </g>
</svg>