<?xml version="1.0" encoding="utf-8"?>
<!-- Generator: Adobe Illustrator 17.1.0, SVG Export Plug-In . SVG Version: 6.00 Build 0)  -->
<!DOCTYPE svg PUBLIC "-//W3C//DTD SVG 1.1//EN" "http://www.w3.org/Graphics/SVG/1.1/DTD/svg11.dtd">
<svg version="1.1" id="图层_1" xmlns="http://www.w3.org/2000/svg" xmlns:xlink="http://www.w3.org/1999/xlink" x="0px" y="0px"
	 width="200px" height="200px" viewBox="0 0 200 200" enable-background="new 0 0 200 200" xml:space="preserve">
<path fill="#00A9F2" d="M193.5,168.7c0,14.1-11.4,25.5-25.5,25.5H32c-14.1,0-25.5-11.4-25.5-25.5V32.6C6.5,18.5,17.9,7.1,32,7.1h136
	c14.1,0,25.5,11.4,25.5,25.5V168.7z"/>
<path fill="#FFFFFF" d="M116.2,168.8H49.6c-6.7-0.1-12.7-4.5-14.4-11.1c-0.9-3.6-0.4-7.8-0.4-11.4V55.6c0-1.3,0-2.5,0.1-3.8
	c0.8-7.4,7.3-13,14.7-13.1h99.5c2.3,0,4.6,0.2,6.9,1.1c5.7,2.2,9.2,7.8,9.2,13.8v15.1c0,9.1-0.1,18.2-0.1,27.1
	c0,7.1,0,14.1-0.1,21.3c0,1.4-0.2,3.1,0.2,4.4c1,3.2,4.5,4.9,7.6,3.4c1.9-1,3.1-2.9,3.1-5c0.1-5,0-9.8,0-14.8
	C175.9,96,176,87,176,78c0-7.2,0-14.4,0.1-21.5v-4.2c-0.3-7.5-4-14.7-10-19.3c-4.5-3.5-10-5.3-15.7-5.3H55.1
	c-5.5,0-10.7-0.1-15.8,2.2c-7,3.1-12.2,9.2-14.4,16.5C24.2,49,24,51.8,24,54.5v99.6c0,6.9,2.7,13.5,7.7,18.4
	c4.8,4.6,11.3,7.2,17.9,7.3h66.7c2.7-0.1,5.2-2.1,5.4-5C121.9,171.6,119.4,168.8,116.2,168.8L116.2,168.8z M174.4,170.5l-11.2-11.2
	l-7.2-7.2l-2-2c-0.1-0.1-0.3-0.2-0.3-0.3c0-0.2,0.5-0.7,0.6-1c0.4-0.6,0.8-1.3,1.2-2c5.4-9.5,5.6-21.2,0.6-30.9
	c-5.1-9.9-15.2-16.7-26.3-17.6c-11.1-1-22.3,4.1-28.9,13.1c-6.5,8.9-8.2,20.8-4.2,31.1s13.3,18.2,24.2,20.3
	c5.3,1.1,10.8,0.7,15.8-0.8c2.6-0.8,5.2-2,7.5-3.4c0.4-0.2,1.5-1.3,1.9-1.2c0.1,0,0.4,0.4,0.5,0.5l13.5,13.5l5.9,5.9
	c0.5,0.5,1,1.1,1.6,1.5c2.3,1.6,5.5,1.1,7.3-1.2C176.5,175.6,176.3,172.4,174.4,170.5L174.4,170.5z M127.2,152.6
	c-8.7,0-16.7-5.3-20.1-13.3c-3.5-8.2-1.5-17.8,5-24.1c6.4-6.2,16.4-7.8,24.4-4c8.3,3.9,13.3,13.1,12.2,22.2
	C147.4,144.2,137.9,152.7,127.2,152.6L127.2,152.6z M143.4,76.7c3.3,0,5.8-3,5.4-6.1c-0.3-2.7-2.6-4.6-5.4-4.8H69.3
	c-4.2,0-8.3-0.1-12.6,0c-1.7,0-3.2,0.6-4.3,1.9c-2.1,2.4-1.6,6.1,1,8c1.6,1.1,3.3,1,5.1,1H143.4L143.4,76.7z M89.2,109.2
	c3.1,0,5.6-2.6,5.4-5.8c-0.2-2.9-2.5-5.1-5.4-5.1H56.7c-2.3,0.1-4.4,1.5-5.2,3.8c-0.8,2.5,0.4,5.4,2.7,6.5c1.8,0.8,4.1,0.5,6,0.5
	L89.2,109.2L89.2,109.2z M56.6,130.8c-4.2,0-6.9,4.8-4.5,8.3c1.3,2.1,3.5,2.5,5.7,2.5h20.5c3.7,0,6.7-3.5,5.4-7.2
	c-1-2.7-3.5-3.6-6.1-3.6H71C66.1,130.8,61.3,130.8,56.6,130.8L56.6,130.8z"/>
</svg>
