<?xml version="1.0" encoding="UTF-8"?>
<svg width="42px" height="38px" viewBox="0 0 42 38" version="1.1" xmlns="http://www.w3.org/2000/svg" xmlns:xlink="http://www.w3.org/1999/xlink">
    <title>下载</title>
    <g id="深汕" stroke="none" stroke-width="1" fill="none" fill-rule="evenodd">
        <g id="登录页文件下载" transform="translate(-793.000000, -392.000000)">
            <g id="弹框1" transform="translate(769.000000, 320.000000)">
                <g id="下载" transform="translate(24.000000, 72.000000)">
                    <path d="M40.1333333,37.1766917 L1.86666667,37.1766917 C0.844666667,37.1766917 0.0186666667,36.3515789 0.0186666667,35.3306767 L0.0186666667,5.18842105 C0.0186666667,4.1675188 0.844666667,3.34240602 1.86666667,3.34240602 L40.1333333,3.34240602 C41.1553333,3.34240602 41.9813333,4.1675188 41.9813333,5.18842105 L41.9813333,35.3306767 C41.9813333,36.3469173 41.1506667,37.1766917 40.1333333,37.1766917 Z" id="路径" fill="#BFCEEC"></path>
                    <path d="M21,11.2765414 L0.0186666667,11.2765414 L0.0186666667,1.86932331 C0.0186666667,0.848421053 0.844666667,0.0233082707 1.86666667,0.0233082707 L16.226,0.0233082707 C17.0426667,0.0233082707 17.7613333,0.554736842 17.9946667,1.33789474 L21,11.2765414 Z" id="路径" fill="#BFCEEC"></path>
                    <path d="M37.226,34.8831579 L4.774,34.8831579 C3.752,34.8831579 2.926,34.0580451 2.926,33.0371429 L2.926,8.00406015 C2.926,6.98315789 3.752,6.15804511 4.774,6.15804511 L37.2306667,6.15804511 C38.2526667,6.15804511 39.0786667,6.98315789 39.0786667,8.00406015 L39.0786667,33.0371429 C39.0786667,34.0533835 38.248,34.8831579 37.226,34.8831579 Z" id="路径" fill="#EFF3FB"></path>
                    <path d="M40.1333333,37.1766917 L1.86666667,37.1766917 C0.844666667,37.1766917 0.0186666667,36.3515789 0.0186666667,35.3306767 L0.0186666667,11.4723308 C0.0186666667,10.4514286 0.844666667,9.62631579 1.86666667,9.62631579 L40.1333333,9.62631579 C41.1553333,9.62631579 41.9813333,10.4514286 41.9813333,11.4723308 L41.9813333,35.3306767 C41.9813333,36.3469173 41.1506667,37.1766917 40.1333333,37.1766917 L40.1333333,37.1766917 Z" id="路径" fill="#D7E3F8"></path>
                    <g id="分组-5" transform="translate(13.800000, 15.600000)" fill="#93B8FD" fill-rule="nonzero">
                        <rect id="矩形" x="4.8" y="2.4" width="4.8" height="7.8"></rect>
                        <rect id="矩形-copy" x="4.8" y="0" width="4.8" height="1.8"></rect>
                        <path d="M7.65555396,7.73147962 L13.5510216,14.6095252 C13.7666749,14.8611207 13.7375379,15.2399007 13.4859424,15.455554 C13.3771966,15.5487647 13.2386944,15.6 13.0954676,15.6 L1.30453238,15.6 C0.973161532,15.6 0.704532382,15.3313708 0.704532382,15 C0.704532382,14.8567732 0.755767679,14.718271 0.848978421,14.6095252 L6.74444604,7.73147962 C6.96009933,7.47988412 7.33887932,7.45074719 7.59047482,7.66640048 C7.61380211,7.6863953 7.63555915,7.70815234 7.65555396,7.73147962 Z" id="三角形" transform="translate(7.200000, 11.400000) scale(1, -1) translate(-7.200000, -11.400000) "></path>
                    </g>
                </g>
            </g>
        </g>
    </g>
</svg>