<?xml version="1.0" encoding="UTF-8"?>
<svg width="19px" height="18px" viewBox="0 0 19 18" version="1.1" xmlns="http://www.w3.org/2000/svg" xmlns:xlink="http://www.w3.org/1999/xlink">
    <title>编组 8备份 9</title>
    <g id="风险排查" stroke="none" stroke-width="1" fill="none" fill-rule="evenodd">
        <g id="巡查记录" transform="translate(-1311.000000, -301.000000)" fill="#0091FF" fill-rule="nonzero">
            <g id="编组-3" transform="translate(434.000000, 98.000000)">
                <g id="Group-7备份" transform="translate(38.000000, 185.000000)">
                    <g id="编组-8" transform="translate(839.000000, 18.000000)">
                        <path d="M9.5,3 C3.01875,3 1,9.02083334 1,9.02083334 C1,9.02083334 3.23125,15.0416667 9.5,15.0416667 C15.76875,15.0416667 18,9.02083334 18,9.02083334 C18,9.02083334 15.98125,3 9.5,3 Z M9.5,6.1875 C11.0583333,6.1875 12.3333333,7.4625 12.3333333,9.02083334 C12.3333333,10.5791667 11.0583333,11.8541667 9.5,11.8541667 C7.94166666,11.8541667 6.66666666,10.5791667 6.66666666,9.02083334 C6.66666666,7.4625 7.94166666,6.1875 9.5,6.1875 Z M9.5,6.89583334 C8.32639491,6.89583334 7.375,7.84722825 7.375,9.02083334 C7.375,10.1944384 8.32639491,11.1458333 9.5,11.1458333 C10.6736051,11.1458333 11.625,10.1944384 11.625,9.02083334 C11.625,7.84722825 10.6736051,6.89583334 9.5,6.89583334 Z" id="形状备份"></path>
                    </g>
                </g>
            </g>
        </g>
    </g>
</svg>