<?xml version="1.0" encoding="UTF-8"?>
<svg width="17px" height="16px" viewBox="0 0 17 16" version="1.1" xmlns="http://www.w3.org/2000/svg" xmlns:xlink="http://www.w3.org/1999/xlink">
    <!-- Generator: Sketch 60 (88103) - https://sketch.com -->
    <title>filetext</title>
    <desc>Created with Sketch.</desc>
    <g id="风险排查" stroke="none" stroke-width="1" fill="none" fill-rule="evenodd" opacity="0.65">
        <g id="查看工单-展开" transform="translate(-512.000000, -721.000000)" fill="#000000" fill-rule="nonzero">
            <g id="win-copy-4" transform="translate(501.000000, 59.000000)">
                <g id="窗体">
                    <g id="Group-94" transform="translate(11.000000, 662.000000)">
                        <g id="filetext" transform="translate(0.015625, 0.000000)">
                            <path d="M13.665625,4.715625 L9.325,0.3328125 C9.2546875,0.2625 9.178125,0.203125 9.0953125,0.153125 C9.0734375,0.140625 9.0515625,0.128125 9.028125,0.1171875 C9.0140625,0.109375 8.9984375,0.103125 8.984375,0.096875 C8.84375,0.034375 8.6890625,0 8.53125,0 L3.140625,0 C2.51875,0 2,0.503125 2,1.125 L2,14.875 C2,15.496875 2.51875,16 3.140625,16 L12.875,16 C13.496875,16 13.984375,15.496875 13.984375,14.875 L13.984375,5.5078125 C13.984375,5.2109375 13.875,4.9265625 13.665625,4.715625 Z M9.109375,1.725 L12.246875,4.875 L9.109375,4.875 L9.109375,1.725 Z M12.859375,14.875 L3.125,14.875 L3.125,1.125 L7.984375,1.125 L7.984375,4.875 C7.984375,5.496875 8.503125,6 9.125,6 L12.859375,6 L12.859375,14.875 Z M9.125,7.5625 C9.125,7.2515625 8.8734375,7 8.5625,7 L4.5625,7 C4.2515625,7 4,7.2515625 4,7.5625 C4,7.8734375 4.2515625,8.125 4.5625,8.125 L8.5625,8.125 C8.8734375,8.125 9.125,7.8734375 9.125,7.5625 Z M12.125,10.0625 C12.125,9.7515625 11.8734375,9.5 11.5625,9.5 L4.5625,9.5 C4.2515625,9.5 4,9.7515625 4,10.0625 C4,10.3734375 4.2515625,10.625 4.5625,10.625 L11.5625,10.625 C11.8734375,10.625 12.125,10.3734375 12.125,10.0625 Z M10.125,12.5625 C10.125,12.2515625 9.8734375,12 9.5625,12 L4.5625,12 C4.2515625,12 4,12.2515625 4,12.5625 C4,12.8734375 4.2515625,13.125 4.5625,13.125 L9.5625,13.125 C9.8734375,13.125 10.125,12.8734375 10.125,12.5625 Z" id="Shape"></path>
                        </g>
                    </g>
                </g>
            </g>
        </g>
    </g>
</svg>