<?xml version="1.0" encoding="utf-8"?>
<!-- Generator: Adobe Illustrator 17.1.0, SVG Export Plug-In . SVG Version: 6.00 Build 0)  -->
<!DOCTYPE svg PUBLIC "-//W3C//DTD SVG 1.1//EN" "http://www.w3.org/Graphics/SVG/1.1/DTD/svg11.dtd">
<svg version="1.1" id="图层_1" xmlns="http://www.w3.org/2000/svg" xmlns:xlink="http://www.w3.org/1999/xlink" x="0px" y="0px"
	 width="200px" height="200px" viewBox="0 0 200 200" enable-background="new 0 0 200 200" xml:space="preserve">
<path fill="#00A9F2" d="M194.7,168.7c0,14.1-11.4,25.5-25.5,25.5h-136c-14.1,0-25.5-11.4-25.5-25.5V32.6c0-14.1,11.4-25.5,25.5-25.5
	h136c14.1,0,25.5,11.4,25.5,25.5V168.7z"/>
<path fill="#FFFFFF" d="M168.4,108.4c-4.2,0-7.5,3.4-7.5,7.5c0,0,0,0,0,0v38.6c0,3.3-2.7,6-6,6H46.3c-3.3,0-6-2.7-6-6c0,0,0,0,0,0
	V46c0-3.3,2.7-6,6-6l0,0h33.9c4.2,0,7.5-3.4,7.5-7.5c0-4.2-3.4-7.5-7.5-7.5l0,0H46.3c-11.7,0-21.1,9.5-21.1,21.1v108.6
	c0,11.7,9.5,21.1,21.1,21.1h108.6c11.7,0,21.1-9.5,21.1-21.1V116C176,111.8,172.6,108.4,168.4,108.4
	C168.5,108.4,168.5,108.4,168.4,108.4L168.4,108.4z"/>
<path fill="#FFFFFF" d="M92.5,134.2h0.7c3.9,0,7.1-3.1,7.4-7c0.8-9.3,3.1-18.4,6.7-27.1c7.9-19.4,25.5-33.2,46.2-36.2
	c0.5-0.1,0.9-0.3,1.4-0.5l-12.6,26.9c-1.8,3.8-0.3,8.3,3.5,10.2c3.7,1.8,8.1,0.2,9.9-3.4c0-0.1,0.1-0.1,0.1-0.2l19.4-41.4
	c0.8-1.8,1-3.9,0.3-5.8c-0.6-1.9-2-3.5-3.8-4.3l-40.5-19.7c-3.7-1.8-8.1-0.2-9.9,3.5c0,0,0,0.1-0.1,0.1c-1.8,3.8-0.3,8.3,3.5,10.2
	L146,50c-23.2,5.3-42.4,21.3-51.9,43.1c-4.6,10.4-7.5,21.5-8.4,32.9c-0.4,4.2,2.6,7.9,6.8,8.3"/>
</svg>
