<?xml version="1.0" encoding="UTF-8"?>
<svg width="14px" height="18px" viewBox="0 0 14 18" version="1.1" xmlns="http://www.w3.org/2000/svg" xmlns:xlink="http://www.w3.org/1999/xlink">
    <title>左备份 2</title>
    <g id="垃圾分类管理" stroke="none" stroke-width="1" fill="none" fill-rule="evenodd">
        <g id="查看考勤统计备份" transform="translate(-518.000000, -324.000000)">
            <g id="弹框" transform="translate(282.000000, 69.000000)">
                <g id="组备份-2" transform="translate(40.000000, 204.000000)">
                    <g id="编组-3" transform="translate(196.000000, 51.000000)">
                        <path d="M11.5723554,0.789630477 C12.3725545,1.00404319 12.8474283,1.82654863 12.6330155,2.62674778 L9.00954891,16.1497094 C8.79513619,16.9499085 7.97263076,17.4247822 7.1724316,17.2103695 C6.37223245,16.9959568 5.89735871,16.1734514 6.11177143,15.3732522 L9.73523806,1.85029065 C9.94965078,1.05009149 10.7721562,0.575217759 11.5723554,0.789630477 Z" id="矩形" fill="#89DEFF" opacity="0.800000012"></path>
                        <path d="M4.29589824,3.68740796 C5.09609739,3.90182067 5.57097112,4.72432611 5.35655841,5.52452526 L3.28600605,13.2519319 C3.07159333,14.052131 2.24908789,14.5270048 1.44888874,14.312592 C0.648689584,14.0981793 0.17381585,13.2756739 0.388228568,12.4754747 L2.45878093,4.74806813 C2.67319365,3.94786897 3.49569908,3.47299524 4.29589824,3.68740796 Z" id="矩形备份" fill="#89DFFF" opacity="0.5"></path>
                    </g>
                </g>
            </g>
        </g>
    </g>
</svg>