<?xml version="1.0" encoding="UTF-8"?>
<svg width="100px" height="140px" viewBox="0 0 100 140" version="1.1" xmlns="http://www.w3.org/2000/svg" xmlns:xlink="http://www.w3.org/1999/xlink">
    <title>默认头像</title>
    <defs>
        <rect id="path-1" x="0" y="0" width="100" height="140" rx="2"></rect>
    </defs>
    <g id="防灾宝数智中心" stroke="none" stroke-width="1" fill="none" fill-rule="evenodd">
        <g id="通讯录" transform="translate(-444.000000, -154.000000)">
            <g id="右侧" transform="translate(420.000000, 90.000000)">
                <g id="编组-3" transform="translate(16.000000, 56.000000)">
                    <g id="路径-+-路径-+-路径-+-路径-+-路径-+-路径-蒙版" transform="translate(8.000000, 8.000000)">
                        <mask id="mask-2" fill="white">
                            <use xlink:href="#path-1"></use>
                        </mask>
                        <use id="蒙版" fill="#EBECF2" xlink:href="#path-1"></use>
                        <path d="M67.3888714,59.8368897 C78.4084713,44.8541365 76.2819181,69.696562 66.0355267,70.6631875 C49.8929607,75.9796853 67.3888714,59.8368897 67.3888714,59.8368897 Z" id="路径" fill="#EFE7E6" fill-rule="nonzero" mask="url(#mask-2)"></path>
                        <path d="M35.296697,71.1464429 C35.7799524,72.9830429 39.3566161,80.5228598 31.3335438,92.3156683 C23.3104715,104.108477 49.7961948,110.488366 49.7961948,110.488366 C49.7961948,110.488366 74.9286883,101.982038 76.2819181,97.8254683 C84.5949436,90.7691364 60.8157948,97.9221194 65.3589692,71.9197663 C54.5326714,65.0566217 35.296697,71.1464429 35.296697,71.1464429 Z" id="路径" fill="#EDE7E6" fill-rule="nonzero" mask="url(#mask-2)"></path>
                        <path d="M50,147.093308 C106.815518,148.192297 114.78509,143.751079 100,103.683617 C99.998393,103.650535 99.998393,103.613511 99.9960972,103.583245 C97.0320544,98.0513475 76.6678337,89.6732601 68.6772462,89.6732601 C52.8252073,123.657628 31.4301949,95.5220418 31.8169139,89.990004 C20.7453152,89.0570876 7.40356415,98.8623526 2.91766611e-13,105.234536 C-8,148.524568 -6.81551798,145.994319 50,147.093308 Z" id="路径" fill="#586ABA" fill-rule="nonzero" mask="url(#mask-2)"></path>
                        <path d="M35.9253881,75.6896173 C36.5780698,78.0094727 53.4524062,93.765664 68.7430195,89.8991619 C64.2677992,84.3893619 65.8531294,75.7862684 66.1322926,70.6630727 C67.7168192,67.1832897 36.3909662,72.5964386 35.9253881,75.6896173 L35.9253881,75.6896173 Z" id="路径" fill="#E3DCDB" fill-rule="nonzero" mask="url(#mask-2)"></path>
                        <path d="M51.7294459,31.4179153 C58.0125692,32.577843 66.8089649,33.1578642 67.9688926,41.9542599 C80.2450713,93.1856428 25.3404884,100.338741 32.3968204,46.5939706 C35.9733693,27.5514132 51.7294459,31.4179153 51.7294459,31.4179153 L51.7294459,31.4179153 Z" id="路径" fill="#F7EDEB" fill-rule="nonzero" mask="url(#mask-2)"></path>
                        <path d="M38.4750481,38.377711 C41.8783826,40.6975664 48.749218,48.3015495 65.4076391,44.5640685 C66.8336442,50.1063533 66.1206991,50.1063533 69.9772147,55.9703875 C72.7966252,56.9368983 80.9643298,29.194711 57.045255,25.42486 C29.0437627,21.0749877 25.4464373,45.724111 32.641203,54.6170429 C34.3912532,52.7804429 33.0302178,42.7274685 38.4750481,38.377711 Z" id="路径" fill="#586ABA" fill-rule="nonzero" mask="url(#mask-2)"></path>
                    </g>
                </g>
            </g>
        </g>
    </g>
</svg>