<?xml version="1.0" standalone="no"?><!DOCTYPE svg PUBLIC "-//W3C//DTD SVG 1.1//EN" "http://www.w3.org/Graphics/SVG/1.1/DTD/svg11.dtd"><svg t="1591093978703" class="icon" viewBox="0 0 1024 1024" version="1.1" xmlns="http://www.w3.org/2000/svg" p-id="19801" xmlns:xlink="http://www.w3.org/1999/xlink" width="48" height="48"><defs><style type="text/css"></style></defs><path d="M138.567595 186.78225m23.77709 0l464.181631 0q23.77709 0 23.77709 23.77709l0-0.26419q0 23.77709-23.77709 23.777089l-464.181631 0q-23.77709 0-23.77709-23.777089l0 0.26419q0-23.77709 23.77709-23.77709Z" p-id="19802" fill="#2aa515"></path><path d="M138.567595 437.762642m23.77709 0l269.209495 0q23.77709 0 23.777089 23.77709l0-0.26419q0 23.77709-23.777089 23.77709l-269.209495 0q-23.77709 0-23.77709-23.77709l0 0.26419q0-23.77709 23.77709-23.77709Z" p-id="19803" fill="#2aa515"></path><path d="M138.567595 693.762642m23.77709 0l269.209495 0q23.77709 0 23.777089 23.77709l0-0.26419q0 23.77709-23.777089 23.77709l-269.209495 0q-23.77709 0-23.77709-23.77709l0 0.26419q0-23.77709 23.77709-23.77709Z" p-id="19804" fill="#2aa515"></path><path d="M883.318885 683.723426a23.77709 23.77709 0 0 0-33.552115 0L715.822497 818.988648l-69.48194-69.48194a23.77709 23.77709 0 0 0-33.552115 33.552116l86.125903 86.125903a23.77709 23.77709 0 0 0 33.552115 0l150.852425-150.852426a23.77709 23.77709 0 0 0 0-34.608875z" p-id="19805" fill="#2aa515"></path><path d="M748.053664 1024a248.074303 248.074303 0 1 1 248.074303-248.074303 248.602683 248.602683 0 0 1-248.074303 248.074303z m0-456.784314a208.44582 208.44582 0 1 0 208.44582 208.710011 208.71001 208.71001 0 0 0-208.44582-208.710011z" p-id="19806" fill="#2aa515"></path><path d="M499.97936 1019.772962H116.375645A89.031992 89.031992 0 0 1 27.607843 931.00516V88.767802A89.031992 89.031992 0 0 1 116.375645 0h718.068111a89.031992 89.031992 0 0 1 88.767802 88.767802v397.869969a26.418989 26.418989 0 1 1-52.837977 0V88.767802A35.929825 35.929825 0 0 0 834.443756 52.837977H116.375645A35.929825 35.929825 0 0 0 80.44582 88.767802v842.237358a35.929825 35.929825 0 0 0 35.929825 35.929825h383.603715a26.418989 26.418989 0 0 1 0 52.837977z" p-id="19807" fill="#2aa515"></path></svg>