<?xml version="1.0" encoding="UTF-8"?>
<svg width="20px" height="20px" viewBox="0 0 20 20" version="1.1" xmlns="http://www.w3.org/2000/svg" xmlns:xlink="http://www.w3.org/1999/xlink">
    <title>在线</title>
    <g id="风险排查" stroke="none" stroke-width="1" fill="none" fill-rule="evenodd">
        <g id="用户在线数" transform="translate(-1184.000000, -16.000000)" fill="#FFFFFF">
            <g id="user" transform="translate(1184.000000, 8.000000)">
                <g id="编组" transform="translate(0.000000, 8.000000)">
                    <path d="M9.58968769,15.6769125 L10.3163414,15.6769125 L10.3163414,18.0969816 L9.58968769,18.0969816 L9.58968769,15.6769125 Z M17.5734877,2.0093372 L2.33256035,2.0093372 C1.59912305,2.0093372 1.00243406,2.60602619 1.00243406,3.33946349 L1.00243406,14.3467862 C1.00243406,15.0802235 1.59912305,15.6769125 2.33256035,15.6769125 L8.62288826,15.6769125 L8.62288826,18.0969816 L6.56612712,18.0969816 C6.29914952,18.0969816 6.08273686,18.3134132 6.08273686,18.5803908 C6.08273686,18.8473684 6.29914952,19.0638 6.56612712,19.0638 L13.3398831,19.0638 C13.6068796,19.0638 13.8232923,18.8473684 13.8232923,18.5803908 C13.8232923,18.3134132 13.6068796,18.0969816 13.3398831,18.0969816 L11.2831597,18.0969816 L11.2831597,15.6768936 L17.5734688,15.6768936 C18.3069061,15.6768936 18.9035951,15.0802235 18.9035951,14.3467673 L18.9035951,3.3394446 C18.9035951,2.60602619 18.306925,2.0093372 17.5734877,2.0093372 Z M10.3163414,18.0969816 L9.58968769,18.0969816 L9.58968769,15.6769125 L10.3163414,15.6769125 L10.3163414,18.0969816 L10.3163414,18.0969816 Z M17.9367767,13.1367611 L1.96923348,13.1367611 L1.96923348,12.1699995 L17.9367767,12.1699995 L17.9367767,13.1367611 Z" id="形状"></path>
                </g>
            </g>
        </g>
    </g>
</svg>