<?xml version="1.0" encoding="UTF-8"?>
<svg width="18px" height="19px" viewBox="0 0 18 19" version="1.1" xmlns="http://www.w3.org/2000/svg" xmlns:xlink="http://www.w3.org/1999/xlink">
    <!-- Generator: Sketch 60 (88103) - https://sketch.com -->
    <title>编组 2备份 20</title>
    <desc>Created with Sketch.</desc>
    <g id="风险排查" stroke="none" stroke-width="1" fill="none" fill-rule="evenodd">
        <g id="任务管理" transform="translate(-1280.000000, -220.000000)" fill="#9FC8FE" fill-rule="nonzero">
            <g id="编组-3" transform="translate(434.000000, 98.000000)">
                <g id="Group-7" transform="translate(48.000000, 105.000000)">
                    <g id="qr" transform="translate(798.000000, 17.000000)">
                        <path d="M2,8.5882154 L8.58823248,8.5882154 L8.58823248,1.99999886 L2,1.99999886 L2,8.5882154 Z M3.64707008,3.647053 L6.94117835,3.647053 L6.94117835,6.94116126 L3.64707008,6.94116126 L3.64707008,3.647053 Z M9.41176752,1.99999886 L9.41176752,8.58823134 L16,8.58823134 L16,1.99999886 L9.41176752,1.99999886 Z M14.3529299,6.94116126 L11.0588217,6.94116126 L11.0588217,3.647053 L14.3529299,3.647053 L14.3529299,6.94116126 Z M4.47058917,6.11764217 L6.11764331,6.11764217 L6.11764331,4.47057209 L4.47058917,4.47057209 L4.47058917,6.11764217 Z M2,15.9999829 L8.58823248,15.9999829 L8.58823248,9.41175044 L2,9.41175044 L2,15.9999829 Z M3.64707008,11.0588046 L6.94117835,11.0588046 L6.94117835,14.3529128 L3.64707008,14.3529128 L3.64707008,11.0588046 Z M13.5294108,4.47057209 L11.8823407,4.47057209 L11.8823407,6.11762623 L13.5294108,6.11762623 L13.5294108,4.47057209 L13.5294108,4.47057209 Z M9.41176752,15.9999829 L11.0588217,15.9999829 L11.0588217,14.3529288 L9.41176752,14.3529288 L9.41176752,15.9999829 Z M11.0588217,11.0588046 L11.0588217,14.3529128 L12.7058758,14.3529128 L12.7058758,11.0588046 L11.0588217,11.0588046 Z M14.3529299,14.3529288 L12.7058758,14.3529288 L12.7058758,15.9999829 L15.9999841,15.9999829 L15.9999841,12.7058587 L14.3529299,12.7058587 L14.3529299,14.3529288 Z M14.3529299,11.0588046 L15.9999841,11.0588046 L15.9999841,9.41175044 L14.3529299,9.41175044 L14.3529299,11.0588046 Z M9.41176752,9.41175044 L9.41176752,11.0588046 L11.0588217,11.0588046 L11.0588217,9.41175044 L9.41176752,9.41175044 Z M4.47058917,13.5293937 L6.11764331,13.5293937 L6.11764331,11.8823396 L4.47058917,11.8823396 L4.47058917,13.5293937 Z" id="形状"></path>
                    </g>
                </g>
            </g>
        </g>
    </g>
</svg>