<?xml version="1.0" encoding="UTF-8"?>
<svg width="18px" height="19px" viewBox="0 0 18 19" version="1.1" xmlns="http://www.w3.org/2000/svg" xmlns:xlink="http://www.w3.org/1999/xlink">
    <!-- Generator: Sketch 60 (88103) - https://sketch.com -->
    <title>编组 2备份 24</title>
    <desc>Created with Sketch.</desc>
    <g id="风险排查" stroke="none" stroke-width="1" fill="none" fill-rule="evenodd">
        <g id="任务管理" transform="translate(-1280.000000, -300.000000)" fill="#0091FF" fill-rule="nonzero">
            <g id="编组-3" transform="translate(434.000000, 98.000000)">
                <g id="Group-7备份" transform="translate(48.000000, 185.000000)">
                    <g id="qr" transform="translate(798.000000, 17.000000)">
                        <path d="M2,9.5882154 L8.58823248,9.5882154 L8.58823248,2.99999886 L2,2.99999886 L2,9.5882154 Z M3.64707008,4.647053 L6.94117835,4.647053 L6.94117835,7.94116126 L3.64707008,7.94116126 L3.64707008,4.647053 Z M9.41176752,2.99999886 L9.41176752,9.58823134 L16,9.58823134 L16,2.99999886 L9.41176752,2.99999886 Z M14.3529299,7.94116126 L11.0588217,7.94116126 L11.0588217,4.647053 L14.3529299,4.647053 L14.3529299,7.94116126 Z M4.47058917,7.11764217 L6.11764331,7.11764217 L6.11764331,5.47057209 L4.47058917,5.47057209 L4.47058917,7.11764217 Z M2,16.9999829 L8.58823248,16.9999829 L8.58823248,10.4117504 L2,10.4117504 L2,16.9999829 Z M3.64707008,12.0588046 L6.94117835,12.0588046 L6.94117835,15.3529128 L3.64707008,15.3529128 L3.64707008,12.0588046 Z M13.5294108,5.47057209 L11.8823407,5.47057209 L11.8823407,7.11762623 L13.5294108,7.11762623 L13.5294108,5.47057209 L13.5294108,5.47057209 Z M9.41176752,16.9999829 L11.0588217,16.9999829 L11.0588217,15.3529288 L9.41176752,15.3529288 L9.41176752,16.9999829 Z M11.0588217,12.0588046 L11.0588217,15.3529128 L12.7058758,15.3529128 L12.7058758,12.0588046 L11.0588217,12.0588046 Z M14.3529299,15.3529288 L12.7058758,15.3529288 L12.7058758,16.9999829 L15.9999841,16.9999829 L15.9999841,13.7058587 L14.3529299,13.7058587 L14.3529299,15.3529288 Z M14.3529299,12.0588046 L15.9999841,12.0588046 L15.9999841,10.4117504 L14.3529299,10.4117504 L14.3529299,12.0588046 Z M9.41176752,10.4117504 L9.41176752,12.0588046 L11.0588217,12.0588046 L11.0588217,10.4117504 L9.41176752,10.4117504 Z M4.47058917,14.5293937 L6.11764331,14.5293937 L6.11764331,12.8823396 L4.47058917,12.8823396 L4.47058917,14.5293937 Z" id="形状"></path>
                    </g>
                </g>
            </g>
        </g>
    </g>
</svg>