<?xml version="1.0" encoding="UTF-8"?>
<svg width="18px" height="19px" viewBox="0 0 18 19" version="1.1" xmlns="http://www.w3.org/2000/svg" xmlns:xlink="http://www.w3.org/1999/xlink">
    <title>编组 2备份 21</title>
    <g id="群防共治" stroke="none" stroke-width="1" fill="none" fill-rule="evenodd">
        <g id="区发布响应" transform="translate(-1240.000000, -209.000000)" fill="#9FC8FE" fill-rule="nonzero">
            <g id="编组-3" transform="translate(170.000000, 98.000000)">
                <g id="Group-7" transform="translate(46.000000, 111.000000)">
                    <g id="播放" transform="translate(1024.000000, 0.000000)">
                        <path d="M12.6154401,3 C11.8042769,3 11.0945091,3.70818347 11.0945091,4.51776234 L11.0945091,15.6490757 C11.0945091,16.4586545 11.8042769,17.166838 12.6154401,17.166838 C13.4266032,17.166838 14.136371,16.4586545 14.136371,15.6490757 L14.136371,4.51776234 C14.136371,3.70818347 13.4266032,3 12.6154401,3 Z M5.52093094,3 C4.70976777,3 4,3.70818347 4,4.51776234 L4,15.6490757 C4,16.4586545 4.70976777,17.166838 5.52093094,17.166838 C6.33209411,17.166838 7.04186188,16.4586545 7.04186188,15.6490757 L7.04186188,4.51776234 C7.04027758,3.70818347 6.33050981,3 5.52093094,3 Z" id="形状"></path>
                    </g>
                </g>
            </g>
        </g>
    </g>
</svg>