<?xml version="1.0" encoding="UTF-8"?>
<svg width="18px" height="19px" viewBox="0 0 18 19" version="1.1" xmlns="http://www.w3.org/2000/svg" xmlns:xlink="http://www.w3.org/1999/xlink">
    <title>编组 2备份 50</title>
    <g id="群防共治" stroke="none" stroke-width="1" fill="none" fill-rule="evenodd">
        <g id="区发布响应" transform="translate(-1312.000000, -259.000000)">
            <g id="编组-3" transform="translate(170.000000, 98.000000)">
                <g id="Group-7备份" transform="translate(46.000000, 161.000000)">
                    <g id="编组-2" transform="translate(1072.000000, 0.000000)">
                        <g id="删除icon" transform="translate(24.000000, 0.000000)">
                            <path d="M15.5098399,3.99241908 L12.5055369,3.99241908 L12.5055369,3.06364519 C12.5046645,2.35546893 12.1609686,2 11.3381713,2 L6.73872016,2 C5.91067312,2 5.49885468,2.35546893 5.49885468,3.06364519 L5.49885468,3.99241908 L2.4914811,3.99241908 C2.21458788,3.99241908 2,4.25152845 2,4.4878406 C2,4.7248996 2.21546023,5 2.4914811,5 L15.5089675,5 C15.7849884,5 16,4.8307014 16,4.4878406 C16,4.25926673 15.8366133,4.09412623 15.5098399,3.99241908 Z M13.5011714,6 L4.50056851,6 C4.3675503,6 4.24066183,6.05258709 4.14614889,6.15039644 C4.05339397,6.24912435 4,6.37921423 4,6.52037595 L4,14.4358149 C4,15.3086522 4.67385,16.0181678 5.50083429,16.0181678 L12.5017924,16.0181678 C13.3287767,16.0181678 14,15.3086522 14,14.4358149 L14,6.52867572 C14.0008687,6.23711756 13.7777093,6.00091855 13.5011714,6 L13.5011714,6 Z" id="Combined-Shape" fill="#9FC8FE" fill-rule="nonzero"></path>
                            <path d="M11.0006789,13.5402681 C11.0006789,13.7955869 10.7761646,14 10.500776,14 C10.2236412,14 10,13.7955869 10,13.5402681 L10,8.46055067 C10,8.20523182 10.2236412,8 10.500776,8 C10.7770377,8 11.0006633,8.2060362 11.0006633,8.46055067 L11.0006633,13.5402681 L11.0006789,13.5402681 Z" id="Path" fill="#FFFFFF"></path>
                            <path d="M8.00067886,13.5402681 C8.00067886,13.7955869 7.77616458,14 7.50077599,14 C7.22364117,14 7,13.7955869 7,13.5402681 L7,8.46055067 C7,8.20523182 7.22364117,8 7.50077599,8 C7.77703769,8 8.00066327,8.2060362 8.00066327,8.46055067 L8.00066327,13.5402681 L8.00067886,13.5402681 Z" id="Path-Copy" fill="#FFFFFF"></path>
                        </g>
                    </g>
                </g>
            </g>
        </g>
    </g>
</svg>