<?xml version="1.0" encoding="UTF-8"?>
<svg width="18px" height="19px" viewBox="0 0 18 19" version="1.1" xmlns="http://www.w3.org/2000/svg" xmlns:xlink="http://www.w3.org/1999/xlink">
    <title>编组 2备份 13</title>
    <g id="群防共治" stroke="none" stroke-width="1" fill="none" fill-rule="evenodd">
        <g id="区发布响应" transform="translate(-1288.000000, -209.000000)" fill="#9FC8FE" fill-rule="nonzero">
            <g id="编组-3" transform="translate(170.000000, 98.000000)">
                <g id="Group-7" transform="translate(46.000000, 111.000000)">
                    <g id="编组-2" transform="translate(1072.000000, 0.000000)">
                        <path d="M15.7662,5.1108 C15.9153149,4.96889167 15.9997201,4.77204761 15.9997201,4.5662 C15.9997201,4.36035239 15.9153149,4.16350833 15.7662,4.0216 L13.9784,2.2338 C13.8364917,2.08468507 13.6396476,2.00027992 13.4338,2.00027992 C13.2279524,2.00027992 13.0311083,2.08468507 12.8892,2.2338 L11.4892,3.6338 L14.4432,6.5878 L15.7662,5.1108 L15.7662,5.1108 Z M2,13.046 L2,16 L4.9554,16 L13.5108,7.3662 L10.5568,4.4122 L2,13.0432 L2,13.046 Z" id="形状"></path>
                    </g>
                </g>
            </g>
        </g>
    </g>
</svg>