<?xml version="1.0" encoding="utf-8"?>
<!-- Generator: Adobe Illustrator 23.0.0, SVG Export Plug-In . SVG Version: 6.00 Build 0)  -->
<svg version="1.1" id="图层_1" xmlns="http://www.w3.org/2000/svg" xmlns:xlink="http://www.w3.org/1999/xlink" x="0px" y="0px"
	 viewBox="0 0 200 200" style="enable-background:new 0 0 200 200;" xml:space="preserve">
<style type="text/css">
	.st0{fill:#00A9F2;}
	.st1{fill:#FFFFFF;}
</style>
<path class="st0" d="M193.5,169.6c0,14.1-11.4,25.5-25.5,25.5H32c-14.1,0-25.5-11.4-25.5-25.5V33.5C6.5,19.4,17.9,8,32,8h136
	c14.1,0,25.5,11.4,25.5,25.5V169.6z"/>
<g>
	<path class="st1" d="M156.8,36.4h-17.6c-2.1-6.2-8.7-10.9-16.5-10.9H77.3c-7.8,0-14.4,4.6-16.5,10.9H43.2
		c-8.2,0-14.8,5.1-14.8,11.3v118.8c0,6.2,6.6,11.3,14.8,11.3h113.5c8.2,0,14.8-5.1,14.8-11.3V47.6C171.6,41.4,164.9,36.4,156.8,36.4
		z M77.3,33h45.4c4.8,0,8.7,3.4,8.7,7.6s-3.9,7.6-8.7,7.6H77.3c-4.8,0-8.7-3.4-8.7-7.6S72.5,33,77.3,33z M163,166.4
		c0,2-2.9,3.8-6.3,3.8H43.2c-3.4,0-6.3-1.7-6.3-3.8V47.6c0-2,2.9-3.8,6.3-3.8h17.2c1.7,6.8,8.6,11.9,16.9,11.9h45.5
		c8.3,0,15.2-5.1,16.9-11.9h17.2c3.4,0,6.3,1.7,6.3,3.8L163,166.4L163,166.4z"/>
	<path class="st1" d="M137.6,75.7h-74c-1.7,0-3-1.9-3-4.4s1.3-4.4,3-4.4h74c1.7,0,3,1.9,3,4.4S139.3,75.7,137.6,75.7L137.6,75.7z
		 M138.1,98h-26.7c-1.4,0-2.5-1.9-2.5-4.4s1.1-4.4,2.5-4.4h26.7c1.4,0,2.5,1.9,2.5,4.4S139.5,98,138.1,98z M123.8,123.9l3.6,3.7
		c3.3,3.4,4.9,7.7,4.9,12.1c0,4.4-1.6,8.7-4.9,12.1c-3.2,3.2-7.4,5-11.9,5c-4.5,0-8.7-1.8-11.9-5l-13.3-13.5c-8.2-8.4-9.4-18-3-24.5
		c1.7-1.8,4.5-1.8,6.3,0c1.7,1.7,1.8,4.6,0,6.3c-3.8,3.8,0.3,9.1,3,11.9l13.3,13.5c1.5,1.5,3.5,2.3,5.6,2.3c2.1,0,4.1-0.8,5.6-2.3
		c3.1-3.2,3.1-8.3,0-11.5l-3.6-3.7c-1.7-1.8-1.7-4.6,0-6.4c1.7-1.7,4.4-1.7,6.2-0.1C123.7,123.8,123.7,123.8,123.8,123.9
		L123.8,123.9z"/>
	<path class="st1" d="M89.8,89.3l14.1,14.4c4.4,4.4,6.6,9.1,6.6,13.6c0,3.6-1.5,7.1-4.4,10.1c-1.7,1.8-4.5,1.8-6.3,0
		c-1.7-1.7-1.7-4.6,0-6.3c1.3-1.3,4.3-4.4-2.2-11L83.5,95.6c-1.5-1.6-3.5-2.4-5.6-2.4s-4.1,0.9-5.6,2.4c-2.8,2.9-4.2,7.3-0.9,10.6
		l4.5,4.5c1.7,1.8,1.7,4.6,0,6.4c-1.7,1.8-4.5,1.7-6.3,0l-4.5-4.6c-6.4-6.5-6-16.2,0.9-23.2c3.2-3.2,7.4-5,11.9-5
		C82.4,84.3,86.7,86,89.8,89.3L89.8,89.3z"/>
</g>
</svg>
