<?xml version="1.0" encoding="UTF-8"?>
<svg width="18px" height="19px" viewBox="0 0 18 19" version="1.1" xmlns="http://www.w3.org/2000/svg" xmlns:xlink="http://www.w3.org/1999/xlink">
    <!-- Generator: Sketch 60 (88103) - https://sketch.com -->
    <title>编组 2备份 30</title>
    <desc>Created with Sketch.</desc>
    <g id="风险排查" stroke="none" stroke-width="1" fill="none" fill-rule="evenodd">
        <g id="巡查记录" transform="translate(-1237.000000, -220.000000)" fill="#FA7E7E">
            <g id="编组-3" transform="translate(434.000000, 98.000000)">
                <g id="Group-7" transform="translate(38.000000, 105.000000)">
                    <g id="异常" transform="translate(765.000000, 18.000000)">
                        <g id="Shape">
                            <path d="M17.6749514,12.1716387 L10.5163456,0.819317017 C10.1809928,0.308727103 9.61109823,0.00122894406 9.00016116,0.00122894406 C8.38922409,0.00122894406 7.81932956,0.308727103 7.48397675,0.819317017 L0.325370887,12.1716387 C-0.510953668,13.4217785 0.362756251,15.1190891 1.8415553,15.1190891 L16.158767,15.1190891 C17.6375661,15.1190891 18.511276,13.4217785 17.6749514,12.1716387 L17.6749514,12.1716387 Z M7.88552331,4.69156625 C7.88552331,4.539279 8.00737192,4.41468037 8.15691339,4.41468037 L9.84340893,4.41468037 C9.9929504,4.41468037 10.1134144,4.53927902 10.1134144,4.69156625 L10.1134144,5.83510501 L9.83233178,9.66443694 C9.82360608,9.80747698 9.70564939,9.91936733 9.56232634,9.92055639 L8.43799598,9.92055639 C8.29467292,9.91936733 8.17671624,9.80747698 8.16799054,9.66443694 L7.88690795,5.83510501 L7.88690795,4.69156625 L7.88552331,4.69156625 Z M9.00016117,13.3774768 C8.65642611,13.3734615 8.32836761,13.2330714 8.08816686,12.9871957 C7.84796611,12.7413201 7.71530276,12.4101035 7.71936611,12.0664221 C7.71936611,11.3423655 8.29260843,10.7539829 9.00016117,10.7539829 C9.70632925,10.7539829 10.2809562,11.3423655 10.2809562,12.0664221 C10.2850196,12.4101035 10.1523562,12.7413201 9.91215547,12.9871957 C9.67195472,13.2330714 9.34389622,13.3734615 9.00016117,13.3774768 Z" fill-rule="nonzero"></path>
                        </g>
                    </g>
                </g>
            </g>
        </g>
    </g>
</svg>