<?xml version="1.0" encoding="UTF-8"?>
<svg width="18px" height="19px" viewBox="0 0 18 19" version="1.1" xmlns="http://www.w3.org/2000/svg" xmlns:xlink="http://www.w3.org/1999/xlink">
    <!-- Generator: Sketch 60 (88103) - https://sketch.com -->
    <title>编组 2备份 21</title>
    <desc>Created with Sketch.</desc>
    <g id="风险排查" stroke="none" stroke-width="1" fill="none" fill-rule="evenodd">
        <g id="巡查记录" transform="translate(-1185.000000, -220.000000)">
            <g id="编组-3" transform="translate(434.000000, 98.000000)">
                <g id="Group-7" transform="translate(38.000000, 105.000000)">
                    <g id="正常" transform="translate(714.000000, 18.000000)">
                        <g id="Shape">
                            <path d="M0,8 C0,12.418278 3.581722,16 8,16 C12.418278,16 16,12.418278 16,8 C16,3.581722 12.418278,0 8,0 C3.581722,0 0,3.581722 0,8 Z" fill="#19BE6B" fill-rule="nonzero"></path>
                            <path d="M6.4,11.0857143 C6.28571428,11.0857143 6.05714286,10.9714286 5.94285714,10.8571429 L3.31428572,8 C3.2,7.77142858 3.2,7.42857142 3.42857142,7.2 C3.65714284,6.97142858 4,6.97142858 4.22857142,7.2 L6.51428572,9.71428572 L11.8857143,5.02857142 C12.1142857,4.8 12.4571429,4.8 12.6857143,5.02857142 C12.9142857,5.25714284 12.9142857,5.6 12.6857143,5.82857142 L6.85714286,10.9714286 C6.74285714,10.9714286 6.62857144,11.0857143 6.4,11.0857143 Z" fill="#FFFFFF" fill-rule="nonzero"></path>
                        </g>
                    </g>
                </g>
            </g>
        </g>
    </g>
</svg>