<svg t="1590738698564" class="icon" viewBox="0 0 1024 1024" version="1.1" xmlns="http://www.w3.org/2000/svg" p-id="7153" width="32" height="32"><path d="M886.144 842.048l-191.68-191.616a316.352 316.352 0 0 0 71.04-200.576 316.8 316.8 0 0 0-93.44-225.536 317.056 317.056 0 0 0-225.664-93.44 316.8 316.8 0 0 0-225.6 93.44A316.8 316.8 0 0 0 127.36 449.92a316.8 316.8 0 0 0 93.44 225.536 316.8 316.8 0 0 0 225.6 93.44 316.288 316.288 0 0 0 203.392-73.28l191.36 191.424a31.872 31.872 0 0 0 44.992 0 31.872 31.872 0 0 0 0-44.928z m-439.744-136.64c-140.8 0-255.36-114.56-255.36-255.36s114.56-255.424 255.36-255.424 255.36 114.56 255.36 255.36-114.368 255.424-255.36 255.424z" p-id="7154" fill="#8a8a8a"></path></svg>