<?xml version="1.0" encoding="UTF-8"?>
<svg width="18px" height="19px" viewBox="0 0 18 19" version="1.1" xmlns="http://www.w3.org/2000/svg" xmlns:xlink="http://www.w3.org/1999/xlink">
    <title>编组 2备份 59</title>
    <g id="群防共治" stroke="none" stroke-width="1" fill="none" fill-rule="evenodd">
        <g id="成员管理-入职申请" transform="translate(-1273.000000, -471.000000)" fill="#0091FF" fill-rule="nonzero">
            <g id="编组-3" transform="translate(170.000000, 98.000000)">
                <g id="Group-7备份-5" transform="translate(46.000000, 373.000000)">
                    <g id="编组" transform="translate(1057.000000, 0.000000)">
                        <path d="M15.9505455,13.4562927 L15.9505455,14.2005455 L2.00419585,14.2005455 L2.00419585,13.4562927 C2.00419585,12.356681 2.89594783,11.4649133 3.99557516,11.4649133 L6.34902344,11.4649133 C6.34902344,11.4649133 7.21396597,10.6133913 7.21396597,9.75514323 C7.21396597,8.8968952 5.49077541,8.05208333 5.49077541,5.49077541 C5.49077541,3.56645115 7.05304643,2.00419585 8.97737069,2.00419585 C10.901695,2.00419585 12.463966,3.56645115 12.463966,5.49077541 C12.463966,8.05208333 10.7407754,8.90362114 10.7407754,9.76185345 C10.7407754,10.6200858 11.6057179,11.4716236 11.6057179,11.4716236 L13.9591662,11.4716236 C15.0587936,11.4649133 15.9505455,12.356681 15.9505455,13.4562927 Z M2.00419585,15.9505455 L15.9505455,15.9505455 L15.9505455,14.9515086 L2.00419585,14.9515086 L2.00419585,15.9505455 Z" id="形状"></path>
                    </g>
                </g>
            </g>
        </g>
    </g>
</svg>