<?xml version="1.0" encoding="utf-8"?>
<svg
  t="1629697123425"
  class="icon"
  viewBox="0 0 1024 1024"
  version="1.1"
  xmlns="http://www.w3.org/2000/svg"
  p-id="1012"
  width="200"
  height="200"
>
  <path
    d="M877.689404 0.006451H146.297694c-80.828525 0-146.304145 65.540129-146.304145 146.304145v731.456218c0 80.764017 65.46917 146.239637 146.310596 146.239637h731.398161c80.822074 0 146.304145-65.475621 146.304145-146.239637V146.304145C1023.993549 65.546579 958.53083 0.006451 877.689404 0.006451z"
    fill="#00A9F2"
    p-id="1013"
    data-spm-anchor-id="a313x.7781069.0.i1"
    class="selected"
  >
  </path>
  <path
    d="M865.181303 568.60577c0 94.09782-89.640318 170.365629-200.239285 170.36563H359.057982c-110.605418 0-200.239284-76.267809-200.239285-170.36563v-200.168325c0-94.09782 89.633867-170.37208 200.239285-170.37208h305.884036c110.605418 0 200.239284 76.267809 200.239285 170.37208v200.168325z"
    fill="#ffffff"
    p-id="1014"
    data-spm-anchor-id="a313x.7781069.0.i2"
    class="selected"
  >
  </path>
  <path
    d="M276.545798 825.941086l152.735593-94.394557-101.825879-3.180245z"
    fill="#ffffff"
    p-id="1015"
    data-spm-anchor-id="a313x.7781069.0.i3"
    class="selected">
  </path>
  <path
    d="M305.006728 391.853849H570.0572v45.1556H305.006728zM305.006728 519.121683h391.544211v45.155601H305.006728z"
    fill="#00A9F2"
    p-id="1016"
    data-spm-anchor-id="a313x.7781069.0.i4"
    class="selected"
  >
  </path>
</svg>