<?xml version="1.0" encoding="utf-8"?>
<svg
  t="1629688661486"
  class="icon"
  viewBox="0 0 1024 1024"
  version="1.1"
  xmlns="http://www.w3.org/2000/svg"
  p-id="2624"
  width="200"
  height="200"
>
  <path
    d="M877.695855 0H146.297694C65.46917 0-0.006451 65.540129-0.006451 146.304145v731.456218c0 80.764017 65.475621 146.239637 146.304145 146.239637H877.695855c80.822074 0 146.304145-65.475621 146.304145-146.239637V146.304145C1024 65.540129 958.524379 0 877.695855 0z"
    fill="#00A9F2"
    p-id="2625"
    data-spm-anchor-id="a313x.7781069.0.i6"
    class=""
  >
  </path>
  <path
    d="M831.50812625 774.63021313s-54.047625 106.01486719-103.32367406 108.60929812c-228.32808375-16.95149344-564.7514175-441.0714375-533.69686219-644.664735 8.40619875-49.28209688 87.99294469-103.75305563 138.26080406-97.28209594 46.40342719 25.58145375 138.4543275 164.54983031 138.4543275 232.10180157l-44.98828312 39.50913375c8.78719875 86.38427625 105.6943425 199.15434 186.59947125 231.10999125 0 0 45.0789975-34.92503437 63.30049125-37.52551313 38.32984781 3.48948 155.39372531 128.05846031 155.39372531 168.14211938z"
    fill="#ffffff"
    p-id="2626"
    data-spm-anchor-id="a313x.7781069.0.i7"
    class="selected"
  >
  </path>
</svg>
