<?xml version="1.0" encoding="UTF-8"?>
<svg width="18px" height="19px" viewBox="0 0 18 19" version="1.1" xmlns="http://www.w3.org/2000/svg" xmlns:xlink="http://www.w3.org/1999/xlink">
    <!-- Generator: Sketch 60 (88103) - https://sketch.com -->
    <title>编组 2备份 29</title>
    <desc>Created with Sketch.</desc>
    <g id="风险排查" stroke="none" stroke-width="1" fill="none" fill-rule="evenodd">
        <g id="任务管理" transform="translate(-1257.000000, -381.000000)" fill="#9FC8FE" fill-rule="nonzero">
            <g id="编组-3" transform="translate(434.000000, 98.000000)">
                <g id="Group-7备份-2" transform="translate(48.000000, 266.000000)">
                    <g id="播放" transform="translate(775.000000, 17.000000)">
                        <g id="编组" transform="translate(4.000000, 2.000000)">
                            <path d="M8.6171362,0.0152652138 C7.80597303,0.0152652138 7.09620526,0.723448684 7.09620526,1.53302755 L7.09620526,12.6643409 C7.09620526,13.4739197 7.80597303,14.1821032 8.6171362,14.1821032 C9.42829937,14.1821032 10.1380671,13.4739197 10.1380671,12.6643409 L10.1380671,1.53302755 C10.1380671,0.723448684 9.42829937,0.0152652138 8.6171362,0.0152652138 Z M1.52262708,0.0152652138 C0.711463908,0.0152652138 0.00169613487,0.723448684 0.00169613487,1.53302755 L0.00169613487,12.6643409 C0.00169613487,13.4739197 0.711463908,14.1821032 1.52262708,14.1821032 C2.33379025,14.1821032 3.04355802,13.4739197 3.04355802,12.6643409 L3.04355802,1.53302755 C3.04197372,0.723448684 2.33220594,0.0152652138 1.52262708,0.0152652138 Z" id="形状"></path>
                        </g>
                    </g>
                </g>
            </g>
        </g>
    </g>
</svg>