<?xml version="1.0" encoding="UTF-8"?>
<svg width="18px" height="19px" viewBox="0 0 18 19" version="1.1" xmlns="http://www.w3.org/2000/svg" xmlns:xlink="http://www.w3.org/1999/xlink">
    <title>编组 2备份 21</title>
    <g id="群防共治" stroke="none" stroke-width="1" fill="none" fill-rule="evenodd">
        <g id="审批表单" transform="translate(-1283.000000, -337.000000)" fill="#0091FF" fill-rule="nonzero">
            <g id="编组-3" transform="translate(170.000000, 98.000000)">
                <g id="Group-7备份-2" transform="translate(46.000000, 231.000000)">
                    <g id="播放" transform="translate(1067.000000, 8.000000)">
                        <path d="M12.6171362,2.01526521 C11.805973,2.01526521 11.0962053,2.72344868 11.0962053,3.53302755 L11.0962053,14.6643409 C11.0962053,15.4739197 11.805973,16.1821032 12.6171362,16.1821032 C13.4282994,16.1821032 14.1380671,15.4739197 14.1380671,14.6643409 L14.1380671,3.53302755 C14.1380671,2.72344868 13.4282994,2.01526521 12.6171362,2.01526521 Z M5.52262708,2.01526521 C4.71146391,2.01526521 4.00169613,2.72344868 4.00169613,3.53302755 L4.00169613,14.6643409 C4.00169613,15.4739197 4.71146391,16.1821032 5.52262708,16.1821032 C6.33379025,16.1821032 7.04355802,15.4739197 7.04355802,14.6643409 L7.04355802,3.53302755 C7.04197372,2.72344868 6.33220594,2.01526521 5.52262708,2.01526521 Z" id="形状"></path>
                    </g>
                </g>
            </g>
        </g>
    </g>
</svg>