<?xml version="1.0" encoding="UTF-8"?>
<svg width="14px" height="15px" viewBox="0 0 14 15" version="1.1" xmlns="http://www.w3.org/2000/svg" xmlns:xlink="http://www.w3.org/1999/xlink">
    <!-- Generator: Sketch 60 (88103) - https://sketch.com -->
    <title>icon_导入_画板 1</title>
    <desc>Created with Sketch.</desc>
    <g id="风险排查" stroke="none" stroke-width="1" fill="none" fill-rule="evenodd">
        <g id="任务管理" transform="translate(-1053.000000, -118.000000)" fill="#3F92FE" fill-rule="nonzero">
            <g id="编组-3" transform="translate(434.000000, 98.000000)">
                <g id="btn" transform="translate(532.000000, 12.000000)">
                    <g id="分组-2" transform="translate(74.000000, 0.000000)">
                        <g id="icon_导入_画板-1" transform="translate(20.000000, 15.001953) scale(1, -1) translate(-20.000000, -15.001953) translate(13.000000, 8.001953)">
                            <path d="M12.1428571,7.85909598 C12.3701856,7.85909598 12.5882032,7.94940184 12.7489487,8.11014731 C12.9096941,8.27089278 13,8.48891042 13,8.71623884 L13,8.71623884 L13,12.1448103 C13,12.6181972 12.6162441,13.0019531 12.1428571,13.0019531 L12.1428571,13.0019531 L1.85714286,13.0019531 C1.38375593,13.0019531 1,12.6181972 1,12.1448103 L1,12.1448103 L1,8.71623884 C1,8.24285191 1.38375593,7.85909598 1.85714286,7.85909598 C2.33052978,7.85909598 2.71428571,8.24285191 2.71428571,8.71623884 L2.71428571,8.71623884 L2.71428571,11.2876674 L11.2857143,11.2876674 L11.2857143,8.71623884 C11.2857143,8.24285191 11.6694702,7.85909598 12.1428571,7.85909598 Z M7.03,1.85909601 C7.15873756,1.85909601 7.28036428,1.91813744 7.36,2.01928838 L9.88857143,5.15643124 C9.98853972,5.28262144 10.0093565,5.45419122 9.94246628,5.6006266 C9.87557605,5.74706198 9.73226329,5.843659 9.57142857,5.85071695 L7.85714286,5.85071695 L7.85714286,9.27928838 C7.85714284,9.7526753 7.47338692,10.1364312 7,10.1364312 C6.52661308,10.1364312 6.14285716,9.7526753 6.14285714,9.27928838 L6.14285714,5.85071695 L4.50571429,5.85071695 C4.34178904,5.84996396 4.19265344,5.75576951 4.12153935,5.60807103 C4.05042526,5.46037254 4.06979211,5.28504728 4.17142857,5.15643124 L6.7,2.01928838 C6.77963572,1.91813744 6.90126244,1.85909601 7.03,1.85909601 Z" id="合并形状" transform="translate(7.000000, 7.430525) scale(1, -1) translate(-7.000000, -7.430525) "></path>
                        </g>
                    </g>
                </g>
            </g>
        </g>
    </g>
</svg>