<svg t="1604310312835" class="icon" viewBox="0 0 1024 1024" version="1.1" xmlns="http://www.w3.org/2000/svg" p-id="8726" width="128" height="128"><path d="M512 19.2C239.872 19.2 19.2 239.872 19.2 512S239.872 1004.8 512 1004.8 1004.8 784.128 1004.8 512 784.128 19.2 512 19.2z m0 901.9904c-225.9456 0-409.1904-183.2448-409.1904-409.1904S286.0544 102.8096 512 102.8096 921.1904 286.0544 921.1904 512 737.9456 921.1904 512 921.1904z" fill="#E93B39" p-id="8727"></path><path d="M459.2128 705.6128a52.8128 52.8128 0 1 0 105.6 0 52.8128 52.8128 0 0 0-105.6 0zM485.6064 582.4h52.7872c4.864 0 8.8064-3.968 8.8064-8.8064V274.432a8.832 8.832 0 0 0-8.8064-8.8064H485.632a8.832 8.832 0 0 0-8.8064 8.8064v299.1872c0 4.864 3.968 8.8064 8.8064 8.8064z" fill="#E93B39" p-id="8728"></path></svg>