<?xml version="1.0" encoding="UTF-8"?>
<svg width="110px" height="83px" viewBox="0 0 110 83" version="1.1" xmlns="http://www.w3.org/2000/svg" xmlns:xlink="http://www.w3.org/1999/xlink">
    <!-- Generator: Sketch 60 (88103) - https://sketch.com -->
    <title>已失效</title>
    <desc>Created with Sketch.</desc>
    <defs>
        <polygon id="path-1" points="0 0.0630136407 107.847368 0.0630136407 107.847368 80.8338248 0 80.8338248"></polygon>
    </defs>
    <g id="风险排查" stroke="none" stroke-width="1" fill="none" fill-rule="evenodd" opacity="0.699999988">
        <g id="查看弹窗" transform="translate(-920.000000, -330.000000)">
            <g id="win-copy-3" transform="translate(359.000000, 163.000000)">
                <g id="窗体">
                    <g id="已核验" transform="translate(549.000000, 146.000000)">
                        <g id="已失效" transform="translate(67.314354, 62.685446) rotate(-30.000000) translate(-67.314354, -62.685446) translate(13.314354, 21.685446)">
                            <g id="分组" transform="translate(-0.000000, 0.068236)">
                                <mask id="mask-2" fill="white">
                                    <use xlink:href="#path-1"></use>
                                </mask>
                                <g id="Clip-4"></g>
                                <path d="M69.342733,70.9135986 L71.0906565,72.1308301 L71.4696783,69.9791544 L73.2605198,68.6459212 L71.3328934,67.7222372 L70.6905707,65.6748844 L69.1210336,67.2598048 L66.9412965,67.3336837 L67.8997121,69.2439077 L67.1941971,71.3333834 L69.342733,70.9135986 Z M53.9236965,78.7131442 C36.1560154,78.7131442 21.2214527,66.6826828 16.8403878,50.3584493 L14.4809478,49.7285753 C18.6834946,67.5538772 34.7448538,80.833851 53.9236965,80.833851 C65.5510674,80.833851 76.0303144,75.9521966 83.423674,68.1312616 L81.0647606,67.5017814 C74.1237521,74.4300012 64.5189276,78.7131442 53.9236965,78.7131442 L53.9236965,78.7131442 Z M26.9615455,60.4677951 L28.6992002,61.8642782 L29.1100814,59.7646983 L30.9213288,58.6306628 L28.9944923,57.5077812 L28.372707,55.4082013 L26.7717055,56.8146574 L24.581568,56.6571889 L25.5185245,58.6517898 L24.7816767,60.657151 L26.9615455,60.4677951 Z M53.9129012,73.8317522 L55.208342,75.5217828 L56.2300814,73.5794089 L58.3364892,72.8553163 L56.7778791,71.3857417 L56.7881478,69.2439077 L54.8082562,70.2728331 L52.7017167,69.6745841 L53.0386103,71.7845306 L51.7329008,73.5585444 L53.9129012,73.8317522 Z M40.8322406,67.2806693 L39.136714,65.9061007 L38.6101121,67.9739244 L36.7139501,69.0867017 L38.6101121,70.199479 L39.136714,72.2671715 L40.8322406,70.8926028 L43.0542375,71.0601756 L42.201669,69.0969372 L43.0542375,67.1342237 L40.8322406,67.2806693 Z M63.7079606,62.8720765 C60.7061979,64.1735536 57.3990061,64.887542 53.9236965,64.887542 C45.8457544,64.887542 38.673436,60.9926901 34.2074565,54.977525 L31.0797043,54.1374306 C35.7451342,61.8642782 44.2339575,67.0182219 53.9236965,67.0182219 C58.6101905,67.0182219 63.0025773,65.8112259 66.8254441,63.7014106 L63.7079606,62.8720765 Z M53.9236965,2.1835893 C71.6915094,2.1835893 86.6362092,14.2141819 91.0070053,30.5489133 L93.3659187,31.1789185 C89.1638985,13.3427251 73.1025393,0.0630136407 53.9236965,0.0630136407 C42.2963257,0.0630136407 31.8168154,4.9444056 24.4231925,12.765603 L26.7826325,13.3956082 C33.7231144,6.46686345 43.3283338,2.1835893 53.9236965,2.1835893 L53.9236965,2.1835893 Z M105.362043,42.085711 L99.2958515,64.6669549 C98.8427105,66.3677458 97.0841233,67.3756753 95.3778014,66.9241344 L4.73881188,42.7158474 C3.03248994,42.2648314 2.02141421,40.5110261 2.47455518,38.8108913 L8.54074625,16.2296474 C8.99375557,14.5288565 10.7527377,13.5211894 12.458928,13.9727302 L103.108055,38.1808861 C104.814245,38.6325582 105.825321,40.3855762 105.362043,42.085711 L105.362043,42.085711 Z M104.68786,36.4068723 L11.9955183,11.6419341 C9.72046625,11.0335809 7.38261693,12.3770495 6.77175868,14.644727 L0.146974602,39.2937946 C-0.46388365,41.560816 0.884480621,43.8917433 3.15900606,44.5007527 L95.8517431,69.2546681 C98.1264002,69.8638087 100.464645,68.5198151 101.075634,66.2520064 L107.700287,41.6138304 C108.311277,39.3357862 106.963044,37.0051214 104.68786,36.4068723 L104.68786,36.4068723 Z M80.6749435,20.3448239 L78.8318367,19.0643426 L78.5685358,21.1951538 L76.8310127,22.4551641 L78.8421055,23.4418354 L79.6114709,25.4994237 L81.1172892,23.9769659 L83.3392861,23.9877262 L82.2547494,22.0666106 L82.8549439,20.0090224 L80.6749435,20.3448239 Z M56.8200072,6.99175842 L55.5137711,5.2909675 L54.4924266,7.2332101 L52.3650864,7.96766938 L53.9340969,9.43776896 L53.9236965,11.5897071 L55.9143835,10.560913 L58.03106,11.159162 L57.6942981,9.04921546 L59.010803,7.2752017 L56.8200072,6.99175842 Z M40.3265711,9.98379095 L38.5678523,8.76577218 L38.1888305,10.9284707 L36.3878519,12.2719393 L38.3360158,13.1956232 L38.9787334,15.2429761 L40.5689397,13.6580557 L42.7698725,13.5841767 L41.8118519,11.6736903 L42.5276356,9.5844771 L40.3265711,9.98379095 Z M70.0271839,14.6237312 L71.7437746,16.0093227 L72.2703765,13.941499 L74.1872076,12.8285904 L72.2703765,11.7158131 L71.7437746,9.6474645 L70.0271839,11.0335809 L67.7834647,10.865352 L68.6366915,12.8388259 L67.7834647,14.8122997 L70.0271839,14.6237312 Z M53.9236965,16.0093227 C62.0016387,16.0093227 69.1742204,19.9039121 73.6394099,25.908973 L76.7675571,26.7485425 C72.1017323,19.0325865 63.612909,13.8783804 53.9236965,13.8783804 C49.236676,13.8783804 44.8449474,15.0855076 41.021949,17.1954541 L44.1394325,18.0247882 C47.1410635,16.7233111 50.4478604,16.0093227 53.9236965,16.0093227 L53.9236965,16.0093227 Z" id="Fill-3" fill="#F85B47" mask="url(#mask-2)"></path>
                                <text id="未通知处置人员" fill="#F85B47" mask="url(#mask-2)" transform="translate(53.467463, 40.770482) rotate(15.000000) translate(-53.467463, -40.770482) " font-family="PingFangSC-Semibold, PingFang SC" font-size="14" font-weight="500">
                                    <tspan x="4.46746344" y="45.770482">未通知处置人员</tspan>
                                </text>
                            </g>
                        </g>
                    </g>
                </g>
            </g>
        </g>
    </g>
</svg>