<?xml version="1.0" encoding="UTF-8"?>
<svg width="49px" height="48px" viewBox="0 0 49 48" version="1.1" xmlns="http://www.w3.org/2000/svg" xmlns:xlink="http://www.w3.org/1999/xlink">
    <title>弹框1</title>
    <defs>
        <linearGradient x1="50%" y1="1.26931681%" x2="50%" y2="100%" id="linearGradient-1">
            <stop stop-color="#FFA901" offset="0%"></stop>
            <stop stop-color="#FFD074" offset="100%"></stop>
        </linearGradient>
        <linearGradient x1="50%" y1="100%" x2="50%" y2="0%" id="linearGradient-2">
            <stop stop-color="#FCFDFF" offset="0%"></stop>
            <stop stop-color="#D7DEEA" offset="100%"></stop>
        </linearGradient>
        <linearGradient x1="50%" y1="100%" x2="50%" y2="0%" id="linearGradient-3">
            <stop stop-color="#FCFDFF" offset="0%"></stop>
            <stop stop-color="#FFCE6E" offset="100%"></stop>
        </linearGradient>
    </defs>
    <g id="通用图标" stroke="none" stroke-width="1" fill="none" fill-rule="evenodd">
        <g transform="translate(-579.000000, -993.000000)" id="编组-7">
            <g transform="translate(66.000000, 596.000000)">
                <g id="弹框4" transform="translate(460.000000, 333.000000)">
                    <g id="Group-3" transform="translate(53.000000, 64.000000)">
                        <circle id="Oval-9" fill="url(#linearGradient-1)" cx="20" cy="27" r="19"></circle>
                        <circle id="Oval-3" fill="url(#linearGradient-2)" cx="45.5" cy="15.5" r="2.5"></circle>
                        <circle id="Oval-3-Copy-3" fill="url(#linearGradient-3)" cx="36.5" cy="3.5" r="1.5"></circle>
                        <path d="M20.5,35 C21.3284271,35 22,35.6715729 22,36.5 C22,37.3284271 21.3284271,38 20.5,38 C19.6715729,38 19,37.3284271 19,36.5 C19,35.6715729 19.6715729,35 20.5,35 Z M20.5,15 C21.3284271,15 22,15.6715729 22,16.5 L22,31.5 C22,32.3284271 21.3284271,33 20.5,33 C19.6715729,33 19,32.3284271 19,31.5 L19,16.5 C19,15.6715729 19.6715729,15 20.5,15 Z" id="Combined-Shape" fill="#FFFFFF"></path>
                    </g>
                </g>
            </g>
        </g>
    </g>
</svg>