<?xml version="1.0" encoding="UTF-8"?>
<svg width="24px" height="25px" viewBox="0 0 24 25" version="1.1" xmlns="http://www.w3.org/2000/svg" xmlns:xlink="http://www.w3.org/1999/xlink">
    <!-- Generator: Sketch 60 (88103) - https://sketch.com -->
    <title>编组 11</title>
    <desc>Created with Sketch.</desc>
    <g id="通讯调度" stroke="none" stroke-width="1" fill="none" fill-rule="evenodd">
        <g id="传真记录-发送" transform="translate(-1109.000000, -725.000000)" fill="#9FC8FE" fill-rule="nonzero">
            <g id="表格" transform="translate(170.000000, 146.000000)">
                <g id="编组-11" transform="translate(892.000000, 579.500000)">
                    <path d="M58.9754464,17.0780351 C59.125,17.2275878 59.3236607,17.3034802 59.5223214,17.3034802 C59.7209821,17.3034802 59.9174107,17.2275878 60.0691964,17.0780351 L63.5491071,13.5981438 C63.8504464,13.2968062 63.8504464,12.8079697 63.5491071,12.5066321 C63.4040179,12.3615436 63.2098214,12.2811869 63.0044643,12.2811869 C62.7991071,12.2811869 62.6049107,12.3615436 62.4598214,12.5066321 L60.296875,14.6695664 L60.296875,1.77231711 C60.296875,1.34598021 59.9508929,1 59.5245536,1 C59.0982143,1 58.7522321,1.34598021 58.7522321,1.77231711 L58.7522321,14.6695664 L56.5892857,12.5066321 C56.2879464,12.2052945 55.7991071,12.2052945 55.5,12.5066321 C55.1986607,12.8079697 55.1986607,13.2968062 55.4977679,13.5981438 L58.9754464,17.0780351 Z M68.7276786,13.8659995 C68.3013393,13.8659995 67.9553571,14.2119797 67.9553571,14.6383166 L67.9553571,18.9998993 C67.9553571,19.25213 67.75,19.4597182 67.4955357,19.4597182 L51.5022321,19.4597182 C51.25,19.4597182 51.0424107,19.2543622 51.0424107,18.9998993 L51.0424107,14.6360844 C51.0424107,14.2097475 50.6964286,13.8637673 50.2700893,13.8637673 C49.84375,13.8637673 49.5,14.2119797 49.5,14.6360844 L49.5,19.611503 C49.5,20.3771238 50.1227679,20.997656 50.8861607,20.997656 L68.1138393,20.997656 C68.8794643,20.997656 69.5,20.3748916 69.5,19.611503 L69.5,14.6360844 C69.5,14.2119797 69.1540179,13.8659995 68.7276786,13.8659995 Z" id="Shape"></path>
                </g>
            </g>
        </g>
    </g>
</svg>