<?xml version="1.0" encoding="UTF-8"?>
<svg width="50px" height="51px" viewBox="0 0 50 51" version="1.1" xmlns="http://www.w3.org/2000/svg" xmlns:xlink="http://www.w3.org/1999/xlink">
    <!-- Generator: Sketch 58 (84663) - https://sketch.com -->
    <title>编组</title>
    <desc>Created with Sketch.</desc>
    <g id="页面-1" stroke="none" stroke-width="1" fill="none" fill-rule="evenodd">
        <g id="信息处置" transform="translate(-1076.000000, -619.000000)" fill="#DBE1E8" fill-rule="nonzero">
            <g id="编组-4备份" transform="translate(856.000000, 497.000000)">
                <g id="编组" transform="translate(220.000000, 122.000000)">
                    <path d="M10.6882067,7.85175879 L39.2686087,7.85175879 L39.2686087,10.678392 L10.6882067,10.678392 L10.6882067,7.85175879 Z M10.6882067,14.7613065 L39.2686087,14.7613065 L39.2686087,17.5879397 L10.6882067,17.5879397 L10.6882067,14.7613065 Z" id="形状"></path>
                    <path d="M44.921875,14.7613065 L44.921875,0 L5.34901068,0 L5.34901068,14.7613065 L0.00981469849,14.7613065 L0.00981469849,41.1432161 L5.34901068,41.1432161 L5.34901068,50.2512563 L44.921875,50.2512563 L44.921875,41.1432161 L49.9470006,41.1432161 L49.9470006,14.7613065 L44.921875,14.7613065 Z M40.8389604,46.4824121 L9.1178549,46.4824121 L9.1178549,41.4572864 L40.8389604,41.4572864 L40.8389604,46.4824121 Z M40.8389604,21.9849246 L9.1178549,21.9849246 L9.1178549,3.76884422 L40.8389604,3.76884422 L40.8389604,21.9849246 Z" id="形状"></path>
                </g>
            </g>
        </g>
    </g>
</svg>