<?xml version="1.0" encoding="UTF-8"?>
<svg width="76px" height="76px" viewBox="0 0 76 76" version="1.1" xmlns="http://www.w3.org/2000/svg" xmlns:xlink="http://www.w3.org/1999/xlink">
    <title>Slice</title>
    <defs>
        <filter id="filter-1">
            <feColorMatrix in="SourceGraphic" type="matrix" values="0 0 0 0 1.000000 0 0 0 0 1.000000 0 0 0 0 1.000000 0 0 0 1.000000 0"></feColorMatrix>
        </filter>
    </defs>
    <g id="Page-1" stroke="none" stroke-width="1" fill="none" fill-rule="evenodd">
        <g filter="url(#filter-1)" id="转换">
            <g>
                <path d="M3.10396676,48.0701357 C4.80901582,48.0651611 6.18862143,46.6830075 6.18861431,44.9797392 L6.18861431,23.1597628 C6.18861431,19.3816825 9.33584891,16.6396716 13.6632965,16.6396717 L66.4599452,16.6396717 L61.2205148,21.846813 C60.6373436,22.4223685 60.3091255,23.207205 60.3091255,24.0261311 C60.3091255,24.8450572 60.6373436,25.6298937 61.2205148,26.2054493 C62.440753,27.3713952 64.3634882,27.3713952 65.5837264,26.2054493 L74.2743856,17.5864246 C75.3566283,16.5176331 75.9656732,15.0606288 75.9656732,13.5403954 C75.9656732,12.0201621 75.3566283,10.5631578 74.2743856,9.49436626 L65.5658444,0.893204856 C64.9824286,0.31812631 64.1949164,-0.00297018343 63.3752976,2.07083316e-05 C62.1283454,0.00687986672 61.0081631,0.763021465 60.5366285,1.91619031 C60.0650939,3.06935916 60.3349659,4.39270722 61.2205148,5.26970446 L66.4599452,10.4768457 L13.7080015,10.4768457 C10.2323313,10.4170755 6.85378682,11.6235672 4.20371064,13.8708658 C1.51025393,16.2040794 -0.0253683653,19.598489 0.00109198254,23.1597628 L0.00109198254,44.9797392 C-0.000961500313,45.8016321 0.325428687,46.5904234 0.90804612,47.1707526 C1.49066355,47.7510818 2.28122153,48.0748519 3.10396676,48.0701357 Z M72.9511165,27.9292542 C72.1306458,27.9292542 71.3437794,28.2548431 70.763619,28.8343952 C70.1834586,29.4139472 69.8575279,30.1999884 69.8575279,31.0195988 L69.8575279,51.097907 C69.8575279,55.4922698 66.361594,59.3596664 62.3828458,59.3596664 L9.48784601,59.3596664 L14.7272764,54.152525 C15.611714,53.276678 15.8821706,51.9554686 15.412917,50.8030967 C14.9436635,49.6507248 13.8267621,48.8932726 12.5814346,48.8828623 C11.7569968,48.8683669 10.9624303,49.1910227 10.3819468,49.7760254 L1.6912876,58.3950501 C0.609044866,59.4638416 0,60.9208459 0,62.4410793 C0,63.9613127 0.609044866,65.418317 1.6912876,66.4871085 L10.3819468,75.1061331 C11.1645538,75.8815375 12.3018201,76.1809627 13.3653484,75.8916181 C14.4288767,75.6022735 15.2570919,74.7681174 15.5380132,73.7033683 C15.8189345,72.6386193 15.5098834,71.505038 14.7272764,70.7296336 L9.48784601,65.5224923 L62.3828458,65.5224923 C66.1351725,65.4826622 69.6901978,63.8370976 72.1464259,61.0030866 C74.5968143,58.2810711 75.9672485,54.7585238 76,51.097907 L76,31.0195988 C76,29.3301377 74.6421745,27.9536684 72.9511165,27.9292542 L72.9511165,27.9292542 Z" id="Shape" fill="#4D4D4D" fill-rule="nonzero"></path>
            </g>
        </g>
        <text id="经纬" fill-rule="nonzero" font-family="PingFangSC-Regular, PingFang SC" font-size="21" font-weight="normal" fill="#FFFFFF">
            <tspan x="17" y="46">经纬</tspan>
        </text>
    </g>
</svg>