<?xml version="1.0" encoding="UTF-8"?>
<svg width="16px" height="14px" viewBox="0 0 16 14" version="1.1" xmlns="http://www.w3.org/2000/svg" xmlns:xlink="http://www.w3.org/1999/xlink">
    <title>摄像机</title>
    <defs>
        <filter id="filter-1">
            <feColorMatrix in="SourceGraphic" type="matrix" values="0 0 0 0 0.600000 0 0 0 0 0.600000 0 0 0 0 0.600000 0 0 0 1.000000 0"></feColorMatrix>
        </filter>
    </defs>
    <g id="事件信息、组织动态、辅助工具" stroke="none" stroke-width="1" fill="none" fill-rule="evenodd">
        <g id="选择坐席" transform="translate(-249.000000, -340.000000)">
            <g id="win-copy-4" transform="translate(209.000000, 189.000000)">
                <g id="摄像机" transform="translate(20.000000, 50.000000)" filter="url(#filter-1)">
                    <g transform="translate(20.000000, 101.000000)">
                        <path d="M3.36,9.644 L1.68,9.644 L1.68,7.544 L0,7.234 L0,14 L1.68,13.456 L1.68,11.122 L4.4,11.122 L5.84,9.178 L3.92,8.166 L3.36,9.644 Z M12.08,10.032 L16,7.62 L3.84,0 L2.4,0 L0.48,2.878 L0.48,3.89 L11.2,10.112 L12.08,10.032 Z M10.64,10.576 L1.44,4.822 L0.48,5.834 L11.2,12.056 L12.16,12.056 L12.64,11.588 L13.12,10.188 L11.68,11.2 C11.038,10.732 10.64,10.576 10.64,10.576 L10.64,10.576 Z" id="形状" fill="#9FC8FE" fill-rule="nonzero"></path>
                    </g>
                </g>
            </g>
        </g>
    </g>
</svg>