<?xml version="1.0" encoding="UTF-8"?>
<svg width="14px" height="15px" viewBox="0 0 14 15" version="1.1" xmlns="http://www.w3.org/2000/svg" xmlns:xlink="http://www.w3.org/1999/xlink">
    <title>删除icon</title>
    <g id="事件信息、组织动态、辅助工具" stroke="none" stroke-width="1" fill="none" fill-rule="evenodd">
        <g id="坐席超管" transform="translate(-1243.000000, -210.000000)">
            <g id="穿梭组" transform="translate(190.000000, 157.000000)">
                <g id="1" transform="translate(0.000000, 52.000000)">
                    <g id="删除icon" transform="translate(1053.000000, 1.000000)">
                        <path d="M13.5098399,1.99241908 L10.5055369,1.99241908 L10.5055369,1.06364519 C10.5046645,0.355468934 10.1609686,0 9.33817128,0 L4.73872016,0 C3.91067312,0 3.49885468,0.355468934 3.49885468,1.06364519 L3.49885468,1.99241908 L0.491481104,1.99241908 C0.214587882,1.99241908 0,2.25152845 0,2.4878406 C0,2.7248996 0.215460232,3 0.491481104,3 L13.5089675,3 C13.7849884,3 14,2.8307014 14,2.4878406 C14,2.25926673 13.8366133,2.09412623 13.5098399,1.99241908 Z M11.5011714,4 L2.50056851,4 C2.3675503,4 2.24066183,4.05258709 2.14614889,4.15039644 C2.05339397,4.24912435 2,4.37921423 2,4.52037595 L2,12.4358149 C2,13.3086522 2.67385,14.0181678 3.50083429,14.0181678 L10.5017924,14.0181678 C11.3287767,14.0181678 12,13.3086522 12,12.4358149 L12,4.52867572 C12.0008687,4.23711756 11.7777093,4.00091855 11.5011714,4 L11.5011714,4 Z" id="Combined-Shape" fill="#9FC8FE" fill-rule="nonzero"></path>
                        <path d="M9.00067886,11.5402681 C9.00067886,11.7955869 8.77616458,12 8.50077599,12 C8.22364117,12 8,11.7955869 8,11.5402681 L8,6.46055067 C8,6.20523182 8.22364117,6 8.50077599,6 C8.77703769,6 9.00066327,6.2060362 9.00066327,6.46055067 L9.00066327,11.5402681 L9.00067886,11.5402681 Z" id="Path" fill="#FFFFFF"></path>
                        <path d="M6.00067886,11.5402681 C6.00067886,11.7955869 5.77616458,12 5.50077599,12 C5.22364117,12 5,11.7955869 5,11.5402681 L5,6.46055067 C5,6.20523182 5.22364117,6 5.50077599,6 C5.77703769,6 6.00066327,6.2060362 6.00066327,6.46055067 L6.00066327,11.5402681 L6.00067886,11.5402681 Z" id="Path-Copy" fill="#FFFFFF"></path>
                    </g>
                </g>
            </g>
        </g>
    </g>
</svg>