<?xml version="1.0" encoding="UTF-8"?>
<svg width="15px" height="14px" viewBox="0 0 15 14" version="1.1" xmlns="http://www.w3.org/2000/svg" xmlns:xlink="http://www.w3.org/1999/xlink">
    <title>拨号</title>
    <defs>
        <filter id="filter-1">
            <feColorMatrix in="SourceGraphic" type="matrix" values="0 0 0 0 0.600000 0 0 0 0 0.600000 0 0 0 0 0.600000 0 0 0 1.000000 0"></feColorMatrix>
        </filter>
    </defs>
    <g id="事件信息、组织动态、辅助工具" stroke="none" stroke-width="1" fill="none" fill-rule="evenodd">
        <g id="选择坐席" transform="translate(-250.000000, -285.000000)">
            <g id="win-copy-4" transform="translate(209.000000, 189.000000)">
                <g id="拨号" transform="translate(20.000000, 50.000000)" filter="url(#filter-1)">
                    <g transform="translate(21.000000, 46.000000)">
                        <path d="M2.89180696,1 C4.46902357,1 5.74859708,2.2377592 5.74859708,3.76343502 L5.74859708,3.76343502 L5.74859708,3.78883943 C5.74859708,5.08164152 4.83670034,6.16697427 3.6023569,6.47888394 C4.18013468,8.3080013 5.55892256,9.7927478 7.33602694,10.5605255 C7.64826038,9.3509934 8.77901235,8.45337097 10.1257015,8.45337097 C11.7131313,8.45337097 13,9.698187 13,11.2337423 C13,11.4962545 12.9620651,11.7488872 12.8920314,11.9888177 C12.8789001,12.0410379 12.8584736,12.0904353 12.832211,12.1355987 C12.4849607,13.108023 11.5934905,13.8348713 10.5079686,13.9731842 C10.4627385,13.9872978 10.4131313,13.9957659 10.3635241,13.9971773 C10.3226712,13.9971773 10.2803591,14 10.2380471,14 C4.58428732,14 0,9.5810444 0,4.11203995 C0,4.04429486 0.00145903,3.97654978 0.00291807,3.90880469 C0.00145903,3.86928672 0,3.82976875 0,3.79025079 C0,2.63293888 0.73097643,1.64216697 1.7698092,1.22158289 C2.11414141,1.07903594 2.49349046,1 2.89180696,1 Z" fill="#9FC8FE" fill-rule="nonzero"></path>
                        <g id="编组-2" transform="translate(8.000000, 0.000000)" fill="#0091FF" fill-rule="nonzero">
                            <path d="M0.395663137,2.53895853 L0.46789917,2.54425203 C1.40593293,2.70381107 2.26111204,3.14703062 2.93874525,3.82367914 C3.61637846,4.50032765 4.06024301,5.35426399 4.22003427,6.29093461 C4.2555434,6.50958964 4.11054766,6.71642541 3.89157444,6.75188298 C3.86790168,6.75483775 3.84718798,6.75779253 3.82351523,6.75779253 C3.63117389,6.75779253 3.46250539,6.6218719 3.42995531,6.42685532 C3.29679595,5.65269849 2.93282706,4.94945679 2.37059857,4.38804536 C1.80837016,3.82663393 1.10410506,3.4602391 0.328821615,3.33022803 C0.10984847,3.29477047 -0.0321882184,3.08497988 0.00628004826,2.8692797 C0.0447483149,2.65357952 0.248926026,2.50879447 0.46789917,2.54425203 L0.395663137,2.53895853 Z" id="形状结合-path"></path>
                            <path d="M0.506030582,-8.70414851e-14 L0.577385782,0.00608141168 C2.1220344,0.269058345 3.52760555,0.995938399 4.64614418,2.11285167 C5.76468289,3.22976494 6.49262075,4.63329351 6.75598043,6.17569758 C6.79444869,6.39139775 6.64649381,6.59823352 6.43047973,6.63073631 C6.40680697,6.63369109 6.38609327,6.63664587 6.36242051,6.63664587 C6.17007918,6.63664587 6.00141068,6.50072523 5.9688606,6.30570858 C5.73509195,4.92877319 5.08409055,3.67298449 4.08391577,2.6742631 C3.08374099,1.67849651 1.82612473,1.02548637 0.447185548,0.792057411 C0.228212326,0.753645051 0.0832165816,0.549764054 0.118725715,0.331109075 C0.157193982,0.115408897 0.361371693,-0.0323309561 0.577385782,0.00608141168 L0.506030582,-8.70414851e-14 Z" id="形状结合-path"></path>
                        </g>
                    </g>
                </g>
            </g>
        </g>
    </g>
</svg>