<?xml version="1.0" encoding="UTF-8"?>
<svg width="20px" height="20px" viewBox="0 0 20 20" version="1.1" xmlns="http://www.w3.org/2000/svg" xmlns:xlink="http://www.w3.org/1999/xlink">
    <title>坐席平台</title>
    <defs>
        <filter id="filter-1">
            <feColorMatrix in="SourceGraphic" type="matrix" values="0 0 0 0 1.000000 0 0 0 0 1.000000 0 0 0 0 1.000000 0 0 0 1.000000 0"></feColorMatrix>
        </filter>
    </defs>
    <g id="事件信息、组织动态、辅助工具" stroke="none" stroke-width="1" fill="none" fill-rule="evenodd">
        <g id="编组" transform="translate(-1189.000000, -16.000000)" filter="url(#filter-1)">
            <g transform="translate(1189.000000, 16.000000)">
                <path d="M9.73093952,15.1281633 C10.6977993,15.1235717 11.5526817,14.4993483 11.8514497,13.5797959 C11.8710423,13.5179742 11.8411672,13.4512866 11.7819921,13.4247517 C11.722817,13.3982169 11.65315,13.4202686 11.6200212,13.4760204 C11.617266,13.4815306 11.2765518,14.0334694 9.95042931,14.212551 C9.7511436,14.240102 9.55828646,14.2538776 9.37553136,14.2538776 C8.4461436,14.2538776 8.03195993,13.9021429 8.02828646,13.8984694 C7.98107446,13.8565287 7.91018919,13.8557454 7.86206197,13.8966327 C7.81329558,13.9373584 7.80158894,14.0075983 7.83451095,14.0619388 C8.24051644,14.7205719 8.95723631,15.1235316 9.73093952,15.1281633 L9.73093952,15.1281633 Z M16.8629803,6.88673469 C16.8510416,6.88673469 16.8409395,6.8894898 16.8299191,6.8894898 C16.052062,3.51632653 13.0829803,1 9.52247013,1 C5.86369462,1 2.82573544,3.655 2.15257217,7.1677551 C1.48248487,7.2924418 0.997394164,7.87841592 1.00001053,8.56 L1.00001053,11.3518367 C1.00001053,12.1352041 1.62542931,12.7697959 2.39869462,12.7697959 C2.83491911,12.7697959 3.21971503,12.5631633 3.47502115,12.2463265 C4.09335407,13.8831532 5.34452905,15.2021829 6.94644972,15.9060204 C6.9665634,15.8660202 6.99022995,15.8279078 7.01716401,15.7921429 C7.04195993,15.76 7.07042931,15.7333673 7.09430687,15.7333673 C7.11910278,15.7333673 7.14206197,15.742551 7.16226605,15.7563265 C6.79308238,15.4808163 5.46053136,14.0665306 5.17216401,12.0920408 C5.04542931,11.2223469 5.6956334,10.3691837 6.45144972,10.2277551 C7.66553136,10.0009184 8.87318442,9.74285714 10.0881844,9.52061224 C10.859613,9.37918367 11.3867558,8.95489796 11.7091028,8.2477551 C11.7853273,8.08244898 11.8936946,7.74908163 11.9442048,7.26693878 C11.9558202,7.19456678 12.0178505,7.14106566 12.0911436,7.14020408 C12.1407354,7.14020408 12.1829803,7.16591837 12.2114497,7.20265306 L12.2454293,7.18244898 C12.7238987,7.87857143 13.6734905,9.42142857 13.8094089,11.0469388 C13.9655314,12.9066327 13.8782865,14.1794898 12.4594089,15.4826531 C12.4358557,15.5048005 12.4225523,15.5357309 12.4226742,15.5680612 C12.4217558,15.607551 12.4428783,15.6415306 12.4741028,15.6626531 L12.5090007,15.6791837 C12.5181844,15.6810204 12.5273681,15.6837755 12.5365518,15.6837755 C12.5466538,15.6837755 12.5549191,15.6810204 12.5641028,15.6791837 L12.6228783,15.6452041 C14.0739065,14.8419863 15.163268,13.5147788 15.6681844,11.935 C15.8748171,12.2426531 16.197164,12.4630612 16.5718579,12.5411224 C15.9712456,15.2806122 13.5329803,16.9952041 10.5124701,17.2560204 C10.3221113,16.7889337 9.86705714,16.4843527 9.36267421,16.4864286 C8.67940891,16.4864286 8.1256334,17.0282653 8.1256334,17.6977551 C8.1256334,18.3663265 8.67940891,18.9081633 9.36267421,18.9081633 C9.91369462,18.9081633 10.3756334,18.5536735 10.5354293,18.0660204 C14.0316538,17.7813265 16.8345109,15.697551 17.4195109,12.4603061 C17.9365518,12.2444898 18.2993069,11.7357143 18.2993069,11.142449 L18.2993069,8.31755102 C18.2993069,7.5277551 17.6564497,6.88673469 16.8629803,6.88673469 Z M15.5735926,7.69857143 C14.6616538,5.22265306 12.2986946,3.45387755 9.51879666,3.45387755 C6.75083748,3.45387755 4.39706197,5.20795918 3.47593952,7.66734694 C3.43002115,7.6122449 3.37675584,7.56357143 3.32440891,7.51489796 C3.84512319,4.51642857 6.41930687,2.23704082 9.52247013,2.23704082 C12.6109395,2.23704082 15.1759395,4.49438776 15.7141028,7.47173469 C15.6601764,7.54271852 15.6131276,7.61867315 15.5735926,7.69857143 L15.5735926,7.69857143 Z" id="形状" fill="#4786C3" fill-rule="nonzero"></path>
            </g>
        </g>
    </g>
</svg>