<?xml version="1.0" encoding="UTF-8"?>
<svg width="420px" height="104px" viewBox="0 0 420 104" version="1.1" xmlns="http://www.w3.org/2000/svg" xmlns:xlink="http://www.w3.org/1999/xlink">
    <title>1</title>
    <defs>
        <linearGradient x1="100%" y1="1.95897702%" x2="41.3856487%" y2="90.335052%" id="linearGradient-1">
            <stop stop-color="#000000" stop-opacity="0.1" offset="0%"></stop>
            <stop stop-color="#000000" stop-opacity="0" offset="100%"></stop>
        </linearGradient>
    </defs>
    <g id="事件信息、组织动态、辅助工具" stroke="none" stroke-width="1" fill="none" fill-rule="evenodd">
        <g id="选择坐席" transform="translate(-257.000000, -265.000000)" fill="url(#linearGradient-1)" fill-rule="nonzero">
            <g id="win-copy-4" transform="translate(237.000000, 184.000000)">
                <g id="1" transform="translate(20.000000, 50.000000)">
                    <g id="编组-5" transform="translate(0.000000, 31.000000)">
                        <path d="M338.218634,71.6498773 C336.606263,71.66028 335.306625,72.9739594 335.313521,74.5863491 C335.320473,76.1987388 336.631345,77.5012081 338.243746,77.4977698 C339.856147,77.4943178 341.161475,76.1862586 341.161475,74.573854 C341.151104,72.9559396 339.836582,71.6498773 338.218634,71.6498773 L338.218634,71.6498773 Z M391.510466,99.7011885 C389.898095,99.7115911 388.598457,101.025271 388.605353,102.63766 C388.612305,104.25005 389.923177,105.552519 391.535578,105.549081 C393.147979,105.545629 394.453307,104.23757 394.453307,102.625165 C394.442935,101.007251 393.128414,99.7011885 391.510466,99.7011885 Z M380.644592,94.4191662 C380.374422,94.4191662 380.115318,94.5264906 379.924279,94.7175294 C379.73324,94.9085681 379.625916,95.1676723 379.625916,95.4378419 L379.625916,108.26561 C379.625916,108.828209 380.081992,109.284286 380.644592,109.284286 C381.207191,109.284286 381.663267,108.828209 381.663267,108.26561 L381.663267,95.4378419 C381.663314,95.1643719 381.553404,94.9023673 381.358266,94.7107769 C381.163127,94.5191865 380.89915,94.4141019 380.625727,94.4191662 L380.644592,94.4191662 Z M326.843422,71.6498773 C325.231051,71.66028 323.931413,72.9739594 323.938309,74.5863491 C323.945261,76.1987388 325.256133,77.5012081 326.868534,77.4977698 C328.480935,77.4943178 329.786263,76.1862586 329.786263,74.573854 C329.775892,72.9559396 328.46137,71.6498773 326.843422,71.6498773 L326.843422,71.6498773 Z M315.524803,71.6498773 C313.912432,71.66028 312.612794,72.9739594 312.61969,74.5863491 C312.626642,76.1987388 313.937514,77.5012081 315.549915,77.4977698 C317.162316,77.4943178 318.467644,76.1862586 318.467644,74.573854 C318.462684,73.7900583 318.14525,73.0406256 317.585725,72.4917247 C317.0262,71.9428237 316.270821,71.6398128 315.487074,71.6498773 L315.524803,71.6498773 Z M367.741366,94.4191662 C367.178767,94.4191662 366.72269,94.8752428 366.72269,95.4378419 L366.72269,108.26561 C366.72269,108.828209 367.178767,109.284286 367.741366,109.284286 C368.303965,109.284286 368.760042,108.828209 368.760042,108.26561 L368.760042,95.4378419 C368.760231,95.1610065 368.647743,94.8960164 368.448465,94.7038551 C368.249187,94.5116937 367.980283,94.408913 367.703637,94.4191662 L367.741366,94.4191662 Z M338.256363,99.7011885 C336.643992,99.7115911 335.344354,101.02527 335.35125,102.63766 C335.358202,104.25005 336.669074,105.552519 338.281475,105.549081 C339.893876,105.545629 341.199204,104.23757 341.199204,102.625165 C341.194244,101.841369 340.87681,101.091937 340.317285,100.543036 C339.75776,99.9941348 339.002381,99.6911239 338.218634,99.7011885 L338.256363,99.7011885 Z M326.937744,99.7011885 C325.325373,99.7115911 324.025735,101.02527 324.032631,102.63766 C324.039583,104.25005 325.350455,105.552519 326.962856,105.549081 C328.575257,105.545629 329.880585,104.23757 329.880585,102.625165 C329.875904,101.831332 329.550708,101.073061 328.978819,100.522484 C328.40693,99.9719077 327.63686,99.6757309 326.843422,99.7011885 L326.937744,99.7011885 Z M374.249572,94.4191662 C373.686973,94.4191662 373.230896,94.8752428 373.230896,95.4378419 L373.230896,108.26561 C373.230896,108.828209 373.686973,109.284286 374.249572,109.284286 C374.812171,109.284286 375.268251,108.828209 375.268251,108.26561 L375.268251,95.4378419 C375.269027,95.1540755 375.151408,94.8828448 374.94372,94.6894805 C374.736032,94.4961161 374.457102,94.3981453 374.174114,94.4191662 L374.249572,94.4191662 Z M315.562532,99.7011885 C313.950161,99.7115911 312.650522,101.025271 312.657419,102.63766 C312.66437,104.25005 313.975243,105.552519 315.587644,105.549081 C317.200045,105.545629 318.505373,104.23757 318.505373,102.625165 C318.505785,101.833056 318.18481,101.074672 317.615885,100.523526 C317.046961,99.9723799 316.278771,99.6756364 315.487074,99.7011885 L315.562532,99.7011885 Z M354.857004,66.3867195 C354.294405,66.3867195 353.838329,66.8427962 353.838329,67.4053952 L353.838329,80.1388417 C353.838329,80.7014408 354.294405,81.1575174 354.857004,81.1575174 C355.419603,81.1575174 355.87568,80.7014408 355.87568,80.1388417 L355.87568,67.3110733 C355.856576,67.0370563 355.727621,66.782367 355.518067,66.604779 C355.308513,66.427191 355.036122,66.3417564 354.762683,66.3678551 L354.857004,66.3867195 Z M354.857004,94.4380306 C354.294405,94.4380306 353.838329,94.8941072 353.838329,95.4567062 L353.838329,108.284475 C353.838329,108.847074 354.294405,109.30315 354.857004,109.30315 C355.419603,109.30315 355.87568,108.847074 355.87568,108.284475 L355.87568,95.4567062 C355.882319,95.1661087 355.764499,94.8865162 355.551881,94.6883129 C355.339263,94.4901096 355.0521,94.3921762 354.762683,94.4191662 L354.857004,94.4380306 Z M361.327482,94.4380306 C361.057312,94.4380305 360.798208,94.545355 360.607169,94.7363937 C360.41613,94.9274325 360.308806,95.1865366 360.308806,95.4567062 L360.308806,108.284475 C360.308806,108.847074 360.764883,109.30315 361.327482,109.30315 C361.890081,109.30315 362.346157,108.847074 362.346157,108.284475 L362.346157,95.4567062 C362.352796,95.1661087 362.234976,94.8865162 362.022358,94.6883129 C361.80974,94.4901096 361.522577,94.3921762 361.23316,94.4191662 L361.327482,94.4380306 Z M374.268436,38.3542728 C373.998267,38.3542728 373.739162,38.4615972 373.548124,38.652636 C373.357085,38.8436748 373.24976,39.1027789 373.24976,39.3729485 L373.24976,52.2007169 C373.24976,52.7633159 373.705837,53.2193926 374.268436,53.2193926 C374.831035,53.2193926 375.287112,52.7633159 375.287112,52.2007169 L375.287112,39.3729485 C375.29375,39.082351 375.175931,38.8027585 374.963313,38.6045552 C374.750695,38.4063518 374.463532,38.3084184 374.174114,38.3354084 L374.268436,38.3542728 Z M361.327482,38.3542728 C361.057312,38.3542727 360.798208,38.4615972 360.607169,38.652636 C360.41613,38.8436747 360.308806,39.1027789 360.308806,39.3729485 L360.308806,52.2007169 C360.308806,52.763316 360.764883,53.2193926 361.327482,53.2193926 C361.890081,53.2193926 362.346157,52.763316 362.346157,52.2007169 L362.346157,39.3729485 C362.352796,39.082351 362.234976,38.8027585 362.022358,38.6045551 C361.80974,38.4063518 361.522577,38.3084184 361.23316,38.3354084 L361.327482,38.3542728 Z M367.797959,38.3542728 C367.527789,38.3542727 367.268685,38.4615972 367.077646,38.652636 C366.886608,38.8436747 366.779283,39.1027789 366.779283,39.3729485 L366.779283,52.2007169 C366.779283,52.7633159 367.23536,53.2193925 367.797959,53.2193925 C368.360558,53.2193925 368.816635,52.7633159 368.816635,52.2007169 L368.816635,39.3729485 C368.823273,39.082351 368.705454,38.8027585 368.492836,38.6045551 C368.280217,38.4063518 367.993055,38.3084184 367.703637,38.3354084 L367.797959,38.3542728 Z M338.312956,43.636295 C336.700585,43.6466976 335.400947,44.960377 335.407843,46.5727667 C335.414795,48.1851564 336.725667,49.4876258 338.338068,49.4841874 C339.950469,49.4807355 341.255763,48.1726763 341.255797,46.5602717 C341.26134,45.7598933 340.940632,44.9917854 340.367592,44.4329821 C339.794552,43.8741788 339.01862,43.5728934 338.218634,43.5985663 L338.312956,43.636295 Z M354.875869,38.3542728 C354.605699,38.3542728 354.346595,38.4615972 354.155556,38.652636 C353.964517,38.8436748 353.857193,39.1027789 353.857193,39.3729485 L353.857193,52.2007169 C353.857193,52.763316 354.31327,53.2193926 354.875869,53.2193926 C355.438468,53.2193926 355.894544,52.763316 355.894544,52.2007169 L355.894544,39.3729485 C355.901828,39.0787112 355.78149,38.7957048 355.564525,38.5968205 C355.34756,38.3979362 355.055177,38.3026152 354.762683,38.3354084 L354.875869,38.3542728 Z M404.998487,55.8415394 L404.998487,35.8641766 C404.998487,34.277422 404.067965,32.8381225 402.621577,32.1856254 L386.0398,16 L321.900958,16 L305.413503,32.2044897 C303.967115,32.8569869 303.037106,34.2962864 303.036593,35.8830409 L303.036593,56.4263347 C303.327111,58.4107009 305.03032,59.8809239 307.035838,59.8785135 C304.803207,59.8784893 302.990384,61.6828804 302.98,63.9154876 L302.98,83.9117147 C302.98,84.98739 303.40731,86.0190084 304.167928,86.7796257 C304.928545,87.540243 305.960163,87.9675533 307.035838,87.9675533 C304.803207,87.9675292 302.990384,89.7719202 302.98,92.0045274 L302.98,111.963026 C302.990384,114.195633 304.803207,116 307.035838,116 L400.810598,116 C403.043229,116 404.856052,114.195633 404.866437,111.963026 L404.866437,91.9479344 C404.856052,89.7153271 403.043229,87.910936 400.810598,87.9109602 C401.886273,87.9109602 402.917892,87.4836499 403.678509,86.7230326 C404.439126,85.9624153 404.866437,84.9307969 404.866437,83.8551217 L404.866437,63.9154876 C404.856052,61.6828803 403.043229,59.8784893 400.810598,59.8785135 C401.892795,59.8885809 402.934133,59.4657191 403.70293,58.7040079 C404.471727,57.9422967 404.904212,56.9049192 404.904165,55.822675 L404.998487,55.8415394 Z M401.659494,91.9667987 L401.659494,111.925297 C401.659494,112.3212 401.338552,112.642143 400.942649,112.642143 L307.073567,112.642143 C306.677664,112.642143 306.356721,112.3212 306.356721,111.925297 L306.356721,91.9479344 C306.356721,91.5520313 306.677664,91.2310885 307.073567,91.2310885 L400.848327,91.2310885 C401.24423,91.2310885 401.565173,91.5520314 401.565173,91.9479344 L401.659494,91.9667987 Z M401.659494,63.9154876 L401.659494,83.9117147 C401.659494,84.1018341 401.58397,84.2841667 401.449535,84.4186013 C401.3151,84.553036 401.132768,84.6285606 400.942649,84.6285606 L307.073567,84.6285606 C306.883448,84.6285606 306.701115,84.553036 306.566681,84.4186013 C306.432246,84.2841667 306.356721,84.1018341 306.356721,83.9117147 L306.356721,63.9154876 C306.356721,63.5195846 306.677664,63.1986418 307.073567,63.1986418 L400.848327,63.1986418 C401.24423,63.1986418 401.565173,63.5195846 401.565173,63.9154876 L401.659494,63.9154876 Z M401.659494,55.822675 C401.659494,56.218578 401.338552,56.5395208 400.942649,56.5395208 L307.073567,56.5395208 C306.677664,56.5395208 306.356721,56.218578 306.356721,55.822675 L306.356721,35.8641766 C306.356721,35.4682735 306.677664,35.1473307 307.073567,35.1473307 L400.848327,35.1473307 C401.24423,35.1473307 401.565173,35.4682735 401.565173,35.8641766 L401.659494,55.822675 Z M391.604788,43.5985663 C389.992417,43.6089689 388.692779,44.9226483 388.699675,46.535038 C388.706626,48.1474278 390.017499,49.4498971 391.6299,49.4464587 C393.242301,49.4430067 394.547629,48.1349475 394.547629,46.5225429 C394.542948,45.7287103 394.217752,44.9704389 393.645863,44.4198622 C393.073974,43.8692855 392.303904,43.5731087 391.510466,43.5985663 L391.604788,43.5985663 Z M380.738913,38.316544 C380.176314,38.316544 379.720238,38.7726207 379.720238,39.3352197 L379.720238,52.1629881 C379.720238,52.7255872 380.176314,53.1816638 380.738913,53.1816638 C381.301512,53.1816638 381.757589,52.7255872 381.757589,52.1629881 L381.757589,39.3352197 C381.754045,39.0475372 381.629016,38.7747679 381.413389,38.5842976 C381.197763,38.3938274 380.911648,38.3034194 380.625727,38.3354084 L380.738913,38.316544 Z M316.335971,43.6928881 C316.129054,43.6707356 315.920363,43.6707356 315.713446,43.6928881 C314.934696,43.6878638 314.186116,43.9937053 313.633677,44.5426028 C313.081238,45.0915003 312.770589,45.8380984 312.770606,46.6168647 C312.761611,46.7424664 312.761611,46.8685504 312.770606,46.9941521 C312.972494,48.4438291 314.215175,49.5208944 315.67883,49.514815 C317.142485,49.508684 318.376137,48.4212894 318.565925,46.9699785 C318.755713,45.5186677 317.84316,44.1506137 316.430292,43.7683456 L316.335971,43.6928881 Z M374.268436,66.3301264 C373.998267,66.3301264 373.739162,66.4374508 373.548124,66.6284896 C373.357085,66.8195284 373.24976,67.0786325 373.24976,67.3488021 L373.24976,80.1388417 C373.24976,80.7014407 373.705837,81.1575174 374.268436,81.1575174 C374.831035,81.1575174 375.287112,80.7014407 375.287112,80.1388417 L375.287112,67.3110733 C375.268008,67.0370563 375.139053,66.7823671 374.929499,66.604779 C374.719945,66.427191 374.447554,66.3417564 374.174114,66.3678551 L374.268436,66.3301264 Z M367.797959,66.3301264 C367.527789,66.3301264 367.268685,66.4374508 367.077646,66.6284896 C366.886608,66.8195283 366.779283,67.0786325 366.779283,67.3488021 L366.779283,80.1388417 C366.779283,80.7014407 367.23536,81.1575173 367.797959,81.1575173 C368.360558,81.1575173 368.816635,80.7014407 368.816635,80.1388417 L368.816635,67.3110733 C368.79753,67.0370563 368.668575,66.782367 368.459022,66.604779 C368.249468,66.427191 367.977077,66.3417564 367.703637,66.3678551 L367.797959,66.3301264 Z M326.937744,43.5608376 C325.325373,43.5712402 324.025735,44.8849196 324.032631,46.4973093 C324.039583,48.1096991 325.350455,49.4121684 326.962856,49.40873 C328.575257,49.405278 329.880585,48.0972188 329.880585,46.4848142 C329.865852,45.6975664 329.536253,44.9490561 328.965487,44.4066516 C328.394722,43.864247 327.630399,43.5731918 326.843422,43.5985663 L326.937744,43.5608376 Z M380.720049,66.3301264 C380.449879,66.3301264 380.190775,66.4374508 379.999737,66.6284896 C379.808698,66.8195284 379.701373,67.0786325 379.701373,67.3488021 L379.701373,80.1388417 C379.701373,80.7014408 380.15745,81.1575174 380.720049,81.1575174 C381.282648,81.1575174 381.738725,80.7014408 381.738725,80.1388417 L381.738725,67.3110733 C381.719621,67.0370563 381.590666,66.782367 381.381112,66.604779 C381.171558,66.427191 380.899167,66.3417564 380.625727,66.3678551 L380.720049,66.3301264 Z M361.327482,66.3301264 C361.057312,66.3301264 360.798208,66.4374508 360.607169,66.6284896 C360.41613,66.8195283 360.308806,67.0786325 360.308806,67.3488021 L360.308806,80.1388417 C360.308806,80.7014408 360.764883,81.1575174 361.327482,81.1575174 C361.890081,81.1575174 362.346157,80.7014408 362.346157,80.1388417 L362.346157,67.3110733 C362.327053,67.0370563 362.198098,66.782367 361.988544,66.604779 C361.77899,66.427191 361.506599,66.3417564 361.23316,66.3678551 L361.327482,66.3301264 Z M391.510466,71.6121486 C389.898095,71.6225513 388.598457,72.9362307 388.605353,74.5486204 C388.612305,76.1610101 389.923177,77.4634794 391.535578,77.460041 C393.147979,77.4565891 394.453307,76.1485299 394.453307,74.5361253 C394.422472,72.9329825 393.113905,71.6495808 391.510466,71.6498773 L391.510466,71.6121486 Z" id="形状"></path>
                    </g>
                </g>
            </g>
        </g>
    </g>
</svg>