<?xml version="1.0" encoding="UTF-8"?>
<svg width="17px" height="12px" viewBox="0 0 17 12" version="1.1" xmlns="http://www.w3.org/2000/svg" xmlns:xlink="http://www.w3.org/1999/xlink">
    <title>查看</title>
    <g id="事件信息、组织动态、辅助工具" stroke="none" stroke-width="1" fill="none" fill-rule="evenodd">
        <g id="坐席超管" transform="translate(-1152.000000, -253.000000)" fill="#0091FF" fill-rule="nonzero">
            <g id="穿梭组" transform="translate(190.000000, 157.000000)">
                <g id="1" transform="translate(0.000000, 93.000000)">
                    <g id="查看" transform="translate(962.000000, 3.000000)">
                        <path d="M8.5,0 C2.01875,0 0,6 0,6 C0,6 2.23125,12 8.5,12 C14.76875,12 17,6 17,6 C17,6 14.98125,0 8.5,0 Z M8.5,3.17647059 C10.0583333,3.17647059 11.3333333,4.44705882 11.3333333,6 C11.3333333,7.55294118 10.0583333,8.8235294 8.5,8.8235294 C6.94166666,8.8235294 5.66666666,7.55294118 5.66666666,6 C5.66666666,4.44705882 6.94166666,3.17647059 8.5,3.17647059 Z M8.5,3.88235294 C7.32639491,3.88235294 6.375,4.83045582 6.375,6 C6.375,7.16954418 7.32639491,8.1176471 8.5,8.1176471 C9.6736051,8.1176471 10.625,7.16954418 10.625,6 C10.625,4.83045582 9.6736051,3.88235294 8.5,3.88235294 Z"></path>
                    </g>
                </g>
            </g>
        </g>
    </g>
</svg>