<?xml version="1.0" encoding="UTF-8"?>
<svg width="14px" height="15px" viewBox="0 0 14 15" version="1.1" xmlns="http://www.w3.org/2000/svg" xmlns:xlink="http://www.w3.org/1999/xlink">
    <title>视频</title>
    <defs>
        <filter id="filter-1">
            <feColorMatrix in="SourceGraphic" type="matrix" values="0 0 0 0 0.600000 0 0 0 0 0.600000 0 0 0 0 0.600000 0 0 0 1.000000 0"></feColorMatrix>
        </filter>
    </defs>
    <g id="事件信息、组织动态、辅助工具" stroke="none" stroke-width="1" fill="none" fill-rule="evenodd">
        <g id="选择坐席" transform="translate(-250.000000, -312.000000)">
            <g id="win-copy-4" transform="translate(209.000000, 189.000000)">
                <g id="视频" transform="translate(20.000000, 50.000000)" filter="url(#filter-1)">
                    <g transform="translate(21.000000, 73.000000)">
                        <path d="M7.00043689,4.28675514 C6.28200159,4.28675514 5.60501449,4.56520205 5.09727416,5.07162736 C4.58780682,5.57805268 4.30803154,6.24980585 4.30803154,6.96506635 C4.30803154,7.68032685 4.58780682,8.35208002 5.09727416,8.85850534 C5.60501449,9.36493066 6.28200159,9.64337757 7.00043689,9.64337757 C7.71887218,9.64337757 8.39585929,9.36493066 8.90359962,8.85850534 C9.413067,8.35208002 9.6928422,7.68032685 9.6928422,6.96506635 C9.6928422,6.24980585 9.413067,5.57805268 8.90359962,5.07162736 C8.39413228,4.56346175 7.71714518,4.28675514 7.00043689,4.28675514 Z M8.60655426,7.12865391 C8.53229292,7.88046057 7.92093211,8.48956319 7.16450264,8.5626555 C6.14384096,8.6635925 5.29069904,7.81606972 5.39259251,6.7997385 C5.46685385,6.04793184 6.07821466,5.43882923 6.83464413,5.36573691 C7.85530581,5.26479991 8.70844772,6.11232269 8.60655426,7.12865391 L8.60655426,7.12865391 Z M14,6.96506635 C14,2.71875097 10.1833125,-0.638274584 5.77771528,0.103090314 C3.05422378,0.560787422 0.46198489,3.22169571 0.07340811,5.94351425 C-0.391157024,9.18742075 1.39629618,12.079788 4.1042446,13.308435 C2.91260913,13.6686757 1.81423209,14.2499336 0.86092372,15 L13.138223,15 C12.1831877,14.2499336 11.0865376,13.6686757 9.8949022,13.3066947 C12.3161673,12.21031 14,9.78434132 14,6.96506635 Z M7.19558878,10.7101773 C4.95911352,10.8232963 3.1233041,8.99424821 3.23555961,6.77015352 C3.33227206,4.86453248 4.8883062,3.31741183 6.80183098,3.21995541 C9.0383062,3.10683636 10.8741157,4.9358845 10.7618601,7.15997919 C10.6651477,9.06560023 9.1108406,10.6127209 7.19558878,10.7101773 Z" id="形状" fill="#9FC8FE" fill-rule="nonzero"></path>
                    </g>
                </g>
            </g>
        </g>
    </g>
</svg>