<?xml version="1.0" encoding="UTF-8"?>
<svg width="10px" height="10px" viewBox="0 0 10 10" version="1.1" xmlns="http://www.w3.org/2000/svg" xmlns:xlink="http://www.w3.org/1999/xlink">
    <!-- Generator: Sketch 58 (84663) - https://sketch.com -->
    <title>形状</title>
    <desc>Created with Sketch.</desc>
    <g id="页面-1" stroke="none" stroke-width="1" fill="none" fill-rule="evenodd">
        <g id="防汛台风" transform="translate(-310.000000, -215.000000)" fill="#8AE398" fill-rule="nonzero">
            <g id="左" transform="translate(170.000000, 109.000000)">
                <g id="编组-15" transform="translate(10.000000, 10.000000)">
                    <g id="3" transform="translate(0.000000, 87.000000)">
                        <g id="编组" transform="translate(130.000000, 9.000000)">
                            <g id="形状">
                                <g transform="translate(-0.000000, 0.000000)">
                                    <path d="M9.64626782,8.97542219 L9.21137228,9.39616515 L9.19589506,9.38054852 C9.00940171,9.52081941 8.80750086,9.64547367 8.57443646,9.73896436 C8.35698869,9.81697784 8.15508785,9.87923525 7.93770978,9.89478218 C7.84449796,9.9103291 5.53002825,10.1286135 2.67197396,7.2458096 C0.590638367,5.18887501 -0.170533398,3.64617405 0.0314371736,1.9789583 C0.0624612961,1.77636027 0.108892926,1.55821534 0.186836679,1.34000068 C0.279909065,1.10630882 0.404214739,0.903710795 0.544067319,0.716729421 L0.528450685,0.701182495 L0.963415932,0.264822901 C1.27407553,-0.0468127289 1.78656623,-0.0623596542 2.08167892,0.249275976 L3.60395274,1.77636029 C3.91461233,2.08799592 3.89906541,2.58661293 3.58840582,2.89831827 L2.82730376,3.66179071 C2.85832788,3.70850119 2.87401424,3.7552814 2.90496866,3.81753879 C3.1690572,4.3006786 3.54176504,4.97073005 4.24074912,5.67194508 C4.93973321,6.37322982 5.60755371,6.74712286 6.08922946,7.01204801 C6.13587024,7.04321157 6.19784878,7.07430542 6.24448953,7.08992207 L7.02120822,6.31076327 C7.33186782,5.99912764 7.84456769,5.98365044 8.13947119,6.29528607 L9.66181474,7.82237037 C9.95692741,8.14955293 9.95692741,8.66378656 9.64626782,8.97542219 Z M8.62114694,1.69848623 L8.62114694,5.0798374 L8.04639881,5.0798374 L8.04639881,2.68017333 L5.6542642,5.0798374 L5.23484586,4.65909444 L7.64245768,2.25943037 L5.25039278,2.25943037 L5.25039278,1.6828696 L8.62114694,1.69848623 Z"></path>
                                </g>
                            </g>
                        </g>
                    </g>
                </g>
            </g>
        </g>
    </g>
</svg>