<?xml version="1.0" encoding="UTF-8"?>
<svg width="22px" height="15px" viewBox="0 0 22 15" version="1.1" xmlns="http://www.w3.org/2000/svg" xmlns:xlink="http://www.w3.org/1999/xlink">
    <!-- Generator: Sketch 58 (84663) - https://sketch.com -->
    <title>资源池icon</title>
    <desc>Created with Sketch.</desc>
    <g id="页面-1" stroke="none" stroke-width="1" fill="none" fill-rule="evenodd">
        <g id="事件接报" transform="translate(-1263.000000, -181.000000)">
            <g id="编组-3备份" transform="translate(767.000000, 71.000000)">
                <g id="气泡" transform="translate(421.000000, 99.000000)">
                    <g id="资源池icon" transform="translate(76.000000, 12.000000)">
                        <g id="Group-5">
                            <path d="M15.2183578,0.494614869 L4.90467354,0.494614869 C4.02467354,0.494614869 3.14467354,1.0876685 2.76677881,1.91913566 L-0.000210526317,7.34296707 L-0.000210526317,11.9711696 C-0.000210526317,12.8711245 0.296496626,13.4432711 1.02195767,13.4432711 L18.9874201,13.4432711 C19.6369906,13.4432711 19.9955789,13.0390635 19.9955789,11.9711696 L19.9955789,7.5803872 C20.1218947,7.46118044 17.3551999,1.91913566 17.3551999,1.91913566 C16.9783578,1.0876685 16.2236209,0.494614869 15.2183578,0.494614869 Z M17.3551102,8.68507928 L13.8714661,8.68507928 L13.8714661,10.6796976 L6.51758649,10.6796976 L6.51758649,8.56380754 L3.03394248,8.56380754 C2.77585478,8.56380754 2.64735086,8.44151671 2.51884694,8.32024497 C2.38926316,8.19795414 2.38926316,8.07668239 2.38926316,7.83311982 L5.04159824,2.31613984 C11.8705602,2.31613984 15.2850412,2.31613984 15.2850412,2.31613984 C15.2850412,2.31613984 16.1899573,4.15513316 17.9997895,7.83311982 C17.9997895,8.07668239 17.9997895,8.32024497 17.8712856,8.44151671 C17.7417018,8.56380754 17.6131979,8.68507928 17.3551102,8.68507928 Z" id="Fill-3" stroke="#99C2F8" fill="#D7E9FF" stroke-linecap="round" stroke-linejoin="round"></path>
                            <path d="M6.66731762,4 L13.3337983,4 C13.7332961,4 14,4.2 14,4.49958159 C14,4.8 13.7332961,5 13.3337983,5 L6.66731762,5 C6.26781978,5 6,4.8 6,4.49958159 C6,4.2 6.26781978,4 6.66731762,4" id="Path" fill="#99C2F8"></path>
                            <path d="M5.83414702,6 L14.1672479,6 C14.6666202,6 15,6.2 15,6.49958159 C15,6.8 14.6666202,7 14.1672479,7 L5.83414702,7 C5.33477472,7 5,6.8 5,6.49958159 C5,6.2 5.33477472,6 5.83414702,6" id="Path-Copy-2" fill="#99C2F8"></path>
                        </g>
                    </g>
                </g>
            </g>
        </g>
    </g>
</svg>