<?xml version="1.0" encoding="UTF-8"?>
<svg width="20px" height="14px" viewBox="0 0 20 14" version="1.1" xmlns="http://www.w3.org/2000/svg" xmlns:xlink="http://www.w3.org/1999/xlink">
    <!-- Generator: Sketch 58 (84663) - https://sketch.com -->
    <title>查看凭证icon</title>
    <desc>Created with Sketch.</desc>
    <g id="页面-1" stroke="none" stroke-width="1" fill="none" fill-rule="evenodd">
        <g id="事件接报" transform="translate(-1209.000000, -182.000000)">
            <g id="编组-3备份" transform="translate(767.000000, 71.000000)">
                <g id="气泡" transform="translate(421.000000, 99.000000)">
                    <g id="查看凭证icon" transform="translate(21.000000, 12.000000)">
                        <rect id="Combined-Shape" stroke="#99C2F8" fill="#D7E9FF" x="0.5" y="0.5" width="19" height="13" rx="1"></rect>
                        <path d="M11.5,10 L16.5,10 C16.7761424,10 17,10.2238576 17,10.5 C17,10.7761424 16.7761424,11 16.5,11 L11.5,11 C11.2238576,11 11,10.7761424 11,10.5 C11,10.2238576 11.2238576,10 11.5,10 Z" id="Rectangle-4-Copy-4" fill="#99C2F8"></path>
                        <path d="M3.5,8 L8.5,8 C8.77614237,8 9,8.22385763 9,8.5 C9,8.77614237 8.77614237,9 8.5,9 L3.5,9 C3.22385763,9 3,8.77614237 3,8.5 C3,8.22385763 3.22385763,8 3.5,8 Z" id="Rectangle-4-Copy-8" fill="#99C2F8"></path>
                        <path d="M3.5,5 L8.5,5 C8.77614237,5 9,5.22385763 9,5.5 C9,5.77614237 8.77614237,6 8.5,6 L3.5,6 C3.22385763,6 3,5.77614237 3,5.5 C3,5.22385763 3.22385763,5 3.5,5 Z" id="Rectangle-4-Copy-10" fill="#99C2F8"></path>
                        <path d="M3.5,3 L8.5,3 C8.77614237,3 9,3.22385763 9,3.5 C9,3.77614237 8.77614237,4 8.5,4 L3.5,4 C3.22385763,4 3,3.77614237 3,3.5 C3,3.22385763 3.22385763,3 3.5,3 Z" id="Rectangle-4-Copy-9" fill="#99C2F8"></path>
                        <path d="M3.5,10 L8.5,10 C8.77614237,10 9,10.2238576 9,10.5 C9,10.7761424 8.77614237,11 8.5,11 L3.5,11 C3.22385763,11 3,10.7761424 3,10.5 C3,10.2238576 3.22385763,10 3.5,10 Z" id="Rectangle-4-Copy-7" fill="#99C2F8"></path>
                        <rect id="Rectangle-4-Copy-2" stroke="#99C2F8" fill="#FFFFFF" x="11.5" y="3.5" width="5" height="5" rx="1"></rect>
                    </g>
                </g>
            </g>
        </g>
    </g>
</svg>