<?xml version="1.0" encoding="UTF-8"?>
<svg width="20px" height="16px" viewBox="0 0 20 16" version="1.1" xmlns="http://www.w3.org/2000/svg" xmlns:xlink="http://www.w3.org/1999/xlink">
    <title>基本信息icon复制</title>
    <g id="页面-1" stroke="none" stroke-width="1" fill="none" fill-rule="evenodd">
        <g id="突发事件-修改" transform="translate(-190.000000, -82.000000)">
            <g id="编组-3备份" transform="translate(170.000000, 61.000000)">
                <g id="编组-11" transform="translate(20.000000, 16.000000)">
                    <g id="基本信息icon复制" transform="translate(0.000000, 5.000000)">
                        <rect id="Rectangle" stroke="#3F92FE" x="0.5" y="0.5" width="19" height="14.2941176" rx="2"></rect>
                        <rect id="Rectangle" fill="#3F92FE" x="3.52941176" y="3.52941176" width="7.05882353" height="4.70588235" rx="0.5"></rect>
                        <path d="M0,7.05882353 L20,7.05882353 L20,12.1176471 C20,13.2222166 19.1045695,14.1176471 18,14.1176471 L2,14.1176471 C0.8954305,14.1176471 1.3527075e-16,13.2222166 0,12.1176471 L0,7.05882353 L0,7.05882353 Z" id="Rectangle-Copy-2" fill="#3F92FE" opacity="0.2"></path>
                        <rect id="Rectangle-Copy-2" fill="#3F92FE" x="3.52941176" y="10.5882353" width="12.9411765" height="1.17647059" rx="0.588235294"></rect>
                        <rect id="Rectangle-Copy-4" fill="#3F92FE" x="11.7647059" y="7.05882353" width="4.70588235" height="1.17647059" rx="0.588235294"></rect>
                        <rect id="Rectangle-Copy-5" fill="#3F92FE" x="11.7647059" y="3.52941176" width="4.70588235" height="1.17647059" rx="0.588235294"></rect>
                    </g>
                </g>
            </g>
        </g>
    </g>
</svg>