<?xml version="1.0" encoding="UTF-8"?>
<svg width="20px" height="20px" viewBox="0 0 20 20" version="1.1" xmlns="http://www.w3.org/2000/svg" xmlns:xlink="http://www.w3.org/1999/xlink">
    <title>编组 9</title>
    <g id="事件管理" stroke="none" stroke-width="1" fill="none" fill-rule="evenodd">
        <g id="事件管理备份" transform="translate(-985.000000, -469.000000)" fill-rule="nonzero">
            <g id="编组-6" transform="translate(985.000000, 208.000000)">
                <g id="编组-9" transform="translate(0.000000, 261.000000)">
                    <path d="M10,0 C4.48,0 0,4.48 0,10 C0,15.52 4.48,20 10,20 C15.52,20 20,15.52 20,10 C20,4.48 15.52,0 10,0 Z" id="形状备份" fill="#F2B626"></path>
                    <path d="M12.3464323,13.215809 C12.7145812,13.215809 13,13.5128155 13,13.8528664 L13,13.8528664 L13,14.3629427 C13,14.7029935 12.7145812,15 12.3464323,15 L12.3464323,15 L7.69493279,15 C7.32678388,15 7.04136506,14.7029936 7.04136506,14.3629427 L7.04136506,14.3629427 L7.04136506,13.8528664 C7.04136506,13.5128155 7.32678387,13.215809 7.69493279,13.215809 L7.69493279,13.215809 Z M15.0225225,7 C15.5563063,7 16,7.38390868 16,7.84576837 L16,7.84576837 L15.9954955,7.84576837 L15.9954955,13.1542316 C15.9954955,13.6160913 15.5518018,14 15.018018,14 L15.018018,14 L14.2635135,14 C13.9504505,14 13.8626126,13.8830735 13.8626126,13.653118 L13.8626126,13.653118 L13.8626126,13.1542316 C13.8626126,12.7703229 13.509009,12.501392 13.1081081,12.501392 L13.1081081,12.501392 L6.88738739,12.501392 C6.48873874,12.501392 6.13288288,12.8073497 6.13288288,13.1542316 L6.13288288,13.1542316 L6.13288288,13.5771158 C6.13288287,13.8460468 6,14 5.68918918,14 L5.68918918,14 L4.97747748,14 C4.44369369,14 4,13.6160913 4,13.1542316 L4,13.1542316 L4,7.84771715 C4,7.38585746 4.44594595,7.00194878 5.06756756,7.00194878 L5.06756756,7.00194878 L5.51351351,7.00194878 C6.00225224,7.00194878 6.18018017,7.27087974 6.18018017,7.65478842 L6.18018017,7.65478842 L6.18018017,8.80651448 C6.18018017,9.19042316 6.53378377,9.45935412 6.93468468,9.45935412 L6.93468468,9.45935412 L13.1576577,9.45935412 C13.5563063,9.45935412 13.9121622,9.15339644 13.9121622,8.80651448 L13.9121622,8.80651448 L13.9121622,7.65283965 C13.9121622,7.19292873 14.222973,7 14.5788288,7 L14.5788288,7 Z M12.3464323,4 C12.7145812,4 13,4.29700645 13,4.68010174 L13,4.68010174 L13,7.5253375 C13,7.90843279 12.7145812,8.20543925 12.3464323,8.20543925 L12.3464323,8.20543925 L7.65356774,8.20543925 C7.28541883,8.20543925 7,7.90843279 7,7.5253375 L7,7.5253375 L7,4.68010174 C7,4.29700646 7.28541883,4 7.65356774,4 L7.65356774,4 Z" id="形状结合" fill="#FFFFFF"></path>
                </g>
            </g>
        </g>
    </g>
</svg>