<?xml version="1.0" encoding="UTF-8"?>
<svg width="20px" height="20px" viewBox="0 0 20 20" version="1.1" xmlns="http://www.w3.org/2000/svg" xmlns:xlink="http://www.w3.org/1999/xlink">
    <title>编组 10</title>
    <g id="事件管理" stroke="none" stroke-width="1" fill="none" fill-rule="evenodd">
        <g id="事件管理备份" transform="translate(-985.000000, -326.000000)" fill-rule="nonzero">
            <g id="编组-6" transform="translate(985.000000, 208.000000)">
                <g id="编组-10" transform="translate(0.000000, 118.000000)">
                    <path d="M10,0 C4.48,0 0,4.48 0,10 C0,15.52 4.48,20 10,20 C15.52,20 20,15.52 20,10 C20,4.48 15.52,0 10,0 Z" id="形状" fill="#0BD295"></path>
                    <path d="M13.4665234,17 L13.3966174,17 C11.796404,16.9194548 9.63440019,15.4510533 7.61347948,13.0693928 L6.86739113,12.1895911 C4.84647042,9.81164807 3.78771134,7.4857497 4.03556011,5.97026022 C4.20841873,4.90210657 5.83913652,4 6.76952266,4 C7.22708961,4 7.39486416,4.22304833 7.45206003,4.35563817 C7.97953304,5.26889716 8.63156595,6.85625775 8.63410799,7.42627014 L8.63410799,7.46592317 L8.62012677,7.50309789 C8.50319299,7.80297398 8.24390505,7.94671622 8.01385056,8.07311029 C7.71134797,8.24039654 7.53976036,8.34944238 7.51815303,8.66418836 C7.51306896,8.75960348 7.59695623,9.19454772 8.93025548,10.795539 L9.50094316,11.4671623 C10.8380555,13.0049566 11.2574919,13.1710037 11.3566314,13.1846345 C11.6794703,13.228005 11.8307216,13.0904585 12.0620471,12.842627 C12.2399898,12.6542751 12.4395398,12.4399009 12.7700048,12.3928129 L12.8119485,12.3866171 L12.8526211,12.3952912 C13.4347479,12.5154895 14.9243826,13.4522924 15.7708814,14.1474597 C15.8928993,14.2255266 16.1064305,14.4609665 15.937385,14.9789343 C15.673013,15.7930607 14.5189274,17 13.4665234,17 L13.4665234,17 Z" id="路径" fill="#FFFFFF"></path>
                </g>
            </g>
        </g>
    </g>
</svg>