<?xml version="1.0" encoding="UTF-8"?>
<svg width="20px" height="20px" viewBox="0 0 20 20" version="1.1" xmlns="http://www.w3.org/2000/svg" xmlns:xlink="http://www.w3.org/1999/xlink">
    <title>时间2</title>
    <g id="事件管理" stroke="none" stroke-width="1" fill="none" fill-rule="evenodd">
        <g id="事件管理备份" transform="translate(-985.000000, -208.000000)" fill-rule="nonzero">
            <g id="形状" transform="translate(985.000000, 208.000000)">
                <path d="M10,0 C4.48,0 0,4.48 0,10 C0,15.52 4.48,20 10,20 C15.52,20 20,15.52 20,10 C20,4.48 15.52,0 10,0 Z" fill="#0091FF"></path>
                <path d="M16,6.79171588 C15.9889491,6.79751931 15.9781861,6.80387085 15.96775,6.81074751 L14.752,7.63519781 C11.471875,9.88207229 9.829,11.0037967 9.823375,11 L4.85687499,7.56325824 L4,6.97441956 L4,6.76126528 C4,6.34083008 4.33578644,6 4.75,6 L15.25,6 C15.6642136,6 16,6.34083008 16,6.76126528 L16,6.79171588 Z M16,8 L16,14.2828604 C16,14.6789257 15.6642136,15 15.25,15 L4.75,15 C4.33578644,15 4,14.6789257 4,14.2828604 L4,8.17856777 L4.43499999,8.46040365 L9.401125,11.6968548 C9.66235115,11.8675737 10.0060451,11.8687103 10.2685,11.6997234 L15.172375,8.52889049 C15.207625,8.50594203 15.48475,8.32880853 16,8 Z" fill="#FFFFFF"></path>
            </g>
        </g>
    </g>
</svg>