<?xml version="1.0" encoding="UTF-8"?>
<svg width="18px" height="16px" viewBox="0 0 18 16" version="1.1" xmlns="http://www.w3.org/2000/svg" xmlns:xlink="http://www.w3.org/1999/xlink">
    <title>编组</title>
    <g id="页面-1" stroke="none" stroke-width="1" fill="none" fill-rule="evenodd">
        <g id="退出登录按钮" transform="translate(-1788.000000, -38.000000)" fill="#FFFFFF" fill-rule="nonzero">
            <g id="编组-3" transform="translate(1772.000000, 30.000000)">
                <g id="编组" transform="translate(16.000000, 8.000000)">
                    <path d="M0,2.28571429 L0,13.7142857 C0,14.9767857 1.00734953,16 2.25027469,16 L8.43853009,16 C8.74970089,16 9.00109877,15.7446429 9.00109877,15.4285714 C9.00109877,15.1125 8.74970089,14.8571429 8.43853009,14.8571429 L2.25027469,14.8571429 C1.62969112,14.8571429 1.12513735,14.3446429 1.12513735,13.7142857 L1.12513735,2.28571429 C1.12513735,1.65535714 1.62969112,1.14285714 2.25027469,1.14285714 L8.43853009,1.14285714 C8.74970089,1.14285714 9.00109877,0.8875 9.00109877,0.571428571 C9.00109877,0.255357143 8.74970089,0 8.43853009,0 L2.25027469,0 C1.00734953,0 0,1.02321429 0,2.28571429 Z" id="路径"></path>
                    <path d="M17.8140886,8.42321429 L11.4429984,14.2732143 C10.7204493,14.9375 9.56366744,14.4160714 9.56366744,13.425 L9.56366744,11.0892857 C9.56366744,11.0107143 9.50037846,10.9464286 9.42302527,10.9464286 L3.93798071,10.9464286 C3.62680991,10.9464286 3.37541204,10.6910714 3.37541204,10.375 L3.37541204,5.625 C3.37541204,5.30892857 3.62680991,5.05357143 3.93798071,5.05357143 L9.42302527,5.05357143 C9.50037846,5.05357143 9.56366744,4.98928571 9.56366744,4.91071429 L9.56366744,2.57321429 C9.56366744,1.58214286 10.7204493,1.06071429 11.4429984,1.725 L17.8140886,7.575 C18.0619705,7.80357143 18.0619705,8.19642857 17.8140886,8.42321429 Z" id="路径"></path>
                </g>
            </g>
        </g>
    </g>
</svg>