<?xml version="1.0" encoding="UTF-8"?>
<svg width="16px" height="16px" viewBox="0 0 16 16" version="1.1" xmlns="http://www.w3.org/2000/svg" xmlns:xlink="http://www.w3.org/1999/xlink">
    <title>编组 3备份</title>
    <g id="页面-1" stroke="none" stroke-width="1" fill="none" fill-rule="evenodd">
        <g id="事件类型" transform="translate(-219.000000, -249.000000)">
            <g id="编组-3" transform="translate(170.000000, 142.000000)">
                <g id="文件夹/默认" transform="translate(49.000000, 107.000000)">
                    <g id="文件夹-copy-3" transform="translate(0.000000, 2.000000)">
                        <path d="M14.9532619,2 L14.9532619,11.1314261 C14.9532619,11.6178275 14.5407619,12 14.0157619,12 L1.89076193,12 C1.36576193,12 0.953261928,11.5830845 0.953261928,11.1314261 L0.990761928,2 L14.9532619,2 Z" id="路径" fill="#FFCA28" fill-rule="nonzero"></path>
                        <path d="M13.9763579,1 L8.0024148,1 L8.0024148,1 L7.2951524,0.293582094 C7.10769958,0.106353095 6.85360851,0.00116423056 6.58866841,0.00111117482 L2.03988313,0.000200255146 C1.48759844,-0.000110578495 1.03979354,0.447515005 1.03968294,0.999799744 C1.03968293,0.999866496 1.03968292,0.999933248 1.03988315,1 L1.03988315,3 L1.03988315,3 L14.9532619,3 L14.976085,2.02336266 C14.9889878,1.47122865 14.5518546,1.01317578 13.9997206,1.00027294 C13.9919344,1.00009099 13.9841463,1 13.9763579,1 Z" id="路径" fill="#FFA925"></path>
                    </g>
                </g>
            </g>
        </g>
    </g>
</svg>