<?xml version="1.0" encoding="UTF-8"?>
<svg width="19px" height="17px" viewBox="0 0 19 17" version="1.1" xmlns="http://www.w3.org/2000/svg" xmlns:xlink="http://www.w3.org/1999/xlink">
    <title>编组 5</title>
    <g id="信息处置-通讯、短信处置" stroke="none" stroke-width="1" fill="none" fill-rule="evenodd">
        <g id="最新-传真" transform="translate(-996.000000, -67.000000)">
            <g id="编组-6" transform="translate(965.000000, 61.000000)">
                <g id="tab2" transform="translate(2.000000, 0.000000)">
                    <g id="编组-5" transform="translate(29.000000, 6.000000)">
                        <g id="分类">
                            <path d="M1.7,9.7 L17.1,9.7 L17.1,13.9 C17.1,14.6731986 16.4731986,15.3 15.7,15.3 L3.1,15.3 C2.32680135,15.3 1.7,14.6731986 1.7,13.9 L1.7,9.7 L1.7,9.7 Z" id="Rectangle-Copy-2" fill="#9DA5C1" opacity="0.2"></path>
                            <g id="编组" transform="translate(5.000000, 4.000000)" fill="#7C808E" fill-rule="nonzero">
                                <path d="M4.16983259,0.00672990821 C5.73840401,0.00672990821 7.0241183,1.29244419 7.0241183,2.86101563 C7.0241183,4.06958706 6.27840403,5.09815848 5.22411831,5.50958705 C5.63554688,5.61244419 6.04697544,5.7924442 6.43268974,6.02387277 C6.58697544,6.10101563 6.63840402,6.30672992 6.53554688,6.46101563 C6.45840402,6.61530133 6.25268973,6.66672991 6.12411831,6.56387277 C5.55840401,6.20387277 4.91554687,6.02387277 4.24697544,6.02387277 C2.1641183,6.02387277 0.672689728,7.43815848 0.672689728,9.34101563 C0.672689728,9.52101563 0.518404018,9.67530134 0.338404015,9.67530134 C0.158404011,9.67530134 0.00411830156,9.52101563 0.00411830156,9.34101563 C0.00411830156,7.43815848 1.28983259,5.92101563 3.11554687,5.50958705 C2.06126116,5.09815849 1.31554687,4.06958706 1.31554687,2.86101563 C1.31554687,1.29244419 2.60126117,0.00672990821 4.16983259,0.00672990821 Z M9.44126117,9.05815848 C9.59554688,9.05815848 9.72411831,9.18672992 9.72411831,9.34101563 C9.72411831,9.49530134 9.59554688,9.62387276 9.44126117,9.62387276 L9.44126117,9.62387276 L5.50697544,9.62387276 C5.35268974,9.62387276 5.22411831,9.49530135 5.22411831,9.34101563 C5.22411831,9.18672991 5.35268974,9.05815848 5.50697544,9.05815848 L5.50697544,9.05815848 Z M9.44126117,8.05530134 C9.59554688,8.05530134 9.72411831,8.18387276 9.72411831,8.33815848 C9.72411831,8.4924442 9.59554688,8.62101563 9.44126117,8.62101563 L9.44126117,8.62101563 L5.50697544,8.62101563 C5.35268974,8.62101563 5.22411831,8.49244419 5.22411831,8.33815848 C5.22411831,8.18387277 5.35268974,8.05530134 5.50697544,8.05530134 L5.50697544,8.05530134 Z M9.46697545,7.02672991 C9.62126116,7.02672991 9.74983259,7.15530135 9.74983259,7.30958706 C9.74983259,7.46387276 9.62126116,7.59244419 9.46697545,7.59244419 L9.46697545,7.59244419 L5.53268973,7.59244419 C5.37840402,7.59244419 5.24983259,7.46387276 5.24983259,7.30958706 C5.24983259,7.15530133 5.37840402,7.02672991 5.50697544,7.02672991 L5.50697544,7.02672991 Z M4.19554687,0.649587052 C2.96126117,0.649587052 1.98411831,1.6524442 1.98411831,2.86101563 C1.98411831,4.06958706 2.98697545,5.07244419 4.19554687,5.07244419 C5.42983258,5.07244419 6.40697544,4.09530135 6.40697544,2.86101563 C6.40697544,1.62672991 5.4041183,0.649587052 4.19554687,0.649587052 Z" id="形状结合"></path>
                            </g>
                            <rect id="Rectangle" stroke="#7C808E" stroke-width="0.7" x="1.35" y="2.35" width="16.1" height="12.6" rx="1.4"></rect>
                        </g>
                    </g>
                </g>
            </g>
        </g>
    </g>
</svg>