<?xml version="1.0" encoding="UTF-8"?>
<svg width="19px" height="17px" viewBox="0 0 19 17" version="1.1" xmlns="http://www.w3.org/2000/svg" xmlns:xlink="http://www.w3.org/1999/xlink">
    <title>编组 5</title>
    <g id="信息处置-通讯、短信处置" stroke="none" stroke-width="1" fill="none" fill-rule="evenodd">
        <g id="最新-传真" transform="translate(-1255.000000, -67.000000)">
            <g id="编组-6" transform="translate(965.000000, 61.000000)">
                <g id="tab2" transform="translate(2.000000, 0.000000)">
                    <g id="编组-7" transform="translate(259.000000, 0.000000)">
                        <g id="编组-3" transform="translate(29.000000, 6.000000)">
                            <g id="卡片">
                                <g id="分组" transform="translate(2.000000, 2.000000)">
                                    <rect id="Rectangle" stroke="#7C808E" stroke-width="0.7" x="0.35" y="0.35" width="13.8444444" height="10.5388889" rx="1.4"></rect>
                                    <path d="M0,0 L14.5444444,0 L14.5444444,1.90555556 C14.5444444,2.67875421 13.9176431,3.30555556 13.1444444,3.30555556 L1.4,3.30555556 C0.62680135,3.30555556 5.38778735e-16,2.67875421 0,1.90555556 L0,0 L0,0 Z" id="Rectangle-Copy-2" fill="#9DA5C1" opacity="0.2" transform="translate(7.272222, 1.652778) scale(1, -1) translate(-7.272222, -1.652778) "></path>
                                    <path d="M13.1444444,0.35 L1.4,0.35 C1.11005051,0.35 0.847550506,0.467525253 0.65753788,0.65753788 C0.467525253,0.847550506 0.35,1.11005051 0.35,1.4 L0.35,2.95555556 L14.1944444,2.95555556 L14.1944444,1.4 C14.1944444,1.11005051 14.0769192,0.847550506 13.8869066,0.65753788 C13.6968939,0.467525253 13.4343939,0.35 13.1444444,0.35 Z" id="Rectangle-Copy-8" stroke="#7C808E" stroke-width="0.7"></path>
                                </g>
                                <g id="分组-copy" transform="translate(3.983333, 4.644444)">
                                    <path d="M12.4833333,0.35 L1.4,0.35 C1.11005051,0.35 0.847550506,0.467525253 0.65753788,0.65753788 C0.467525253,0.847550506 0.35,1.11005051 0.35,1.4 L0.35,9.83888889 C0.35,10.1288384 0.467525253,10.3913384 0.65753788,10.581351 C0.847550506,10.7713636 1.11005051,10.8888889 1.4,10.8888889 L12.4833333,10.8888889 C12.7732828,10.8888889 13.0357828,10.7713636 13.2257955,10.581351 C13.4158081,10.3913384 13.5333333,10.1288384 13.5333333,9.83888889 L13.5333333,1.4 C13.5333333,1.11005051 13.4158081,0.847550506 13.2257955,0.65753788 C13.0357828,0.467525253 12.7732828,0.35 12.4833333,0.35 Z" id="Rectangle" stroke="#7C808E" stroke-width="0.7" fill="#FFFFFF"></path>
                                    <path d="M0,0 L13.8833333,0 L13.8833333,1.90555556 C13.8833333,2.67875421 13.256532,3.30555556 12.4833333,3.30555556 L1.4,3.30555556 C0.62680135,3.30555556 5.38778735e-16,2.67875421 0,1.90555556 L0,0 L0,0 Z" id="Rectangle-Copy-2" fill="#9DA5C1" opacity="0.2" transform="translate(6.941667, 1.652778) scale(1, -1) translate(-6.941667, -1.652778) "></path>
                                    <path d="M12.4833333,0.35 L1.4,0.35 C1.11005051,0.35 0.847550506,0.467525253 0.65753788,0.65753788 C0.467525253,0.847550506 0.35,1.11005051 0.35,1.4 L0.35,2.95555556 L13.5333333,2.95555556 L13.5333333,1.4 C13.5333333,1.11005051 13.4158081,0.847550506 13.2257955,0.65753788 C13.0357828,0.467525253 12.7732828,0.35 12.4833333,0.35 Z" id="Rectangle-Copy-8" stroke="#7C808E" stroke-width="0.7"></path>
                                </g>
                                <rect id="Rectangle-Copy-5" stroke="#7C808E" stroke-width="0.7" x="6.31666667" y="9.62222222" width="1.94444444" height="1.94444444" rx="0.7"></rect>
                                <rect id="矩形" stroke="#7C808E" stroke-width="0.7" x="10.2833333" y="9.62222222" width="3.92777778" height="1" rx="0.35"></rect>
                                <rect id="矩形-copy" stroke="#7C808E" stroke-width="0.7" x="10.2833333" y="11.6055556" width="3.92777778" height="1" rx="0.35"></rect>
                            </g>
                        </g>
                    </g>
                </g>
            </g>
        </g>
    </g>
</svg>