<?xml version="1.0" encoding="UTF-8"?>
<svg width="19px" height="17px" viewBox="0 0 19 17" version="1.1" xmlns="http://www.w3.org/2000/svg" xmlns:xlink="http://www.w3.org/1999/xlink">
    <title>编组 5</title>
    <g id="信息处置-通讯、短信处置" stroke="none" stroke-width="1" fill="none" fill-rule="evenodd">
        <g id="最新-传真" transform="translate(-1126.000000, -67.000000)">
            <g id="编组-6" transform="translate(965.000000, 61.000000)">
                <g id="tab2" transform="translate(2.000000, 0.000000)">
                    <g id="编组-7备份" transform="translate(130.000000, 0.000000)">
                        <g id="编组-5" transform="translate(29.000000, 6.000000)">
                            <g id="分类">
                                <path d="M1.7,9.7 L17.1,9.7 L17.1,13.9 C17.1,14.6731986 16.4731986,15.3 15.7,15.3 L3.1,15.3 C2.32680135,15.3 1.7,14.6731986 1.7,13.9 L1.7,9.7 L1.7,9.7 Z" id="Rectangle-Copy-2" fill="#9DA5C1" opacity="0.2"></path>
                                <rect id="Rectangle" stroke="#7C808E" stroke-width="0.7" x="1.35" y="2.35" width="16.1" height="12.6" rx="1.4"></rect>
                                <rect id="Rectangle-Copy-5" stroke="#7C808E" stroke-width="0.7" x="6.95" y="5.15" width="7.7" height="1.4" rx="0.7"></rect>
                                <rect id="Rectangle-Copy-6" stroke="#7C808E" stroke-width="0.7" x="6.95" y="7.95" width="7.7" height="1.4" rx="0.7"></rect>
                                <rect id="Rectangle-Copy-9" stroke="#7C808E" stroke-width="0.7" x="6.95" y="10.75" width="7.7" height="1.4" rx="0.7"></rect>
                                <rect id="Rectangle-Copy-7" stroke="#7C808E" stroke-width="0.7" x="4.15" y="5.15" width="1.4" height="1.4" rx="0.7"></rect>
                                <rect id="Rectangle-Copy-11" stroke="#7C808E" stroke-width="0.7" x="4.15" y="7.95" width="1.4" height="1.4" rx="0.7"></rect>
                                <rect id="Rectangle-Copy-12" stroke="#7C808E" stroke-width="0.7" x="4.15" y="10.75" width="1.4" height="1.4" rx="0.7"></rect>
                            </g>
                        </g>
                    </g>
                </g>
            </g>
        </g>
    </g>
</svg>