<?xml version="1.0" encoding="UTF-8"?>
<svg width="65px" height="37px" viewBox="0 0 65 37" version="1.1" xmlns="http://www.w3.org/2000/svg" xmlns:xlink="http://www.w3.org/1999/xlink">
    <title>编组 11</title>
    <defs>
        <linearGradient x1="13.2282509%" y1="35.7777778%" x2="83.4174172%" y2="67.3252474%" id="linearGradient-1">
            <stop stop-color="#3BF3A8" offset="0%"></stop>
            <stop stop-color="#46D0ED" offset="100%"></stop>
        </linearGradient>
        <rect id="path-2" x="0" y="0" width="60" height="32" rx="8"></rect>
        <filter x="-9.2%" y="-10.9%" width="118.3%" height="134.4%" filterUnits="objectBoundingBox" id="filter-4">
            <feOffset dx="0" dy="2" in="SourceAlpha" result="shadowOffsetOuter1"></feOffset>
            <feGaussianBlur stdDeviation="1.5" in="shadowOffsetOuter1" result="shadowBlurOuter1"></feGaussianBlur>
            <feColorMatrix values="0 0 0 0 0.882670969   0 0 0 0 0.882670969   0 0 0 0 0.882670969  0 0 0 1 0" type="matrix" in="shadowBlurOuter1"></feColorMatrix>
        </filter>
        <linearGradient x1="41.2504628%" y1="-6.09200421%" x2="9.03964931%" y2="59.0236083%" id="linearGradient-5">
            <stop stop-color="#FFFFFF" stop-opacity="0" offset="0%"></stop>
            <stop stop-color="#FFFFFF" stop-opacity="0.18" offset="100%"></stop>
        </linearGradient>
    </defs>
    <g id="值班值守-通讯调度" stroke="none" stroke-width="1" fill="none" fill-rule="evenodd">
        <g id="会议调度-通讯录" transform="translate(-1191.000000, -608.000000)">
            <g id="2" transform="translate(1106.000000, 373.000000)">
                <g id="编组-11" transform="translate(10.000000, 61.000000)">
                    <g id="编组-10备份-13" transform="translate(75.000000, 173.000000)">
                        <g id="椭圆形" transform="translate(0.000000, 0.200000)">
                            <g transform="translate(3.000000, 3.000000)">
                                <mask id="mask-3" fill="white">
                                    <use xlink:href="#path-2"></use>
                                </mask>
                                <g id="蒙版">
                                    <use fill="black" fill-opacity="1" filter="url(#filter-4)" xlink:href="#path-2"></use>
                                    <use fill="url(#linearGradient-1)" fill-rule="evenodd" xlink:href="#path-2"></use>
                                </g>
                                <circle fill="url(#linearGradient-5)" mask="url(#mask-3)" cx="30.4" cy="-16" r="30.4"></circle>
                                <path d="M29.5357347,8.0840338 C30.2333575,8.0840338 30.7988926,8.64956886 30.7988926,9.3471917 L30.7987347,14.8200338 L36.2725768,14.8208759 C36.9701996,14.8208759 37.5357347,15.386411 37.5357347,16.0840338 C37.5357347,16.7816566 36.9701996,17.3471917 36.2725768,17.3471917 L30.7987347,17.3470338 L30.7988926,22.8208759 C30.7988926,23.5184988 30.2333575,24.0840338 29.5357347,24.0840338 C28.8381118,24.0840338 28.2725768,23.5184988 28.2725768,22.8208759 L28.2717347,17.3470338 L22.7988926,17.3471917 C22.1012697,17.3471917 21.5357347,16.7816566 21.5357347,16.0840338 C21.5357347,15.386411 22.1012697,14.8208759 22.7988926,14.8208759 L28.2717347,14.8200338 L28.2725768,9.3471917 C28.2725768,8.64956886 28.8381118,8.0840338 29.5357347,8.0840338 Z" id="形状结合" fill="#FFFFFF" mask="url(#mask-3)"></path>
                            </g>
                        </g>
                    </g>
                </g>
            </g>
        </g>
    </g>
</svg>