<?xml version="1.0" encoding="UTF-8"?>
<svg width="22px" height="16px" viewBox="0 0 22 16" version="1.1" xmlns="http://www.w3.org/2000/svg" xmlns:xlink="http://www.w3.org/1999/xlink">
    <title>形状</title>
    <g id="深汕" stroke="none" stroke-width="1" fill="none" fill-rule="evenodd">
        <g id="首页" transform="translate(-1186.000000, -18.000000)" fill="#FFFFFF">
            <g id="user" transform="translate(1186.000000, 16.450000)">
                <g id="上传" transform="translate(0.000000, 1.550000)">
                    <path d="M10.7706147,0 C14.0954483,0 16.8351424,2.50530735 17.2049175,5.73109445 C19.6381409,5.96315442 21.5412294,8.01271364 21.5412294,10.5067466 C21.5412294,13.1563898 19.3932714,15.3043478 16.7436282,15.3043478 L4.7976012,15.3043478 C2.14795802,15.3043478 0,13.1563898 0,10.5067466 C0,8.01271364 1.90308846,5.96315442 4.33631184,5.73102249 C4.70611094,2.50530735 7.4458051,0 10.7706147,0 Z M10.7862789,4.62967651 L10.7826087,4.62967651 C10.5849475,4.62874963 10.3869745,4.70368816 10.2361619,4.85452474 L7.14902549,7.94161319 C6.84924738,8.2413913 6.84924738,8.72741229 7.14902549,9.0271904 C7.4488036,9.32696852 7.93482459,9.32696852 8.2346027,9.0271904 L10.0029505,7.2587946 L10.0029745,11.8823868 C10.0029745,12.3063268 10.3466507,12.650003 10.7705907,12.650003 C11.1945307,12.650003 11.5382069,12.3063268 11.5382069,11.8823868 L11.5382069,7.23478261 L13.3305907,9.02716642 L13.3396342,9.03606597 C13.64006,9.32689655 14.1193643,9.32392204 14.4161439,9.02716642 C14.715922,8.72738831 14.715922,8.24136732 14.4161439,7.94158921 L11.3290795,4.85452474 L11.3198441,4.8454093 C11.1711664,4.7016012 10.9787346,4.62967651 10.7862789,4.62967651 L10.7862789,4.62967651 Z" id="形状"></path>
                </g>
            </g>
        </g>
    </g>
</svg>