<?xml version="1.0" encoding="UTF-8"?>
<svg width="14px" height="14px" viewBox="0 0 14 14" version="1.1" xmlns="http://www.w3.org/2000/svg" xmlns:xlink="http://www.w3.org/1999/xlink">
    <!-- Generator: Sketch 58 (84663) - https://sketch.com -->
    <title>形状</title>
    <desc>Created with Sketch.</desc>
    <g id="网格报告" stroke="none" stroke-width="1" fill="none" fill-rule="evenodd">
        <g id="电子通行证管理" transform="translate(-1252.000000, -330.000000)" fill="#9FC8FE" fill-rule="nonzero">
            <g id="详情" transform="translate(170.000000, 158.000000)">
                <g id="历史" transform="translate(0.000000, 68.000000)">
                    <g id="1备份" transform="translate(106.000000, 103.000000)">
                        <path d="M989.341429,3.97047607 C989.326545,3.54074128 988.96849,3.13564095 988.54594,3.06156646 C988.54594,3.06156646 986.903642,2.8049573 985.982073,2.47855046 C984.831095,2.07105512 983.692264,1.17925277 983.692264,1.17925278 C983.336603,0.927262594 982.793105,0.94214592 982.462079,1.21637557 C982.462079,1.21637557 981.65684,2.02401011 980.152597,2.49343379 C978.877934,3.00066456 977.83764,3.09064883 977.673068,3.10211069 C977.656987,3.10330821 977.641078,3.10467679 977.625168,3.10724289 C977.216133,3.17327697 976.86971,3.549466 976.862354,3.97064715 C976.862354,3.97064715 976.805558,6.17645943 976.877238,8.11300318 C976.904438,11.5785953 981.036872,15.0021036 983.126526,15.0021036 C985.181623,15.0021036 988.736173,12.6159806 989.294384,8.16244321 C989.432781,5.52193502 989.341429,3.97116037 989.341429,3.97116037 L989.341429,3.97047607 Z M987.471603,6.24044065 L987.471603,6.22059621 L982.652483,10.7311008 C982.434532,10.9364166 982.105162,10.9679595 981.852205,10.8077414 L981.726295,10.7015052 L979.063377,7.95784017 C978.944178,7.82958295 978.881273,7.65895144 978.888698,7.48401372 C978.896122,7.309076 978.973257,7.14438774 979.102894,7.0266911 C979.373595,6.77998451 979.792564,6.79762292 980.041571,7.06620891 L982.230105,9.34541141 L986.57005,5.27199771 C986.84075,5.02529112 987.259719,5.04292953 987.508726,5.31151552 C987.62827,5.43900061 987.691658,5.60912451 987.684679,5.7837515 C987.6777,5.95837848 987.600939,6.12290161 987.471603,6.24044065 L987.471603,6.24044065 Z" id="形状"></path>
                    </g>
                </g>
            </g>
        </g>
    </g>
</svg>