<?xml version="1.0" encoding="UTF-8"?>
<svg width="14px" height="15px" viewBox="0 0 14 15" version="1.1" xmlns="http://www.w3.org/2000/svg" xmlns:xlink="http://www.w3.org/1999/xlink">
    <!-- Generator: Sketch 58 (84663) - https://sketch.com -->
    <title>形状结合</title>
    <desc>Created with Sketch.</desc>
    <g id="网格报告" stroke="none" stroke-width="1" fill="none" fill-rule="evenodd">
        <g id="电子通行证管理" transform="translate(-1227.000000, -330.000000)" fill="#9FC8FE" fill-rule="nonzero">
            <g id="详情" transform="translate(170.000000, 158.000000)">
                <g id="历史" transform="translate(0.000000, 68.000000)">
                    <g id="1备份" transform="translate(106.000000, 103.000000)">
                        <g id="编组-8" transform="translate(951.000000, 1.000000)">
                            <path d="M2.50056851,4 L11.5011714,4 C11.7469828,4.00081649 11.9506187,4.18753359 11.9922263,4.43378681 L12,4.52867572 L12,12.4358149 C12,13.2601613 11.4012854,13.9388287 10.6380925,14.0116919 L10.5017924,14.0181678 L3.50083429,14.0181678 C2.71979357,14.0181678 2.07534486,13.3852975 2.00615007,12.5796819 L2,12.4358149 L2,4.52037595 C2,4.37921423 2.05339397,4.24912435 2.14614889,4.15039644 C2.22175924,4.07214896 2.31808993,4.02284372 2.42170312,4.00625153 L2.50056851,4 L11.5011714,4 Z M8.50077599,6 C8.25443393,6 8.05035845,6.16215848 8.00804961,6.37751228 L8,6.46055067 L8,11.5402681 C8,11.7955869 8.22364117,12 8.50077599,12 C8.74556585,12 8.95015872,11.8384884 8.99260171,11.6232784 L9.00066327,11.5402681 L9.00066327,6.46055067 C9.00066327,6.2060362 8.77703769,6 8.50077599,6 Z M5.50077599,6 C5.22364117,6 5,6.20523182 5,6.46055067 L5,6.46055067 L5,11.5402681 C5,11.7955869 5.22364117,12 5.50077599,12 C5.77616458,12 6.00067886,11.7955869 6.00067886,11.5402681 L6.00066327,11.5402681 L6.00066327,6.46055067 C6.00066327,6.2060362 5.77703769,6 5.50077599,6 Z M4.73872016,1.11022302e-13 L9.33817128,1.11022302e-13 C10.1095438,1.11022302e-13 10.4598311,0.312423867 10.5013226,0.934996106 L10.5055369,1.06364519 L10.5055369,1.99241908 L13.5098399,1.99241908 C13.8366133,2.09412623 14,2.25926673 14,2.4878406 C14,2.79260575 13.8301143,2.96023534 13.5985036,2.99372383 L13.5089675,3 L0.491481104,3 C0.215460232,3 0,2.7248996 0,2.4878406 C0,2.27778535 0.169550919,2.04971749 0.401699861,2.00162902 L0.491481104,1.99241908 L3.49885468,1.99241908 L3.49885468,1.06364519 C3.49885468,0.402680684 3.8575943,0.0489634459 4.57865916,0.00473876753 L4.73872016,1.11022302e-13 L9.33817128,1.11022302e-13 Z" id="形状结合"></path>
                        </g>
                    </g>
                </g>
            </g>
        </g>
    </g>
</svg>