<?xml version="1.0" encoding="UTF-8"?>
<svg width="11px" height="16px" viewBox="0 0 11 16" version="1.1" xmlns="http://www.w3.org/2000/svg" xmlns:xlink="http://www.w3.org/1999/xlink">
    <!-- Generator: Sketch 58 (84663) - https://sketch.com -->
    <title>形状结合</title>
    <desc>Created with Sketch.</desc>
    <g id="网格报告" stroke="none" stroke-width="1" fill="none" fill-rule="evenodd">
        <g id="电子通行证管理" transform="translate(-1203.000000, -329.000000)" fill="#9FC8FE" fill-rule="nonzero">
            <g id="详情" transform="translate(170.000000, 158.000000)">
                <g id="历史" transform="translate(0.000000, 68.000000)">
                    <g id="1备份" transform="translate(106.000000, 103.000000)">
                        <g id="锁定" transform="translate(927.000000, 0.000000)">
                            <path d="M1.7,3.84408613 C1.7,1.72983876 3.42983876,6.97220059e-14 5.54408613,6.97220059e-14 C7.6583335,6.97220059e-14 9.38817226,1.72983876 9.38817226,3.84408613 L9.38817226,3.84408613 L9.38817226,6.43884427 L9.85954331,6.43884427 C10.4361562,6.43884427 10.8205648,6.91935503 10.916667,7.3998658 L10.916667,7.3998658 L10.916667,14.415323 C10.916667,14.9919359 10.5322584,15.3763445 9.95564547,15.3763445 L9.95564547,15.3763445 L0.961021532,15.3763445 C0.384408613,15.3763445 -4.61852778e-14,14.9919359 -4.61852778e-14,14.415323 L-4.61852778e-14,14.415323 L-4.61852778e-14,7.3998658 C-4.61852778e-14,6.82325288 0.384408613,6.43884427 0.961021532,6.43884427 L0.961021532,6.43884427 L1.7,6.43884427 Z M5.45322584,9 C4.87661292,9 4.3,9.48051077 4.3,10.1532258 C4.3,10.6337366 4.58830646,11.0181452 4.97271507,11.2103495 L4.97271507,11.2103495 L4.97271507,12.747984 C4.97271507,12.747984 4.97271507,12.8440861 5.06881723,12.8440861 L5.06881723,12.8440861 L5.9337366,12.8440861 C5.9337366,12.8440861 6.02983876,12.8440861 6.02983876,12.747984 L6.02983876,12.747984 L6.02983876,11.2103495 C6.41424737,11.0181452 6.70255383,10.6337366 6.60645168,10.1532258 C6.60645168,9.57661292 6.12594091,9 5.45322584,9 Z M7.85053781,6.43884427 L7.85053781,3.94018828 C7.85053781,2.59475814 6.79341412,1.53763445 5.44798398,1.53763445 C4.10255383,1.53763445 3.04543015,2.59475814 3.04543015,3.94018828 L3.04543015,3.94018828 L3.04543015,6.43884427 L7.85053781,6.43884427 Z" id="形状结合"></path>
                        </g>
                    </g>
                </g>
            </g>
        </g>
    </g>
</svg>