<?xml version="1.0" encoding="UTF-8"?>
<svg width="13px" height="15px" viewBox="0 0 13 15" version="1.1" xmlns="http://www.w3.org/2000/svg" xmlns:xlink="http://www.w3.org/1999/xlink">
    <!-- Generator: Sketch 58 (84663) - https://sketch.com -->
    <title>路径</title>
    <desc>Created with Sketch.</desc>
    <g id="网格报告" stroke="none" stroke-width="1" fill="none" fill-rule="evenodd">
        <g id="电子通行证管理" transform="translate(-1278.000000, -330.000000)" fill="#9FC8FE" fill-rule="nonzero">
            <g id="详情" transform="translate(170.000000, 158.000000)">
                <g id="历史" transform="translate(0.000000, 68.000000)">
                    <g id="1备份" transform="translate(106.000000, 103.000000)">
                        <path d="M1008.37432,2.94288681 C1008.3127,2.94115461 1008.25232,2.94461901 1008.19095,2.94486646 L1008.19095,1.49576079 C1008.19095,1.098593 1007.74652,0.863261798 1007.4179,1.08622017 L1002.21685,4.61841524 C1002.08121,4.71053854 1002,4.86386325 1002,5.02783214 C1002,5.19180103 1002.08121,5.34512574 1002.21685,5.43724903 L1007.41839,8.96919664 C1007.74701,9.19240246 1008.19145,8.95707127 1008.19145,8.55965603 L1008.19145,7.09421822 C1010.69744,7.06378106 1012.78152,8.81305156 1012.88223,11.0750521 C1012.95944,12.8102175 1011.84663,14.3484076 1010.19683,15.0588554 C1010.16689,15.0717231 1010.13546,15.0969637 1010.13819,15.1484346 C1010.14041,15.1905023 1010.18322,15.2028751 1010.22133,15.1914921 C1012.86194,14.4149734 1014.80596,12.1331763 1014.87945,9.38715079 C1014.97176,5.92671812 1012.05944,3.04162198 1008.37432,2.94288681 Z" id="路径"></path>
                    </g>
                </g>
            </g>
        </g>
    </g>
</svg>