<?xml version="1.0" encoding="UTF-8"?>
<svg width="18px" height="14px" viewBox="0 0 18 14" version="1.1" xmlns="http://www.w3.org/2000/svg" xmlns:xlink="http://www.w3.org/1999/xlink">
    <!-- Generator: Sketch 58 (84663) - https://sketch.com -->
    <title>形状结合</title>
    <desc>Created with Sketch.</desc>
    <g id="网格报告" stroke="none" stroke-width="1" fill="none" fill-rule="evenodd">
        <g id="电子通行证管理" transform="translate(-1147.000000, -331.000000)" fill="#9FC8FE">
            <g id="详情" transform="translate(170.000000, 158.000000)">
                <g id="历史" transform="translate(0.000000, 68.000000)">
                    <g id="1备份" transform="translate(106.000000, 103.000000)">
                        <g id="查看信息备份-3" transform="translate(871.000000, 2.000000)">
                            <g id="编组-4">
                                <path d="M17,-9.05941988e-14 C17.5522847,-9.06956519e-14 18,0.44771525 18,1 L18,12.2 C18,12.7522847 17.5522847,13.2 17,13.2 L1,13.2 C0.44771525,13.2 6.76353751e-17,12.7522847 0,12.2 L0,1 C-6.76353751e-17,0.44771525 0.44771525,-9.04927457e-14 1,-9.05941988e-14 L17,-9.05941988e-14 Z M5.36288419,2.72836078 C4.19334001,2.72836078 3.24523713,3.67646366 3.24523713,4.84600784 C3.24523713,5.65960379 3.7040544,6.36603722 4.37705955,6.72067874 L4.49575744,6.77754092 C3.16551525,7.15657239 2.19148327,8.38092298 2.19148327,9.83277092 L8.54442445,9.83277092 C8.54442445,8.37876249 7.56749141,7.152929 6.23420933,6.77585443 C6.96921306,6.44435109 7.48053124,5.70489184 7.48053124,4.84600784 C7.48053124,3.67646366 6.53242836,2.72836078 5.36288419,2.72836078 Z M15.0705882,8.54117647 L11.4705882,8.54117647 C11.1392174,8.54117647 10.8705882,8.80980562 10.8705882,9.14117647 C10.8705882,9.47254732 11.1392174,9.74117647 11.4705882,9.74117647 L11.4705882,9.74117647 L15.0705882,9.74117647 C15.4019591,9.74117647 15.6705882,9.47254732 15.6705882,9.14117647 C15.6705882,8.80980562 15.4019591,8.54117647 15.0705882,8.54117647 L15.0705882,8.54117647 Z M15.0705882,6 L11.4705882,6 C11.1392174,6 10.8705882,6.26862915 10.8705882,6.6 C10.8705882,6.89823376 11.0881778,7.14564675 11.3732651,7.19214701 L11.4705882,7.2 L15.0705882,7.2 C15.4019591,7.2 15.6705882,6.93137085 15.6705882,6.6 C15.6705882,6.26862915 15.4019591,6 15.0705882,6 Z M15.0705882,3.45882353 L11.4705882,3.45882353 C11.1392174,3.45882353 10.8705882,3.72745268 10.8705882,4.05882353 C10.8705882,4.35705729 11.0881778,4.60447028 11.3732651,4.65097054 L11.4705882,4.65882353 L15.0705882,4.65882353 C15.4019591,4.65882353 15.6705882,4.39019438 15.6705882,4.05882353 C15.6705882,3.72745268 15.4019591,3.45882353 15.0705882,3.45882353 Z" id="形状结合"></path>
                            </g>
                        </g>
                    </g>
                </g>
            </g>
        </g>
    </g>
</svg>