<?xml version="1.0" encoding="UTF-8"?>
<svg width="23px" height="26px" viewBox="0 0 23 26" version="1.1" xmlns="http://www.w3.org/2000/svg" xmlns:xlink="http://www.w3.org/1999/xlink">
    <title>事件续报</title>
    <g id="页面-1" stroke="none" stroke-width="1" fill="none" fill-rule="evenodd" opacity="0.079171317">
        <g id="突发事件-修改" transform="translate(-309.000000, -171.000000)" fill="#467CFD" fill-rule="nonzero">
            <g id="编组-3备份" transform="translate(170.000000, 61.000000)">
                <g id="编组-8" transform="translate(15.000000, 110.000000)">
                    <g id="事件续报" transform="translate(33.000000, 0.000000)">
                        <g id="编组-7" transform="translate(90.000000, -4.000000)">
                            <path d="M22.9012346,4 C24.0603507,4 25,4.9834644 25,6.19662922 L25,6.19662922 L25,24.8033708 C25,26.0165356 24.0603507,27 22.9012346,27 L22.9012346,27 L7.09876544,27 C5.93964929,27 5,26.0165356 5,24.8033708 L5,24.8033708 L5,6.19662922 C5,4.9834644 5.93964929,4 7.09876544,4 L7.09876544,4 Z M22.9012346,5.80898877 L7.09876544,5.80898877 C6.89421553,5.80898877 6.72839507,5.98254131 6.72839507,6.19662922 L6.72839507,6.19662922 L6.72839507,24.8033708 C6.72839507,25.0174587 6.89421553,25.1910112 7.09876544,25.1910112 L7.09876544,25.1910112 L22.9012346,25.1910112 C23.1057845,25.1910112 23.2716049,25.0174587 23.2716049,24.8033708 L23.2716049,24.8033708 L23.2716049,6.19662922 C23.2716049,5.98254131 23.1057845,5.80898877 22.9012346,5.80898877 L22.9012346,5.80898877 Z M15.6746663,21.2627641 C16.1796725,21.2627641 16.5893279,21.6546085 16.5893279,22.1376579 L16.5893279,22.1376579 L16.5893279,22.7640282 C16.5893279,23.2470776 16.1796725,23.6389219 15.6746663,23.6372438 L15.6746663,23.6372438 L14.7600046,23.6372438 C14.2549984,23.6372438 13.845343,23.2453886 13.845343,22.7623392 L13.845343,22.7623392 L13.845343,22.1376579 C13.845343,21.6546085 14.2549984,21.2627641 14.7600046,21.2627641 L14.7600046,21.2627641 Z M21.0454126,21.7946727 C21.2979157,21.7946727 21.5027434,21.9905949 21.5027434,22.2321196 L21.5027434,22.2321196 L21.5027434,22.6695665 C21.5027434,22.9110912 21.2979157,23.1070134 21.0454126,23.1070134 L21.0454126,23.1070134 L17.0466588,23.1070134 L17.0466588,21.7946727 Z M13.3880121,21.7946727 L13.3880121,23.1070134 L8.94562367,23.1070134 C8.69312055,23.1070134 8.48829284,22.9110912 8.48829284,22.6695665 L8.48829284,22.6695665 L8.48829284,22.2321196 C8.48829284,21.9905949 8.69312055,21.7946727 8.94562367,21.7946727 L8.94562367,21.7946727 L13.3880121,21.7946727 Z M13.2681946,17.4508485 C13.7732008,17.4508485 14.1828563,17.8426928 14.1828563,18.3257422 L14.1828563,18.3257422 L14.1828563,18.9504235 C14.1828563,19.433473 13.7732008,19.8253173 13.2681946,19.8253173 L13.2681946,19.8253173 L12.3535329,19.8253173 C11.8485267,19.8253173 11.4388713,19.433473 11.4388713,18.9504235 L11.4388713,18.9504235 L11.4388713,18.3257422 C11.4388713,17.8426928 11.8485267,17.4508485 12.3535329,17.4508485 L12.3535329,17.4508485 Z M21.0454126,17.9810681 C21.2979157,17.9810681 21.5027434,18.1769902 21.5027434,18.4185149 L21.5027434,18.4185149 L21.5027434,18.8576508 C21.5027434,19.0991755 21.2979157,19.2950977 21.0454126,19.2950977 L21.0454126,19.2950977 L21.0454126,19.2934087 L14.6401871,19.2934087 L14.6401871,17.9810681 Z M10.9797747,17.982757 L10.9797747,19.2950977 L8.94562367,19.2950977 C8.69312055,19.2950977 8.48829284,19.0991755 8.48829284,18.8576508 L8.48829284,18.8576508 L8.48829284,18.4185149 C8.48829284,18.1769902 8.69312055,17.9810681 8.94562367,17.982757 L8.94562367,17.982757 L10.9797747,17.982757 Z M16.9176316,13.6372438 C17.4226379,13.6372438 17.8322933,14.0290881 17.8322933,14.5121376 L17.8322933,14.5121376 L17.8322933,15.1385078 C17.8322933,15.6215573 17.4226379,16.0134016 16.9176316,16.0117341 L16.9176316,16.0117341 L16.00297,16.0117341 C15.4979637,16.0117341 15.0883083,15.6198683 15.0883083,15.1368188 L15.0883083,15.1368188 L15.0883083,14.5121376 C15.0883083,14.0290881 15.4979637,13.6372438 16.00297,13.6372438 L16.00297,13.6372438 Z M21.0454126,14.1691524 C21.2979157,14.1691524 21.5027434,14.3650745 21.5027434,14.6065992 L21.5027434,14.6065992 L21.5027434,15.0440461 C21.5027434,15.2855709 21.2979157,15.481493 21.0454126,15.481493 L21.0454126,15.481493 L18.2896241,15.481493 L18.2896241,14.1691524 Z M14.6292117,14.1691524 L14.6292117,15.481493 L8.94562367,15.481493 C8.69312055,15.481493 8.48829284,15.2855709 8.48829284,15.0440461 L8.48829284,15.0440461 L8.48829284,14.6065992 C8.48829284,14.3650745 8.69312055,14.1691524 8.94562367,14.1691524 L8.94562367,14.1691524 L14.6292117,14.1691524 Z M20.8555555,7.34792135 C21.1082305,7.34792135 21.2345679,7.48014981 21.2345679,7.74460673 L21.2345679,11.726144 C21.2345679,11.990601 21.1082305,12.1228294 20.8555555,12.1228294 L9.14444445,12.1228294 C8.89176955,12.1228294 8.7654321,11.990601 8.7654321,11.726144 L8.7654321,7.74460673 C8.7654321,7.4801498 8.89176955,7.34792135 9.14444445,7.34792135 L20.8555555,7.34792135 Z" id="形状结合" transform="translate(15.000000, 15.500000) rotate(-30.000000) translate(-15.000000, -15.500000) "></path>
                        </g>
                    </g>
                </g>
            </g>
        </g>
    </g>
</svg>