<?xml version="1.0" encoding="UTF-8"?>
<svg width="14px" height="14px" viewBox="0 0 14 14" version="1.1" xmlns="http://www.w3.org/2000/svg" xmlns:xlink="http://www.w3.org/1999/xlink">
    <title>Fill 1</title>
    <g id="页面-1" stroke="none" stroke-width="1" fill="none" fill-rule="evenodd">
        <g id="通讯录新需求" transform="translate(-1130.000000, -375.000000)" fill="#9FC8FE">
            <g id="win-copy-4" transform="translate(334.000000, 161.000000)">
                <g id="穿梭组" transform="translate(553.000000, 118.000000)">
                    <g id="编组-12" transform="translate(0.000000, 38.000000)">
                        <path d="M250,64.0720455 L247.525016,61.597154 C247.267579,61.3484075 246.858277,61.3519451 246.605109,61.6051136 C246.35194,61.8582821 246.348403,62.2675853 246.597149,62.5250412 L249.072037,65.0000096 L246.597149,67.4749203 C246.348403,67.7324339 246.35194,68.1417371 246.605109,68.3948287 C246.858277,68.6479973 247.267579,68.6515156 247.525016,68.4028652 L250,65.9278776 L252.474907,68.4028652 C252.732421,68.6515156 253.141723,68.6479973 253.394814,68.3948287 C253.647983,68.1417371 253.65152,67.7324339 253.402851,67.4749203 L250.927886,65.0000096 L253.402851,62.5250412 C253.65152,62.2675853 253.647983,61.8582821 253.394814,61.6051136 C253.141723,61.3519451 252.732421,61.3484075 252.474907,61.597154 L250,64.0720455 Z M250,72 C246.133764,72 243,68.8661552 243,65 C243,61.1337679 246.133764,58 250,58 C253.866159,58 257,61.1337679 257,65 C257,68.8661552 253.866159,72 250,72 L250,72 Z" id="Fill-1"></path>
                    </g>
                </g>
            </g>
        </g>
    </g>
</svg>