<?xml version="1.0" encoding="UTF-8"?>
<svg width="19px" height="14px" viewBox="0 0 19 14" version="1.1" xmlns="http://www.w3.org/2000/svg" xmlns:xlink="http://www.w3.org/1999/xlink">
    <title>编组</title>
    <defs>
        <filter id="filter-1">
            <feColorMatrix in="SourceGraphic" type="matrix" values="0 0 0 0 0.623529 0 0 0 0 0.784314 0 0 0 0 0.996078 0 0 0 1.000000 0"></feColorMatrix>
        </filter>
    </defs>
    <g id="页面-1" stroke="none" stroke-width="1" fill="none" fill-rule="evenodd">
        <g id="初始界面" transform="translate(-451.000000, -185.000000)">
            <g id="左侧" transform="translate(170.000000, 173.000000)">
                <g id="编组" transform="translate(10.000000, 10.000000)" filter="url(#filter-1)">
                    <g transform="translate(271.000000, 2.000000)">
                        <path d="M16.5013333,0.0163902439 L2.14712195,0.0163902439 C0.961560976,0.0163902439 0,0.97795122 0,2.1635122 L0,11.8228293 C0,13.0083902 0.961560976,13.9681301 2.14712195,13.9681301 L16.5031545,13.9681301 C17.6887154,13.9681301 18.6502764,13.0065691 18.6502764,11.8228293 L18.6502764,2.1635122 C18.6484553,0.97795122 17.6868943,0.0163902439 16.5013333,0.0163902439 Z M11.9430244,4.27785366 L14.9242276,4.27785366 C15.1609756,4.27785366 15.3795122,4.60019512 15.3795122,4.83694309 C15.3795122,5.07369106 15.1609756,5.39603252 14.9242276,5.39603252 L11.9430244,5.39603252 C11.7062764,5.39603252 11.4877398,5.07369106 11.4877398,4.83694309 C11.4877398,4.60019512 11.7062764,4.27785366 11.9430244,4.27785366 Z M11.9430244,6.66718699 L14.9242276,6.66718699 C15.1609756,6.66718699 15.3795122,6.98952846 15.3795122,7.22627642 C15.3795122,7.46302439 15.1609756,7.78536585 14.9242276,7.78536585 L11.9430244,7.78536585 C11.7062764,7.78536585 11.4877398,7.46302439 11.4877398,7.22627642 C11.4877398,6.98952846 11.7062764,6.66718699 11.9430244,6.66718699 Z M2.21086179,10.8212033 C1.9777561,10.7756748 1.82478049,10.5516748 1.87030894,10.3185691 C2.14712195,8.87258537 3.22705691,7.75804878 4.58926829,7.36650407 C3.88266667,6.98770732 3.39460163,6.25014634 3.39460163,5.39239024 C3.39460163,4.15219512 4.4035122,3.14510569 5.64188618,3.14510569 C6.88026016,3.14510569 7.88917073,4.15401626 7.88917073,5.39239024 C7.88917073,6.25014634 7.40110569,6.98770732 6.69450407,7.36650407 C8.06035772,7.75804878 9.14029268,8.87804878 9.41346341,10.3294959 C9.45717073,10.5626016 9.30419512,10.7866016 9.07108943,10.8303089 C9.04377236,10.8357724 9.01645528,10.8375935 8.99095935,10.8375935 M16.3574634,10.1746992 L11.9430244,10.1746992 C11.7062764,10.1746992 11.4877398,9.85235772 11.4877398,9.61560976 C11.4877398,9.37886179 11.7062764,9.05652033 11.9430244,9.05652033 L16.3574634,9.05652033 C16.5942114,9.05652033 16.812748,9.37886179 16.812748,9.61560976 C16.812748,9.85235772 16.5942114,10.1746992 16.3574634,10.1746992 L16.3574634,10.1746992 Z" id="形状" fill="#000000" fill-rule="nonzero"></path>
                    </g>
                </g>
            </g>
        </g>
    </g>
</svg>