<?xml version="1.0" encoding="UTF-8"?>
<svg width="11px" height="14px" viewBox="0 0 11 14" version="1.1" xmlns="http://www.w3.org/2000/svg" xmlns:xlink="http://www.w3.org/1999/xlink">
    <title>编组</title>
    <g id="页面-1" stroke="none" stroke-width="1" fill="none" fill-rule="evenodd">
        <g id="添加物资类型成功" transform="translate(-1299.000000, -362.000000)" fill-rule="nonzero">
            <g id="穿梭组" transform="translate(509.000000, 269.000000)">
                <g id="编组-12" transform="translate(1.000000, 40.000000)">
                    <g id="编组-2" transform="translate(19.000000, 47.000000)">
                        <g id="编组" transform="translate(770.000000, 6.000000)">
                            <path d="M10.6822917,5.57149621 C10.6822917,2.60842803 8.53125,0.459043561 5.56983902,0.459043561 C2.75094697,0.459043561 0.457386364,2.75260417 0.457386364,5.57149621 C0.457386364,7.65293561 3.28456439,11.1777936 4.80421402,13.0719697 L4.91690341,13.2111742 C5.07599432,13.4100379 5.31463068,13.5243845 5.57149621,13.5243845 C5.82670455,13.5243845 6.06534091,13.4100379 6.22608902,13.2111742 L6.33877841,13.0719697 C7.85511364,11.1777936 10.6822917,7.65293561 10.6822917,5.57149621 Z M5.54332386,7.0530303 C4.50094697,7.0530303 3.65411932,6.20620265 3.65411932,5.16382576 C3.65411932,4.12144886 4.50094697,3.27462121 5.54332386,3.27462121 C6.58570076,3.27462121 7.43252841,4.12144886 7.43252841,5.16382576 C7.43252841,6.20620265 6.58570076,7.0530303 5.54332386,7.0530303 Z" id="形状" fill="#9FC8FE"></path>
                            <path d="M4.09824811,5.16382576 C4.09824811,5.96191906 4.74523056,6.60890152 5.54332386,6.60890152 C6.34141717,6.60890152 6.98839962,5.96191906 6.98839962,5.16382576 C6.98839962,4.36573245 6.34141717,3.71875 5.54332386,3.71875 C4.74523056,3.71875 4.09824811,4.36573245 4.09824811,5.16382576 L4.09824811,5.16382576 Z" id="路径" fill="#FFFFFF"></path>
                            <path d="M7.43252841,5.16382576 C7.43252841,4.12144886 6.58570076,3.27462121 5.54332386,3.27462121 C4.50094697,3.27462121 3.65411932,4.12144886 3.65411932,5.16382576 C3.65411932,6.20620265 4.50094697,7.0530303 5.54332386,7.0530303 C6.58570076,7.0530303 7.43252841,6.20620265 7.43252841,5.16382576 Z M4.09824811,5.16382576 C4.09824811,4.36671402 4.74621212,3.71875 5.54332386,3.71875 C6.34043561,3.71875 6.98839962,4.36671402 6.98839962,5.16382576 C6.98839962,5.9609375 6.34043561,6.60890152 5.54332386,6.60890152 C4.74621212,6.60890152 4.09824811,5.9609375 4.09824811,5.16382576 L4.09824811,5.16382576 Z" id="形状" fill="#FFFFFF"></path>
                        </g>
                    </g>
                </g>
            </g>
        </g>
    </g>
</svg>