<?xml version="1.0" encoding="UTF-8"?>
<svg width="14px" height="14px" viewBox="0 0 14 14" version="1.1" xmlns="http://www.w3.org/2000/svg" xmlns:xlink="http://www.w3.org/1999/xlink">
    <title>添加</title>
    <g id="页面-1" stroke="none" stroke-width="1" fill="none" fill-rule="evenodd">
        <g id="初始界面" transform="translate(-456.000000, -430.000000)" fill="#9FC8FE" fill-rule="nonzero">
            <g id="左侧" transform="translate(170.000000, 173.000000)">
                <g id="下拉" transform="translate(0.000000, 246.000000)">
                    <path d="M297.949451,13.0493098 C296.627371,11.7278225 294.870193,11 293.00063,11 C291.131068,11 289.373243,11.7278225 288.051053,13.049294 C286.728863,14.3707655 286,16.1296144 286,17.9999367 C286,19.870259 286.7285,21.6287596 288.051037,22.950706 C289.373574,24.2726524 291.130422,25 293.000158,25 C294.869893,25 296.627371,24.272969 297.948963,22.9507218 C299.270554,21.6284746 300,19.8697683 300,17.9994618 C300,16.1291553 299.272587,14.3712563 297.94942,13.0493098 L297.949451,13.0493098 Z M296.500867,18.502232 L293.500707,18.502232 L293.500707,21.5158615 C293.500707,21.7932628 293.276822,22.0181568 293.000646,22.0181568 C292.72447,22.0181568 292.50057,21.7932628 292.50057,21.5158773 L292.50057,18.5022162 L289.500236,18.5022162 C289.22406,18.5022162 289.000176,18.2773381 289.000176,17.9999367 C289.000176,17.7225353 289.22406,17.4976414 289.500236,17.4976414 L292.500554,17.4976414 L292.500554,14.4841544 C292.500554,14.206753 292.724439,13.9818749 293.000615,13.9818749 C293.276822,13.9818749 293.500691,14.206753 293.500691,14.4841544 L293.500691,17.4977838 L296.500851,17.4977838 C296.777027,17.4977838 297.000912,17.7226778 297.000912,18.0000633 C297.000912,18.2774489 296.777027,18.5023745 296.500851,18.5023745 L296.500851,18.502232 L296.500867,18.502232 Z" id="添加"></path>
                </g>
            </g>
        </g>
    </g>
</svg>