<?xml version="1.0" encoding="UTF-8"?>
<svg width="13px" height="13px" viewBox="0 0 13 13" version="1.1" xmlns="http://www.w3.org/2000/svg" xmlns:xlink="http://www.w3.org/1999/xlink">
    <title>拨号</title>
    <g id="页面-1" stroke="none" stroke-width="1" fill="none" fill-rule="evenodd">
        <g id="添加物资类型成功" transform="translate(-1240.000000, -362.000000)" fill="#9FC8FE">
            <g id="穿梭组" transform="translate(509.000000, 269.000000)">
                <g id="编组-12" transform="translate(1.000000, 40.000000)">
                    <g id="编组-2" transform="translate(19.000000, 47.000000)">
                        <path d="M713.891807,6 C715.469024,6 716.748597,7.2377592 716.748597,8.76343502 L716.748597,8.76343502 L716.748597,8.78883943 C716.748597,10.0816415 715.8367,11.1669743 714.602357,11.4788839 C715.180135,13.3080013 716.558923,14.7927478 718.336027,15.5605255 C718.64826,14.3509934 719.779012,13.453371 721.125701,13.453371 C722.713131,13.453371 724,14.698187 724,16.2337423 C724,16.4962545 723.962065,16.7488872 723.892031,16.9888177 C723.8789,17.0410379 723.858474,17.0904353 723.832211,17.1355987 C723.484961,18.108023 722.59349,18.8348713 721.507969,18.9731842 C721.462738,18.9872978 721.413131,18.9957659 721.363524,18.9971773 C721.322671,18.9971773 721.280359,19 721.238047,19 C715.584287,19 711,14.5810444 711,9.11203995 C711,9.04429486 711.001459,8.97654978 711.002918,8.90880469 C711.001459,8.86928672 711,8.82976875 711,8.79025079 C711,7.63293888 711.730976,6.64216697 712.769809,6.22158289 C713.114141,6.07903594 713.49349,6 713.891807,6 Z M721.109652,7.65975464 C721.343098,7.43393768 721.722447,7.43393768 721.954433,7.65975464 L721.954433,7.65975464 L723.558596,9.20932744 C723.684351,9.31550736 723.763636,9.47171891 723.763636,9.64553252 C723.763636,9.81716348 723.68659,9.97097248 723.564352,10.0767981 L721.954433,11.6327217 C721.720988,11.8585387 721.343098,11.8585387 721.109652,11.6327217 C720.876207,11.4069048 720.876207,11.0399522 721.109652,10.8155466 L721.109652,10.8155466 L721.72,10.224 L719.10202,10.2241885 C718.803939,10.2241885 718.557859,10.01384 718.511623,9.73924373 L718.503816,9.64553252 C718.503816,9.32656606 718.770819,9.06828792 719.100561,9.06687656 L719.100561,9.06687656 L721.719,9.066 L721.109652,8.47692976 C720.902145,8.27620357 720.879089,7.96507799 721.040483,7.7398186 Z" id="拨号"></path>
                    </g>
                </g>
            </g>
        </g>
    </g>
</svg>