<?xml version="1.0" standalone="no"?><!DOCTYPE svg PUBLIC "-//W3C//DTD SVG 1.1//EN" "http://www.w3.org/Graphics/SVG/1.1/DTD/svg11.dtd"><svg t="1611218656806" class="icon" viewBox="0 0 1024 1024" version="1.1" xmlns="http://www.w3.org/2000/svg" p-id="1115" xmlns:xlink="http://www.w3.org/1999/xlink" width="200" height="200"><defs><style type="text/css"></style></defs><path d="M140.8 819.2C32 716.8 38.4 544 140.8 454.4L473.6 128l51.2 51.2C326.4 371.2 217.6 480 192 505.6c-38.4 32-57.6 83.2-57.6 134.4s19.2 102.4 57.6 134.4c38.4 38.4 76.8 57.6 140.8 57.6s115.2-19.2 153.6-57.6l377.6-371.2c51.2-51.2 44.8-134.4 12.8-166.4-25.6-25.6-38.4-38.4-76.8-44.8-32-6.4-83.2 6.4-115.2 38.4l-326.4 320c-19.2 19.2-25.6 44.8-6.4 64s44.8 12.8 64-6.4l281.6-275.2 44.8 51.2-281.6 275.2c-25.6 19.2-89.6 64-160 6.4-38.4-44.8-38.4-115.2 6.4-153.6l326.4-320c51.2-44.8 96-57.6 147.2-57.6 51.2 0 96 32 128 64s44.8 83.2 44.8 128-19.2 96-57.6 128l-371.2 364.8c-44.8 51.2-115.2 76.8-192 76.8-70.4 0-140.8-25.6-192-76.8z" p-id="1116" fill="#666666"></path></svg>