<?xml version="1.0" encoding="UTF-8"?>
<svg width="31px" height="34px" viewBox="0 0 31 34" version="1.1" xmlns="http://www.w3.org/2000/svg" xmlns:xlink="http://www.w3.org/1999/xlink">
    <title>Combined Shape</title>
    <g id="页面-1" stroke="none" stroke-width="1" fill="none" fill-rule="evenodd">
        <g id="加载反馈2" transform="translate(-777.000000, -307.000000)" fill="#0091FF">
            <g id="Group" transform="translate(501.000000, 202.000000)">
                <path d="M285.70359,124.783744 C288.465013,124.783744 290.70359,127.02232 290.70359,129.783744 C290.70359,132.545168 288.465013,134.783744 285.70359,134.783744 C282.942166,134.783744 280.70359,132.545168 280.70359,129.783744 C280.70359,127.02232 282.942166,124.783744 285.70359,124.783744 Z M307.70359,124.783744 C310.465013,124.783744 312.70359,127.02232 312.70359,129.783744 C312.70359,132.545168 310.465013,134.783744 307.70359,134.783744 C304.942166,134.783744 302.70359,132.545168 302.70359,129.783744 C302.70359,127.02232 304.942166,124.783744 307.70359,124.783744 Z M296.70359,103.783744 C299.465013,103.783744 301.70359,106.02232 301.70359,108.783744 C301.70359,111.545168 299.465013,113.783744 296.70359,113.783744 C293.942166,113.783744 291.70359,111.545168 291.70359,108.783744 C291.70359,106.02232 293.942166,103.783744 296.70359,103.783744 Z" id="Combined-Shape" transform="translate(296.703590, 119.283744) rotate(30.000000) translate(-296.703590, -119.283744) "></path>
            </g>
        </g>
    </g>
</svg>