<?xml version="1.0" standalone="no"?><!DOCTYPE svg PUBLIC "-//W3C//DTD SVG 1.1//EN" "http://www.w3.org/Graphics/SVG/1.1/DTD/svg11.dtd"><svg t="1611561819742" class="icon" viewBox="0 0 1024 1024" version="1.1" xmlns="http://www.w3.org/2000/svg" p-id="5711" xmlns:xlink="http://www.w3.org/1999/xlink" width="200" height="200"><defs><style type="text/css"></style></defs><path d="M822.3 332.8c7.1 12.2 2.9 27.9-9.4 35L691.2 438c-7.9 4.6-17.7 4.7-25.7 0.1-8-4.6-12.9-13.1-12.8-22.3 0-9.2 5-17.7 12.9-22.2l121.9-70.5c12.3-6.8 27.8-2.5 34.8 9.7zM512 153.6c14.1 0 25.6 11.5 25.6 25.6V320c0 14.1-11.5 25.6-25.6 25.6-14.1 0-25.6-11.5-25.6-25.6V179.2c0-14.1 11.5-25.6 25.6-25.6zM870.4 512c0 14.1-11.5 25.6-25.6 25.6H704c-14.1 0-25.6-11.5-25.6-25.6 0-14.1 11.5-25.6 25.6-25.6h140.8c14.1 0 25.6 11.5 25.6 25.6zM691.2 822.4c-9 5.2-20.2 4.4-28.4-1.9a25.51 25.51 0 0 1-9.1-26.9c2.7-10 11.1-17.4 21.4-18.8 10.3-1.4 20.3 3.6 25.5 12.6 7 12.2 2.8 27.9-9.4 35zM428.8 367.9c-5.9 3.4-12.9 4.3-19.4 2.5-6.6-1.8-12.1-6.1-15.5-12l-70.4-121.8c-7-12.2-2.7-27.8 9.5-34.8 12.2-7 27.8-2.9 34.9 9.2l70.4 121.8c3.4 5.9 4.4 12.9 2.6 19.5-1.9 6.6-6.2 12.2-12.1 15.6z m-81.9 48.9c-7.1 12-22.4 16.2-34.6 9.4L211 367.8c-12.1-7.1-16.3-22.7-9.2-34.9 7-12.2 22.6-16.4 34.8-9.5l101.3 58.4c12.2 7.1 16.3 22.8 9.2 35h-0.2zM297.6 512c0 14.1-11.5 25.6-25.6 25.6h-92.8c-14.1 0-25.6-11.5-25.6-25.6 0-14.1 11.5-25.6 25.6-25.6H272c14.1 0 25.6 11.5 25.6 25.6z m7.9 119c7.1 12.2 2.9 27.9-9.4 35l-59.5 34.4c-12.3 7.1-27.9 2.9-35-9.4-7.1-12.3-2.9-27.9 9.4-35l59.5-34.4c12.3-7.1 27.9-2.9 35 9.4z m385.7-429.4c12.2 7.1 16.4 22.7 9.4 35l-70.8 121.8c-7.1 12.3-22.7 16.5-35 9.4s-16.5-22.7-9.4-35l70.4-121.9c3.4-6 9.1-10.3 15.8-12.1 6.6-1.7 13.7-0.7 19.6 2.8zM380.8 738.7c12.2 7.1 16.4 22.7 9.4 35l-22.4 38.8c-7.1 12.1-22.7 16.3-34.9 9.2-12.2-7-16.4-22.6-9.5-34.8l22.4-38.8c7.1-12.3 22.7-16.5 35-9.4zM512 798.4c14.1 0 25.6 11.5 25.6 25.6v20.8c0 14.1-11.5 25.6-25.6 25.6-14.1 0-25.6-11.5-25.6-25.6V824c0-14.1 11.5-25.6 25.6-25.6z m0 0" p-id="5712" fill="#707070"></path></svg>