<?xml version="1.0" encoding="UTF-8"?>
<svg width="44px" height="41px" viewBox="0 0 44 41" version="1.1" xmlns="http://www.w3.org/2000/svg" xmlns:xlink="http://www.w3.org/1999/xlink">
    <title>拍照</title>
    <defs>
        <rect id="path-1" x="0" y="0" width="35" height="35" rx="17.5"></rect>
        <filter x="-15.7%" y="-10.0%" width="131.4%" height="131.4%" filterUnits="objectBoundingBox" id="filter-2">
            <feMorphology radius="1.5" operator="erode" in="SourceAlpha" result="shadowSpreadOuter1"></feMorphology>
            <feOffset dx="0" dy="2" in="shadowSpreadOuter1" result="shadowOffsetOuter1"></feOffset>
            <feGaussianBlur stdDeviation="3" in="shadowOffsetOuter1" result="shadowBlurOuter1"></feGaussianBlur>
            <feColorMatrix values="0 0 0 0 0.0470322023   0 0 0 0 0.496970663   0 0 0 0 0.342778269  0 0 0 1 0" type="matrix" in="shadowBlurOuter1"></feColorMatrix>
        </filter>
    </defs>
    <g id="垃圾分类管理" stroke="none" stroke-width="1" fill="none" fill-rule="evenodd">
        <g id="新增分类垃圾点" transform="translate(-416.000000, -93.000000)">
            <g id="弹框" transform="translate(268.000000, 26.000000)">
                <g id="编组-2" transform="translate(49.100000, 60.000000)">
                    <g id="编组-11" transform="translate(77.900000, 0.000000)">
                        <g id="拍照" transform="translate(25.500000, 8.000000)">
                            <g id="Rectangle-6-Copy">
                                <use fill="black" fill-opacity="1" filter="url(#filter-2)" xlink:href="#path-1"></use>
                                <use fill="#0091FF" fill-rule="evenodd" xlink:href="#path-1"></use>
                            </g>
                            <path d="M20.1504411,8.75 C20.4809751,8.75 20.8612118,8.89047792 21.1917458,9.12455901 C21.5245821,9.3586401 21.7606989,9.64184896 21.9023985,9.96956249 L21.9023985,9.96956249 L22.4242167,11.3295736 L24.6956903,11.3295736 C25.406461,11.3295736 26.0202762,11.5636547 26.5420649,12.0809739 C27.0638832,12.5959816 27.3,13.206904 27.3,13.9114296 L27.3,13.9114296 L27.3,22.9681441 C27.3,23.6726404 27.0638832,24.2813097 26.5420649,24.7985997 C26.0202762,25.3159189 25.406461,25.55 24.6956903,25.55 L24.6956903,25.55 L10.3043097,25.55 C9.59365707,25.55 8.97972377,25.3159189 8.45793506,24.7985997 C7.93611684,24.2813097 7.7,23.6726404 7.7,22.9681441 L7.7,22.9681441 L7.7,13.9114296 C7.7,13.206904 7.93611684,12.5982932 8.45793506,12.0809739 C8.97972377,11.5636547 9.59365707,11.3295736 10.3043097,11.3295736 L10.3043097,11.3295736 L12.6230657,11.3295736 L13.1920187,9.96956249 C13.3337183,9.64184896 13.5722554,9.3586401 13.9027894,9.12455901 C14.2333235,8.89047792 14.5663073,8.75 14.9440942,8.75 L14.9440942,8.75 Z M17.4999376,13.65 C15.0005558,13.65 12.95,15.7005246 12.95,18.2000624 C12.95,20.6995689 15.0005558,22.75 17.4999376,22.75 C19.9994442,22.75 22.05,20.6995689 22.05,18.2000624 C22.05,15.7005246 19.9994442,13.65 17.4999376,13.65 Z M17.4999356,15.05 C19.2565785,15.05 20.65,16.4459935 20.65,18.2 C20.65,19.95655 19.2565785,21.35 17.4999356,21.35 C15.7434537,21.35 14.35,19.95655 14.35,18.2 C14.35,16.4433534 15.7434537,15.05 17.4999356,15.05 Z" id="Fill-1" fill="#FFFFFF"></path>
                        </g>
                    </g>
                </g>
            </g>
        </g>
    </g>
</svg>