<?xml version="1.0" encoding="UTF-8"?>
<svg width="16px" height="16px" viewBox="0 0 16 16" version="1.1" xmlns="http://www.w3.org/2000/svg" xmlns:xlink="http://www.w3.org/1999/xlink">
    <title>拨号</title>
    <defs>
        <filter id="filter-1">
            <feColorMatrix in="SourceGraphic" type="matrix" values="0 0 0 0 0.588235 0 0 0 0 0.592157 0 0 0 0 0.600000 0 0 0 1.000000 0"></feColorMatrix>
        </filter>
    </defs>
    <g id="值班值守-通讯调度" stroke="none" stroke-width="1" fill="none" fill-rule="evenodd">
        <g id="通讯调度-电话调度" transform="translate(-1275.000000, -110.000000)">
            <g id="编组-3备份" transform="translate(160.000000, 98.000000)" filter="url(#filter-1)">
                <g transform="translate(1115.000000, 12.000000)">
                    <path d="M13.832211,13.1355987 C13.8584736,13.0904353 13.8789001,13.0410379 13.8920314,12.9888177 C13.9620651,12.7488872 14,12.4962545 14,12.2337423 C14,10.698187 12.7131313,9.45337097 11.1257015,9.45337097 C9.77901235,9.45337097 8.64826038,10.3509934 8.33602694,11.5605255 C6.55892256,10.7927478 5.18013468,9.3080013 4.6023569,7.47888394 C5.83670034,7.16697427 6.74859708,6.08164152 6.74859708,4.78883943 L6.74859708,4.77613723 L6.74859708,4.76343502 C6.74859708,3.2377592 5.46902357,2 3.89180696,2 C3.49349046,2 3.11414141,2.07903594 2.7698092,2.22158289 C1.73097643,2.64216697 1,3.63293888 1,4.79025079 C1,4.82976875 1.00145903,4.86928672 1.00291807,4.90880469 C1.00145903,4.97654978 1,5.04429486 1,5.11203995 C1,10.5810444 5.58428732,15 11.2380471,15 C11.2803591,15 11.3226712,14.9971773 11.3635241,14.9971773 C11.4131313,14.9957659 11.4627385,14.9872978 11.5079686,14.9731842 C12.5934905,14.8348713 13.4849607,14.108023 13.832211,13.1355987 Z" id="路径" fill="#242424" fill-rule="nonzero"></path>
                    <path d="M9.47855125,1.88879069 L10.6026201,4.57062896 L9.90700962,4.49744213 C9.9070116,4.49812267 9.90701259,4.49880345 9.90701259,4.49948446 C9.90701259,5.69656798 10.8399692,6.66681396 11.9917801,6.66681396 C12.345235,6.66681396 12.6329309,6.96582707 12.6329309,7.33289144 C12.6329309,7.70098689 12.345235,8 11.9917801,8 C10.1320319,8 8.62471102,6.43275887 8.62471102,4.49948446 C8.62471102,4.45262518 8.62938284,4.40687493 8.63827118,4.36271421 L8,4.29636176 L9.47855125,1.88879069 Z M11.9917801,1 C13.8515284,1 15.3588492,2.56724113 15.3588492,4.49948446 C15.3588492,4.53576564 15.3560543,4.57137568 15.3506769,4.60609442 L16,4.67476801 L14.5214488,7.081308 L13.3973799,4.39946973 L14.075,4.471 L14.0713098,4.34481937 C13.9949199,3.22089692 13.0924848,2.33318604 11.9907526,2.33318604 C11.6307935,2.32641398 11.3443295,2.02833513 11.3506293,1.66710856 C11.3506293,1.29901311 11.6383252,1 11.9917801,1 Z" id="形状结合" fill="#000000" fill-rule="nonzero"></path>
                </g>
            </g>
        </g>
    </g>
</svg>