<?xml version="1.0" encoding="UTF-8"?>
<svg width="18px" height="16px" viewBox="0 0 18 16" version="1.1" xmlns="http://www.w3.org/2000/svg" xmlns:xlink="http://www.w3.org/1999/xlink">
    <title>短信</title>
    <defs>
        <filter id="filter-1">
            <feColorMatrix in="SourceGraphic" type="matrix" values="0 0 0 0 0.000000 0 0 0 0 0.568627 0 0 0 0 1.000000 0 0 0 1.000000 0"></feColorMatrix>
        </filter>
    </defs>
    <g id="值班值守-通讯调度" stroke="none" stroke-width="1" fill="none" fill-rule="evenodd">
        <g id="通讯调度-电话调度" transform="translate(-1093.000000, -110.000000)">
            <g id="编组-9备份" transform="translate(160.000000, 98.000000)" filter="url(#filter-1)">
                <g transform="translate(933.000000, 12.000000)">
                    <path d="M1.13686838e-13,5.3695238 L0.57999999,5.74380953 L7.2015,10.0419048 C7.54980153,10.268624 8.00806008,10.2701335 8.358,10.0457143 L10.7197802,8.52478096 C11.6625176,9.1414628 12.7893884,9.5 14,9.5 C14.7015272,9.5 15.3749342,9.3796036 16.0006859,9.15834611 L16,13.4761905 C16,14.002176 15.5522847,14.4285714 15,14.4285714 L1,14.4285714 C0.447715258,14.4285714 1.13686838e-13,14.002176 1.13686838e-13,13.4761905 L1.13686838e-13,5.3695238 Z M8,3.5 C8,5.23264857 8.73442171,6.79376376 9.90894604,7.88902649 C8.48349939,8.80241857 7.76877857,9.25795983 7.76450001,9.25525018 L1.14249999,4.95571428 L0,4.21904762 L0,3.95238096 C0,3.42639548 0.447715251,3 1,3 L8.02054838,2.99986072 C8.00693957,3.16477277 8,3.33157597 8,3.5 Z" id="形状结合" fill="#0091FF" fill-rule="nonzero"></path>
                    <path d="M10.6633702,1.01576079 L11.9279476,4.08071881 L11.1453834,3.99635756 C11.1453873,3.99737485 11.1453892,3.9983926 11.1453892,3.99941081 C11.1453892,5.36750626 12.1949653,6.47635882 13.4907526,6.47635882 C13.8883894,6.47635882 14.2120473,6.81808808 14.2120473,7.23759022 C14.2120473,7.65827073 13.8883894,8 13.4907526,8 C11.3985358,8 9.7027999,6.20886729 9.7027999,3.99941081 C9.7027999,3.94609025 9.70801008,3.89402616 9.71792488,3.84376054 L9,3.76727058 L10.6633702,1.01576079 Z M13.4907526,-1.77635684e-15 C15.5829694,-1.77635684e-15 17.2787054,1.79113271 17.2787054,3.99941081 C17.2787054,4.04119558 17.2755122,4.08220143 17.2693706,4.12217086 L18,4.19973487 L16.3366298,6.95006628 L15.0720524,3.88510826 L15.835,3.967 L15.8311242,3.83667392 C15.7516655,2.5455597 14.7335525,1.52364118 13.4895967,1.52364118 C13.0846427,1.51590169 12.7623707,1.17524015 12.769458,0.762409781 C12.769458,0.341729268 13.0931158,-1.77635684e-15 13.4907526,-1.77635684e-15 Z" id="形状结合" fill="#000000" fill-rule="nonzero"></path>
                </g>
            </g>
        </g>
    </g>
</svg>