<?xml version="1.0" encoding="UTF-8"?>
<svg width="12px" height="14px" viewBox="0 0 12 14" version="1.1" xmlns="http://www.w3.org/2000/svg" xmlns:xlink="http://www.w3.org/1999/xlink">
    <title>路径</title>
    <g id="页面-1" stroke="none" stroke-width="1" fill="none" fill-rule="evenodd">
        <g id="公告弹窗" transform="translate(-95.000000, -582.000000)" fill="#969799">
            <g id="1" transform="translate(20.000000, -1.000000)">
                <g id="窗体" transform="translate(0.000000, 60.000000)">
                    <g id="搜索" transform="translate(0.000000, 55.000000)">
                        <g id="编组-3" transform="translate(31.000000, 427.000000)">
                            <path d="M54.7449657,42.2811346 C53.0727771,40.5729551 50.3497014,40.5729551 48.6792879,42.2811346 L44.0461538,47.010362 C44.0159763,47.041189 44,47.0828962 44,47.1264167 C44,47.1699372 44.0159763,47.2116443 44.0461538,47.2424713 L44.7011831,47.911599 C44.7633133,47.9750664 44.8644967,47.9750664 44.9266268,47.911599 L49.5597609,43.1823716 C50.1349086,42.5948449 50.899997,42.2720679 51.7130144,42.2720679 C52.5260318,42.2720679 53.2911202,42.5948449 53.8644927,43.1823716 C54.4396404,43.7698983 54.7556166,44.5514539 54.7556166,45.3801567 C54.7556166,46.2106729 54.4396404,46.9904151 53.8644927,47.5779418 L49.1426013,52.3996503 L48.3775129,53.1812059 C47.6621286,53.9119876 46.4994072,53.9119876 45.7840229,53.1812059 C45.4378692,52.8276018 45.2479284,52.3579431 45.2479284,51.8574574 C45.2479284,51.3569717 45.4378692,50.887313 45.7840229,50.533709 L50.4686362,45.750081 C50.5875711,45.6303996 50.743784,45.5633055 50.9106479,45.5633055 L50.912423,45.5633055 C51.0792868,45.5633055 51.2337246,45.6303996 51.3508844,45.750081 C51.4698192,45.8715757 51.5337245,46.0311508 51.5337245,46.2016061 C51.5337245,46.370248 51.4680441,46.5298232 51.3508844,46.6495046 L47.5218919,50.5572826 C47.4917144,50.5881096 47.4757381,50.6298167 47.4757381,50.6733372 C47.4757381,50.7168577 47.4917144,50.7585649 47.5218919,50.7893919 L48.1769212,51.4585195 C48.2390514,51.5219869 48.3402348,51.5219869 48.4023649,51.4585195 L52.2295822,47.5489282 C52.5828365,47.1880707 52.7763275,46.7093452 52.7763275,46.1997928 C52.7763275,45.6902403 52.5810613,45.2097014 52.2295822,44.8506573 C51.5,44.1053688 50.3141984,44.1071822 49.5846129,44.8506573 L49.1301753,45.3166893 L44.9017748,49.6342853 C44.3195265,50.2290655 44,51.0178745 44,51.8592708 C44,52.6988537 44.3213016,53.4876627 44.9017748,54.0806295 C45.5035496,54.6935432 46.291715,55 47.0798803,55 C47.8680456,55 48.656211,54.6935432 49.2562107,54.0806295 L54.7449657,48.4773655 C55.5526577,47.650476 56,46.5497701 56,45.3801567 C56.0017699,44.20873 55.5544328,43.1080241 54.7449657,42.2811346 Z" id="路径"></path>
                        </g>
                    </g>
                </g>
            </g>
        </g>
    </g>
</svg>