<?xml version="1.0" encoding="UTF-8"?>
<svg width="14px" height="14px" viewBox="0 0 14 14" version="1.1" xmlns="http://www.w3.org/2000/svg" xmlns:xlink="http://www.w3.org/1999/xlink">
    <title>Shape</title>
    <g id="页面-1" stroke="none" stroke-width="1" fill="none" fill-rule="evenodd">
        <g id="发送通知公告" transform="translate(-1264.000000, -121.000000)" fill="#FFFFFF" fill-rule="nonzero">
            <g id="编组-8" transform="translate(666.000000, 113.000000)">
                <g id="编组-3" transform="translate(370.000000, 0.000000)">
                    <path d="M241.851137,21.0089326 L239.059215,17.8450201 C239.85309,16.8133095 240.324698,15.5236713 240.324698,14.1277356 C240.324698,10.7481018 237.559501,8 234.162349,8 C230.765197,8 228,10.749665 228,14.1277356 C228,17.5073694 230.765197,20.2554712 234.162349,20.2554712 C235.7218,20.2554712 237.149202,19.6755248 238.235473,18.7219741 L240.948793,21.7967843 C241.068267,21.9312193 241.23333,22 241.399965,22 C241.539875,22 241.681358,21.9515409 241.796116,21.8514962 C242.044496,21.6342117 242.069649,21.257481 241.851137,21.0089326 Z M234.162349,19.061188 C231.427021,19.061188 229.201029,16.8476999 229.201029,14.1277356 C229.201029,11.4062081 231.427021,9.19271996 234.163921,9.19271996 C236.900821,9.19271996 239.126813,11.4062081 239.126813,14.1277356 C239.125241,16.8476999 236.899249,19.061188 234.162349,19.061188 Z" id="Shape"></path>
                </g>
            </g>
        </g>
    </g>
</svg>