<?xml version="1.0" encoding="UTF-8"?>
<svg width="16px" height="16px" viewBox="0 0 16 16" version="1.1" xmlns="http://www.w3.org/2000/svg" xmlns:xlink="http://www.w3.org/1999/xlink">
    <title>删除</title>
    <g id="页面-1" stroke="none" stroke-width="1" fill="none" fill-rule="evenodd">
        <g id="发送通知公告" transform="translate(-1300.000000, -308.000000)" fill="#0091FF">
            <g id="表格" transform="translate(490.000000, 153.000000)">
                <g id="编组-5" transform="translate(2.000000, 146.000000)">
                    <g id="撤回" transform="translate(808.000000, 9.000000)">
                        <path d="M13.3333333,1 C13.9776655,1 14.5,1.52233446 14.5,2.16666667 L14.5,13.8333333 C14.5,14.4776655 13.9776655,15 13.3333333,15 L2.66666667,15 C2.02233446,15 1.5,14.4776655 1.5,13.8333333 L1.5,2.16666667 C1.5,1.52233446 2.02233446,1 2.66666667,1 L13.3333333,1 Z M8.7914008,11.1411092 L3.8416684,11.1411092 C3.53133688,11.1411092 3.27272727,11.4219327 3.27272727,11.7282856 C3.27272727,12.060168 3.50547592,12.3154621 3.8416684,12.3154621 L3.8416684,12.3154621 L8.7914008,12.3154621 C9.10173233,12.3154621 9.36034193,12.060168 9.36034193,11.7282856 C9.36034193,11.3964033 9.12759329,11.1411092 8.7914008,11.1411092 L8.7914008,11.1411092 Z M5.75537947,2.81852167 C5.54849178,2.61428639 5.18643833,2.61428639 4.97955065,2.81852167 L4.97955065,2.81852167 L3.42789304,4.35028625 C3.32444919,4.45240389 3.27272727,4.60558035 3.27272727,4.7332274 C3.27272727,4.88640386 3.32444919,5.01405091 3.42789304,5.11616855 L3.42789304,5.11616855 L4.97955065,6.64793312 C5.18643833,6.85216839 5.54849178,6.85216839 5.75537947,6.64793312 C5.96226715,6.44369784 5.96226715,6.0862861 5.75537947,5.88205082 L5.75537947,5.88205082 L5.10885545,5.2438156 L10.2059676,5.2438156 C11.1628232,5.24381558 11.938652,5.93310964 11.938652,6.77558016 C11.938652,7.61805069 11.1628232,8.30734475 10.2059676,8.30734475 L10.2059676,8.30734475 L3.78994648,8.30734475 C3.50547592,8.30734475 3.27272727,8.53710945 3.27272727,8.81793294 C3.27272727,9.09875643 3.50547592,9.32852112 3.78994648,9.32852112 L3.78994648,9.32852112 L10.1801067,9.32852112 C11.7317643,9.32852112 12.9730904,8.17969768 12.9730904,6.77558016 C12.9730904,5.37146264 11.7059033,4.22263921 10.1801067,4.22263921 L10.1801067,4.22263921 L5.08299449,4.22263921 L5.75537947,3.58440396 C5.96226715,3.38016868 5.96226715,3.02275695 5.75537947,2.81852167 Z" id="形状结合"></path>
                    </g>
                </g>
            </g>
        </g>
    </g>
</svg>