<?xml version="1.0" encoding="UTF-8"?>
<svg width="16px" height="16px" viewBox="0 0 16 16" version="1.1" xmlns="http://www.w3.org/2000/svg" xmlns:xlink="http://www.w3.org/1999/xlink">
    <title>画板</title>
    <g id="通用图标" stroke="none" stroke-width="1" fill="none" fill-rule="evenodd">
        <g transform="translate(-308.000000, -135.000000)" fill="#0091FF" fill-rule="nonzero" id="编组-3">
            <g transform="translate(66.000000, 30.000000)">
                <g id="编组备份-3" transform="translate(65.000000, 105.000000)">
                    <path d="M189.949451,3.04930982 C188.627371,1.72782245 186.870193,1 185.00063,1 C183.131068,1 181.373243,1.72782245 180.051053,3.04929399 C178.728863,4.37076553 178,6.12961439 178,7.99993668 C178,9.87025898 178.7285,11.6287596 180.051037,12.950706 C181.373574,14.2726524 183.130422,15 185.000158,15 C186.869893,15 188.627371,14.272969 189.948963,12.9507218 C191.270554,11.6284746 192,9.86976825 192,7.99946179 C192,6.12915532 191.272587,4.37125625 189.94942,3.04930982 L189.949451,3.04930982 Z M188.500867,8.502232 L185.500707,8.502232 L185.500707,11.5158615 C185.500707,11.7932628 185.276822,12.0181568 185.000646,12.0181568 C184.72447,12.0181568 184.50057,11.7932628 184.50057,11.5158773 L184.50057,8.50221617 L181.500236,8.50221617 C181.22406,8.50221617 181.000176,8.27733806 181.000176,7.99993668 C181.000176,7.7225353 181.22406,7.49764136 181.500236,7.49764136 L184.500554,7.49764136 L184.500554,4.48415437 C184.500554,4.20675299 184.724439,3.98187488 185.000615,3.98187488 C185.276822,3.98187488 185.500691,4.20675299 185.500691,4.48415437 L185.500691,7.49778383 L188.500851,7.49778383 C188.777027,7.49778383 189.000912,7.72267777 189.000912,8.00006332 C189.000912,8.27744887 188.777027,8.50237447 188.500851,8.50237447 L188.500851,8.502232 L188.500867,8.502232 Z" id="添加"></path>
                </g>
            </g>
        </g>
    </g>
</svg>