<?xml version="1.0" encoding="UTF-8"?>
<svg width="16px" height="16px" viewBox="0 0 16 16" version="1.1" xmlns="http://www.w3.org/2000/svg" xmlns:xlink="http://www.w3.org/1999/xlink">
    <title>画板</title>
    <g id="通用图标" stroke="none" stroke-width="1" fill="none" fill-rule="evenodd">
        <g transform="translate(-338.000000, -135.000000)" fill="#0091FF" fill-rule="nonzero" id="编组-3">
            <g transform="translate(66.000000, 30.000000)">
                <g id="编组备份-3" transform="translate(65.000000, 105.000000)">
                    <path d="M222,12.496152 L222,13.2432679 L208,13.2432679 L208,12.496152 C208,11.3923102 208.895182,10.497112 209.99904,10.497112 L212.361542,10.497112 C212.361542,10.497112 213.229812,9.64231418 213.229812,8.78076456 C213.229812,7.91921493 211.5,7.07115315 211.5,4.5 C211.5,2.56826515 213.068273,1 215,1 C216.931727,1 218.5,2.56826515 218.5,4.5 C218.5,7.07115315 216.770188,7.92596674 216.770188,8.78750059 C216.770188,9.64903444 217.638458,10.503848 217.638458,10.503848 L220.00096,10.503848 C221.104818,10.497112 222,11.3923102 222,12.496152 Z M208,15 L222,15 L222,13.9971199 L208,13.9971199 L208,15 Z" id="形状"></path>
                </g>
            </g>
        </g>
    </g>
</svg>