<?xml version="1.0" encoding="UTF-8"?>
<svg width="17px" height="16px" viewBox="0 0 17 16" version="1.1" xmlns="http://www.w3.org/2000/svg" xmlns:xlink="http://www.w3.org/1999/xlink">
    <title>画板</title>
    <g id="通用图标" stroke="none" stroke-width="1" fill="none" fill-rule="evenodd">
        <g transform="translate(-455.000000, -171.000000)" fill="#F0F0F0" id="编组-3">
            <g transform="translate(66.000000, 30.000000)">
                <g id="编组备份-4" transform="translate(65.000000, 141.000000)">
                    <path d="M328.891807,2 C330.469024,2 331.748597,3.2377592 331.748597,4.76343502 L331.748597,4.76343502 L331.748597,4.78883943 C331.748597,6.08164152 330.8367,7.16697427 329.602357,7.47888394 C330.180135,9.3080013 331.558923,10.7927478 333.336027,11.5605255 C333.64826,10.3509934 334.779012,9.45337097 336.125701,9.45337097 C337.713131,9.45337097 339,10.698187 339,12.2337423 C339,12.4962545 338.962065,12.7488872 338.892031,12.9888177 C338.8789,13.0410379 338.858474,13.0904353 338.832211,13.1355987 C338.484961,14.108023 337.59349,14.8348713 336.507969,14.9731842 C336.462738,14.9872978 336.413131,14.9957659 336.363524,14.9971773 C336.322671,14.9971773 336.280359,15 336.238047,15 C330.584287,15 326,10.5810444 326,5.11203995 C326,5.04429486 326.001459,4.97654978 326.002918,4.90880469 C326.001459,4.86928672 326,4.82976875 326,4.79025079 C326,3.63293888 326.730976,2.64216697 327.769809,2.22158289 C328.114141,2.07903594 328.49349,2 328.891807,2 Z M336.109652,3.65975464 C336.343098,3.43393768 336.722447,3.43393768 336.954433,3.65975464 L336.954433,3.65975464 L338.558596,5.20932744 C338.684351,5.31550736 338.763636,5.47171891 338.763636,5.64553252 C338.763636,5.81716348 338.68659,5.97097248 338.564352,6.07679814 L336.954433,7.63272175 C336.720988,7.8585387 336.343098,7.8585387 336.109652,7.63272175 C335.876207,7.40690479 335.876207,7.03995223 336.109652,6.81554663 L336.109652,6.81554663 L336.72,6.224 L334.10202,6.22418847 C333.803939,6.22418847 333.557859,6.01383997 333.511623,5.73924373 L333.503816,5.64553252 C333.503816,5.32656606 333.770819,5.06828792 334.100561,5.06687656 L334.100561,5.06687656 L336.719,5.066 L336.109652,4.47692976 C335.902145,4.27620357 335.879089,3.96507799 336.040483,3.7398186 Z" id="拨号"></path>
                </g>
            </g>
        </g>
    </g>
</svg>