<?xml version="1.0" encoding="UTF-8"?>
<svg width="17px" height="16px" viewBox="0 0 17 16" version="1.1" xmlns="http://www.w3.org/2000/svg" xmlns:xlink="http://www.w3.org/1999/xlink">
    <title>画板</title>
    <g id="通用图标" stroke="none" stroke-width="1" fill="none" fill-rule="evenodd">
        <g transform="translate(-394.000000, -171.000000)" fill="#F0F0F0" id="编组-3">
            <g transform="translate(66.000000, 30.000000)">
                <g id="编组备份-4" transform="translate(65.000000, 141.000000)">
                    <path d="M272.04298,1.3533962 L274.025877,5.2800207 L278.473998,5.90828062 C279.009916,5.96063562 279.170692,6.58889554 278.795549,6.95538049 L275.58004,9.9919701 L276.330325,14.2850796 C276.437509,14.7562745 275.901591,15.1751144 275.419265,14.9133395 L271.507062,12.8714947 L267.541268,14.9133395 C267.112533,15.1751144 266.576615,14.8086295 266.630207,14.2850796 L267.380492,9.9919701 L264.164984,6.95538049 C263.843433,6.58889554 264.004208,5.96063562 264.540126,5.90828062 L268.988247,5.2800207 L270.971144,1.3533962 C271.185511,0.882201265 271.828613,0.882201265 272.04298,1.3533962 Z" id="收藏"></path>
                </g>
            </g>
        </g>
    </g>
</svg>