<?xml version="1.0" encoding="UTF-8"?>
<svg width="17px" height="16px" viewBox="0 0 17 16" version="1.1" xmlns="http://www.w3.org/2000/svg" xmlns:xlink="http://www.w3.org/1999/xlink">
    <title>画板</title>
    <g id="通用图标" stroke="none" stroke-width="1" fill="none" fill-rule="evenodd">
        <g transform="translate(-513.000000, -98.000000)" fill="#9FC8FE" fill-rule="nonzero" id="编组-3">
            <g transform="translate(66.000000, 30.000000)">
                <g id="编组" transform="translate(65.000000, 68.000000)">
                    <path d="M396.969315,3.97002981 C396.953873,3.54035957 396.582387,3.13532011 396.143988,3.06125674 C396.143988,3.06125674 394.440087,2.80468614 393.48395,2.47832833 C392.289799,2.07089422 391.10825,1.17922584 391.10825,1.17922585 C390.739249,0.927273522 390.175364,0.942154612 389.831921,1.21634307 C389.831921,1.21634307 388.996477,2.02385627 387.43581,2.49320943 C386.113335,3.00036399 385.03402,3.09033474 384.863275,3.10179489 C384.846591,3.10299222 384.830084,3.1043606 384.813577,3.10692631 C384.3892,3.17295047 384.029783,3.54908299 384.022151,3.97020086 C384.022151,3.97020086 383.963224,6.17568175 384.037592,8.11193457 C384.065813,11.5770061 388.353255,15 390.521291,15 C392.653475,15 396.341356,12.6142355 396.920505,8.16136718 C397.064094,5.52125568 396.969315,3.97071401 396.969315,3.97071401 L396.969315,3.97002981 Z M395.029352,6.23965336 L395.029352,6.2198119 L390.029467,10.7296389 C389.803341,10.9349238 389.461616,10.966462 389.199171,10.806268 L389.068538,10.7000477 L386.305733,7.95679487 C386.182063,7.82855692 386.116799,7.65795104 386.124502,7.4830396 C386.132205,7.30812816 386.212234,7.14346465 386.346734,7.02578569 C386.627588,6.77911616 387.062273,6.79675193 387.32062,7.06529756 L389.591245,9.34415765 L394.093982,5.27135591 C394.374836,5.02468639 394.809521,5.04232215 395.067868,5.31086778 C395.191896,5.43833373 395.257661,5.60843207 395.250421,5.78303282 C395.24318,5.95763357 395.16354,6.12213198 395.029352,6.23965336 L395.029352,6.23965336 Z" id="审核"></path>
                </g>
            </g>
        </g>
    </g>
</svg>