<?xml version="1.0" encoding="UTF-8"?>
<svg width="17px" height="16px" viewBox="0 0 17 16" version="1.1" xmlns="http://www.w3.org/2000/svg" xmlns:xlink="http://www.w3.org/1999/xlink">
    <title>画板</title>
    <g id="通用图标" stroke="none" stroke-width="1" fill="none" fill-rule="evenodd">
        <g transform="translate(-425.000000, -98.000000)" fill="#9FC8FE" id="编组-3">
            <g transform="translate(66.000000, 30.000000)">
                <g id="编组" transform="translate(65.000000, 68.000000)">
                    <path d="M310,2 C310.552285,2 311,2.44771525 311,3 L311,13 C311,13.5522847 310.552285,14 310,14 L295,14 C294.447715,14 294,13.5522847 294,13 L294,3 C294,2.44771525 294.447715,2 295,2 L310,2 Z M299.139812,4.48032798 L298.99008,4.48032798 C297.926858,4.48032798 297.064946,5.34223969 297.064946,6.40546167 C297.064946,7.19489425 297.540112,7.87334596 298.220039,8.17041298 C296.976982,8.52136924 296.069734,9.62814241 296.069734,10.9388827 L302.069734,10.9388827 C302.069734,9.62571553 301.159124,8.51727147 299.912567,8.16670335 C300.591186,7.87133748 301.064946,7.19372588 301.064946,6.40546167 C301.064946,5.34223969 300.203034,4.48032798 299.139812,4.48032798 L299.139812,4.48032798 Z M308.254545,9.76470588 L304.812121,9.76470588 C304.510875,9.76470588 304.266667,10.0089142 304.266667,10.3101604 C304.266667,10.6114067 304.510875,10.855615 304.812121,10.855615 L304.812121,10.855615 L308.254545,10.855615 C308.555792,10.855615 308.8,10.6114067 308.8,10.3101604 C308.8,10.0089142 308.555792,9.76470588 308.254545,9.76470588 L308.254545,9.76470588 Z M308.254545,7.45454545 L304.812121,7.45454545 C304.510875,7.45454545 304.266667,7.69875377 304.266667,8 C304.266667,8.30124623 304.510875,8.54545455 304.812121,8.54545455 L304.812121,8.54545455 L308.254545,8.54545455 C308.555792,8.54545455 308.8,8.30124623 308.8,8 C308.8,7.69875377 308.555792,7.45454545 308.254545,7.45454545 L308.254545,7.45454545 Z M308.254545,5.14438503 L304.812121,5.14438503 C304.510875,5.14438503 304.266667,5.38859335 304.266667,5.68983957 C304.266667,5.9910858 304.510875,6.23529412 304.812121,6.23529412 L304.812121,6.23529412 L308.254545,6.23529412 C308.555792,6.23529412 308.8,5.9910858 308.8,5.68983957 C308.8,5.38859335 308.555792,5.14438503 308.254545,5.14438503 L308.254545,5.14438503 Z" id="联系人信息"></path>
                </g>
            </g>
        </g>
    </g>
</svg>