<?xml version="1.0" encoding="UTF-8"?>
<svg width="14px" height="14px" viewBox="0 0 14 14" version="1.1" xmlns="http://www.w3.org/2000/svg" xmlns:xlink="http://www.w3.org/1999/xlink">
    <title>down_disable</title>
    <g id="Page-1" stroke="none" stroke-width="1" fill="none" fill-rule="evenodd">
        <g id="down_disable" fill="#F0F0F0" fill-rule="nonzero">
            <path d="M7,0 C3.134375,0 0,3.134375 0,7 C0,10.865625 3.134375,14 7,14 C10.865625,14 14,10.865625 14,7 C14,3.134375 10.865625,0 7,0 Z M9.8828125,5.5265625 L7.1015625,9.3703125 C7.0515625,9.4390625 6.95,9.4390625 6.9,9.3703125 L4.11875,5.5265625 C4.059375,5.44375 4.11875,5.328125 4.2203125,5.328125 L4.953125,5.328125 C5.1125,5.328125 5.2640625,5.4046875 5.3578125,5.534375 L7,7.80625 L8.64375,5.534375 C8.7375,5.4046875 8.8875,5.328125 9.0484375,5.328125 L9.78125,5.328125 C9.8828125,5.328125 9.9421875,5.44375 9.8828125,5.5265625 Z" id="形状"></path>
        </g>
    </g>
</svg>