<?xml version="1.0" encoding="UTF-8"?>
<svg width="18px" height="16px" viewBox="0 0 18 16" version="1.1" xmlns="http://www.w3.org/2000/svg" xmlns:xlink="http://www.w3.org/1999/xlink">
    <title>画板</title>
    <g id="通用图标" stroke="none" stroke-width="1" fill="none" fill-rule="evenodd">
        <g transform="translate(-623.000000, -98.000000)" fill="#9FC8FE" fill-rule="nonzero" id="编组-3">
            <g transform="translate(66.000000, 30.000000)">
                <g id="编组" transform="translate(65.000000, 68.000000)">
                    <path d="M498.969265,6.86447251 L497.090705,6.86447251 C497.041729,6.86447251 496.991004,6.85222884 496.949025,6.82249421 C496.627186,6.59336265 496.630685,6.22255434 496.837081,6.01266284 L500.643178,2.14891016 C500.837331,1.95301143 501.153923,1.94951324 501.349825,2.14366288 L501.355072,2.14891016 L505.162919,6.01441194 C505.357071,6.21205977 505.353573,6.52864611 505.155922,6.72104665 C505.063218,6.81199963 504.937281,6.86447251 504.807846,6.86447251 L503.030735,6.86447251 L503.030735,10.6372722 C503.030735,10.7754508 502.918791,10.8873929 502.78061,10.8873929 L499.21939,10.8873929 C499.081209,10.8873929 498.969265,10.7754508 498.969265,10.6372722 L498.969265,6.86447251 Z M496.99975,11.1742446 L496.99975,12.7047035 C496.99975,12.842882 497.111694,12.9548242 497.249875,12.9548242 L504.750125,12.9548242 C504.888306,12.9548242 505.00025,12.842882 505.00025,12.7047035 L505.00025,11.1742446 C505.00025,11.036066 505.112194,10.9241239 505.250375,10.9241239 L507.749875,10.9241239 C507.888056,10.9241239 508,11.036066 508,11.1742446 L508,15.7498793 C508,15.8880579 507.888056,16 507.749875,16 L494.250125,16 C494.111944,16 494,15.8880579 494,15.7498793 L494,11.1742446 C494,11.036066 494.111944,10.9241239 494.250125,10.9241239 L496.749625,10.9241239 C496.887806,10.9241239 496.99975,11.036066 496.99975,11.1742446 Z" id="导出"></path>
                </g>
            </g>
        </g>
    </g>
</svg>