<?xml version="1.0" encoding="UTF-8"?>
<svg width="17px" height="16px" viewBox="0 0 17 16" version="1.1" xmlns="http://www.w3.org/2000/svg" xmlns:xlink="http://www.w3.org/1999/xlink">
    <title>画板</title>
    <g id="通用图标" stroke="none" stroke-width="1" fill="none" fill-rule="evenodd">
        <g transform="translate(-484.000000, -171.000000)" fill="#F0F0F0" id="编组-3">
            <g transform="translate(66.000000, 30.000000)">
                <g id="编组备份-4" transform="translate(65.000000, 141.000000)">
                    <path d="M360.018168,7.75931991 L358.165353,9.61115114 C357.968728,9.80770308 357.858259,10.0743325 357.858259,10.3523552 C357.858259,10.630378 357.968728,10.8970074 358.165353,11.0935593 L358.906269,11.8345014 C359.102814,12.031133 359.369434,12.1416062 359.647447,12.1416062 C359.92546,12.1416062 360.192081,12.031133 360.388626,11.8345014 L362.240916,9.98162218 C362.634005,10.3747048 362.854842,10.9078513 362.854842,11.4637684 C362.854842,12.0196854 362.634005,12.552832 362.240916,12.9459146 L359.647185,15.5397359 C359.033336,16.1534214 358.038286,16.1534214 357.424437,15.5397359 L354.460248,12.5754435 C353.846584,11.9615727 353.846584,10.966488 354.460248,10.3526172 L357.053979,7.75879589 C357.447048,7.36569305 357.980176,7.14484847 358.536073,7.14484847 C359.091971,7.14484847 359.625099,7.36569305 360.018168,7.75879589 L360.018168,7.75931991 Z M362.981832,9.24120409 L364.834647,7.38884886 C365.031272,7.19229692 365.141741,6.92566749 365.141741,6.64764476 C365.141741,6.36962203 365.031272,6.10299259 364.834647,5.90644066 L364.093731,5.16549857 C363.897186,4.968867 363.630566,4.85839383 363.352553,4.85839383 C363.07454,4.85839383 362.807919,4.968867 362.611374,5.16549857 L360.759084,7.0183778 C360.365995,6.62529522 360.145158,6.09214866 360.145158,5.53623162 C360.145158,4.98031457 360.365995,4.44716802 360.759084,4.05408543 L363.352815,1.46026409 C363.966664,0.846578636 364.961714,0.846578636 365.575563,1.46026409 L368.539752,4.42455647 C369.153416,5.03842728 369.153416,6.03351194 368.539752,6.64738275 L365.946021,9.24120409 C365.552952,9.63430693 365.019824,9.85515151 364.463927,9.85515151 C363.908029,9.85515151 363.374901,9.63430693 362.981832,9.24120409 Z M359.277251,9.9821462 L362.981832,6.27743571 C363.186431,6.07268551 363.518268,6.07256821 363.723011,6.27717371 C363.927754,6.48177922 363.927871,6.8136276 363.723273,7.0183778 L360.018168,10.7230883 C359.885816,10.8555384 359.692859,10.9073161 359.511981,10.858917 C359.331104,10.8105179 359.189787,10.6692952 359.141261,10.488446 C359.092736,10.3075967 359.144375,10.1145964 359.276727,9.9821462 L359.277251,9.9821462 Z" id="链接"></path>
                </g>
            </g>
        </g>
    </g>
</svg>