<?xml version="1.0" encoding="UTF-8"?>
<svg width="18px" height="16px" viewBox="0 0 18 16" version="1.1" xmlns="http://www.w3.org/2000/svg" xmlns:xlink="http://www.w3.org/1999/xlink">
    <title>画板</title>
    <g id="通用图标" stroke="none" stroke-width="1" fill="none" fill-rule="evenodd">
        <g transform="translate(-567.000000, -171.000000)" fill="#F0F0F0" fill-rule="nonzero" id="编组-3">
            <g transform="translate(66.000000, 30.000000)">
                <g id="编组备份-4" transform="translate(65.000000, 141.000000)">
                    <path d="M441.712977,4.75 C441.712977,2.6875 443.456021,1 445.586407,1 C447.716794,1 449.459837,2.6875 449.459837,4.75 L449.459837,4.75 L449.459837,7.28125 L449.934807,7.28125 C450.515821,7.28125 450.903164,7.75 451,8.21875 L451,8.21875 L451,15.0625 C451,15.625 450.612657,16 450.031642,16 L450.031642,16 L440.968358,16 C440.387343,16 440,15.625 440,15.0625 L440,15.0625 L440,8.21875 C440,7.65625 440.387343,7.28125 440.968358,7.28125 L440.968358,7.28125 L441.712977,7.28125 Z M445.494853,9.77972003 C444.913839,9.77972003 444.332824,10.24847 444.332824,10.90472 C444.332824,11.37347 444.623332,11.74847 445.010675,11.93597 L445.010675,11.93597 L445.010675,13.43597 C445.010675,13.43597 445.010675,13.52972 445.10751,13.52972 L445.10751,13.52972 L445.979032,13.52972 C445.979032,13.52972 446.075868,13.52972 446.075868,13.43597 L446.075868,13.43597 L446.075868,11.93597 C446.463211,11.74847 446.753718,11.37347 446.656882,10.90472 C446.656882,10.34222 446.172704,9.77972003 445.494853,9.77972003 Z M447.910465,7.28125 L447.910465,4.84375 C447.910465,3.53125 446.845272,2.5 445.489571,2.5 C444.133871,2.5 443.068678,3.53125 443.068678,4.84375 L443.068678,4.84375 L443.068678,7.28125 L447.910465,7.28125 Z" id="锁定"></path>
                </g>
            </g>
        </g>
    </g>
</svg>