<?xml version="1.0" encoding="UTF-8"?>
<svg width="18px" height="16px" viewBox="0 0 18 16" version="1.1" xmlns="http://www.w3.org/2000/svg" xmlns:xlink="http://www.w3.org/1999/xlink">
    <title>监控</title>
    <g id="通用图标" stroke="none" stroke-width="1" fill="none" fill-rule="evenodd">
        <g id="表格通用图标" transform="translate(-680.000000, -134.000000)" fill="#0091FF">
            <g id="编组-3" transform="translate(66.000000, 30.000000)">
                <g id="编组备份" transform="translate(65.000000, 104.000000)">
                    <path d="M553.406667,10.7779443 L551.703333,10.7779443 L551.703333,8.64877767 L550,8.33447212 L550,15.1944442 L551.703333,14.6428887 L551.703333,12.2764721 L554.461111,12.2764721 L555.921111,10.3054721 L553.974444,9.27941655 L553.406667,10.7779443 Z M562.247778,11.1713332 L566.222222,8.72583323 L553.893333,1 L552.433333,1 L550.486667,3.91797218 L550.486667,4.94402772 L561.355555,11.2524443 L562.247778,11.1713332 Z M560.787778,11.7228887 L551.46,5.88897216 L550.486667,6.9150277 L561.355555,13.2234443 L562.328889,13.2234443 L562.815555,12.7489443 L563.302222,11.3294999 L561.842222,12.3555554 C561.191305,11.8810554 560.787778,11.7228887 560.787778,11.7228887 L560.787778,11.7228887 Z" id="监控"></path>
                </g>
            </g>
        </g>
    </g>
</svg>