<?xml version="1.0" encoding="UTF-8"?>
<svg width="16px" height="16px" viewBox="0 0 16 16" version="1.1" xmlns="http://www.w3.org/2000/svg" xmlns:xlink="http://www.w3.org/1999/xlink">
    <title>画板</title>
    <g id="通用图标" stroke="none" stroke-width="1" fill="none" fill-rule="evenodd">
        <g transform="translate(-279.000000, -98.000000)" fill="#9FC8FE" fill-rule="nonzero" id="编组-3">
            <g transform="translate(66.000000, 30.000000)">
                <g id="编组" transform="translate(65.000000, 68.000000)">
                    <path d="M149,7.58822404 L155.588232,7.58822404 L155.588232,1 L149,1 L149,7.58822404 Z M150.64707,2.64705601 L153.941178,2.64705601 L153.941178,5.94116803 L150.64707,5.94116803 L150.64707,2.64705601 Z M156.411768,1 L156.411768,7.58823998 L163,7.58823998 L163,1 L156.411768,1 Z M161.35293,5.94116803 L158.058822,5.94116803 L158.058822,2.64705601 L161.35293,2.64705601 L161.35293,5.94116803 Z M151.470589,5.117648 L153.117643,5.117648 L153.117643,3.47057604 L151.470589,3.47057604 L151.470589,5.117648 Z M149,15 L155.588232,15 L155.588232,8.41176002 L149,8.41176002 L149,15 Z M150.64707,10.058816 L153.941178,10.058816 L153.941178,13.352928 L150.64707,13.352928 L150.64707,10.058816 Z M160.529411,3.47057604 L158.882341,3.47057604 L158.882341,5.11763205 L160.529411,5.11763205 L160.529411,3.47057604 L160.529411,3.47057604 Z M156.411768,15 L158.058822,15 L158.058822,13.352944 L156.411768,13.352944 L156.411768,15 Z M158.058822,10.058816 L158.058822,13.352928 L159.705876,13.352928 L159.705876,10.058816 L158.058822,10.058816 Z M161.35293,13.352944 L159.705876,13.352944 L159.705876,15 L162.999984,15 L162.999984,11.705872 L161.35293,11.705872 L161.35293,13.352944 Z M161.35293,10.058816 L162.999984,10.058816 L162.999984,8.41176002 L161.35293,8.41176002 L161.35293,10.058816 Z M156.411768,8.41176002 L156.411768,10.058816 L158.058822,10.058816 L158.058822,8.41176002 L156.411768,8.41176002 Z M151.470589,12.529408 L153.117643,12.529408 L153.117643,10.882352 L151.470589,10.882352 L151.470589,12.529408 Z" id="二维码"></path>
                </g>
            </g>
        </g>
    </g>
</svg>