<?xml version="1.0" encoding="UTF-8"?>
<svg width="18px" height="16px" viewBox="0 0 18 16" version="1.1" xmlns="http://www.w3.org/2000/svg" xmlns:xlink="http://www.w3.org/1999/xlink">
    <title>画板</title>
    <g id="通用图标" stroke="none" stroke-width="1" fill="none" fill-rule="evenodd">
        <g transform="translate(-595.000000, -135.000000)" fill="#0091FF" fill-rule="nonzero" id="编组-3">
            <g transform="translate(66.000000, 30.000000)">
                <g id="编组备份-3" transform="translate(65.000000, 105.000000)">
                    <path d="M472.43291,3.91612881 C472.370727,3.91442046 472.309793,3.91783715 472.247859,3.91808119 L472.247859,2.48893303 C472.247859,2.09723514 471.799342,1.865145 471.467699,2.08503272 L466.218847,5.56858137 C466.081957,5.65943592 466,5.81064899 466,5.97235965 C466,6.13407032 466.081957,6.28528339 466.218847,6.37613794 L471.468198,9.85944253 C471.799842,10.0795743 472.248359,9.84748415 472.248359,9.45554223 L472.248359,8.01028686 C474.777387,7.98026889 476.880624,9.70544792 476.982265,11.9362955 C477.060181,13.6475638 475.937139,15.1645694 474.272181,15.8652327 C474.241964,15.8779232 474.210248,15.9028162 474.212995,15.9535783 C474.215242,15.9950665 474.258446,16.0072689 474.296904,15.9960427 C476.961787,15.2302184 478.923675,12.979847 478.997846,10.2716405 C479.090995,6.85886591 476.151908,4.01350417 472.43291,3.91612881 Z" id="撤回"></path>
                </g>
            </g>
        </g>
    </g>
</svg>