<?xml version="1.0" encoding="UTF-8"?>
<svg width="18px" height="16px" viewBox="0 0 18 16" version="1.1" xmlns="http://www.w3.org/2000/svg" xmlns:xlink="http://www.w3.org/1999/xlink">
    <title>画板</title>
    <g id="通用图标" stroke="none" stroke-width="1" fill="none" fill-rule="evenodd">
        <g transform="translate(-651.000000, -171.000000)" fill="#F0F0F0" id="编组-3">
            <g transform="translate(66.000000, 30.000000)">
                <g id="编组备份-4" transform="translate(65.000000, 141.000000)">
                    <path d="M532.001993,10.6380132 C532.104277,10.5016123 532.308828,10.5016123 532.445229,10.6380132 L532.445229,10.6380132 L535.616411,13.8091992 C536.127863,14.3206523 536.127863,15.1048904 535.616411,15.6163602 C535.104942,16.1278799 534.320688,16.1278799 533.809169,15.6163602 L533.809169,15.6163602 L530.638053,12.4452409 C530.501669,12.3429736 530.501669,12.1383557 530.638053,12.0019548 L530.638053,12.0019548 Z M532.728874,2.01479054 C533.481407,1.90708548 533.732257,2.40973836 533.338099,2.80468618 L533.338099,2.80468618 L532.621402,3.52280184 C531.833016,4.31276767 531.833016,5.56944375 532.621402,6.35933939 C533.4097,7.14930522 534.663951,7.14930522 535.452267,6.35933939 L535.452267,6.35933939 L536.168964,5.64122373 C536.563122,5.24627591 537.064804,5.49759358 536.993098,6.17985435 C536.849773,6.9338249 536.527269,7.65194056 535.953897,8.22644361 C535.022256,9.16002205 533.768075,9.48311969 532.585549,9.23180203 L532.585549,9.23180203 L526.422102,15.4075651 C525.633786,16.1974783 524.379623,16.1974783 523.591237,15.4075651 C522.802921,14.617687 522.802921,13.3609407 523.591237,12.5710276 L523.591237,12.5710276 L529.718831,6.43118957 C529.468016,5.24627591 529.790537,3.98958228 530.686325,3.05600384 C531.259697,2.48158854 531.976377,2.12249561 532.728874,2.01479054 Z M525.454607,13.540496 C525.203792,13.2891432 524.773781,13.2891432 524.522966,13.540496 C524.272063,13.7918137 524.272063,14.2226866 524.522966,14.4740744 C524.773781,14.7253921 525.203792,14.7253921 525.454607,14.4740744 C525.741275,14.2226866 525.741275,13.7918137 525.454607,13.540496 Z M523.886521,3 L525.455095,4.12520685 L525.966548,5.07996267 L528.182975,7.29639283 L527.26232,8.1829149 L525.080027,5.9665514 L524.125272,5.48914849 L523,3.92065561 L523.886521,3 Z" id="设置"></path>
                </g>
            </g>
        </g>
    </g>
</svg>