<?xml version="1.0" encoding="UTF-8"?>
<svg width="16px" height="16px" viewBox="0 0 16 16" version="1.1" xmlns="http://www.w3.org/2000/svg" xmlns:xlink="http://www.w3.org/1999/xlink">
    <title>画板</title>
    <g id="通用图标" stroke="none" stroke-width="1" fill="none" fill-rule="evenodd">
        <g transform="translate(-221.000000, -98.000000)" fill="#9FC8FE" fill-rule="nonzero" id="编组-3">
            <g transform="translate(66.000000, 30.000000)">
                <g id="编组" transform="translate(65.000000, 68.000000)">
                    <path d="M98,1 C101.865993,1 105,4.13400675 105,8 C105,11.8659932 101.865993,15 98,15 C94.1340068,15 91,11.8659932 91,8 C91,4.13400675 94.1340068,1 98,1 Z M96.7268066,4.8159386 C96.3125931,4.8159386 95.9768066,5.15172504 95.9768066,5.5659386 L95.9768066,5.5659386 L95.9768066,10.763163 C95.9768066,10.9112317 96.0206352,11.0559875 96.1027689,11.1791881 C96.3325333,11.5238346 96.7981853,11.616965 97.1428318,11.3872007 L97.1428318,11.3872007 L101.04075,8.7885885 C101.123139,8.73366236 101.193836,8.66296514 101.248763,8.58057593 C101.478527,8.23592941 101.385397,7.7702774 101.04075,7.54051306 L101.04075,7.54051306 L97.1428318,4.94190088 C97.0196311,4.85976712 96.8748754,4.8159386 96.7268066,4.8159386 Z" id="启用"></path>
                </g>
            </g>
        </g>
    </g>
</svg>