<?xml version="1.0" encoding="UTF-8"?>
<svg width="16px" height="16px" viewBox="0 0 16 16" version="1.1" xmlns="http://www.w3.org/2000/svg" xmlns:xlink="http://www.w3.org/1999/xlink">
    <title>画板</title>
    <g id="通用图标" stroke="none" stroke-width="1" fill="none" fill-rule="evenodd">
        <g transform="translate(-250.000000, -98.000000)" fill="#9FC8FE" fill-rule="nonzero" id="编组-3">
            <g transform="translate(66.000000, 30.000000)">
                <g id="编组" transform="translate(65.000000, 68.000000)">
                    <path d="M127,1 C130.865993,1 134,4.13400675 134,8 C134,11.8659932 130.865993,15 127,15 C123.134007,15 120,11.8659932 120,8 C120,4.13400675 123.134007,1 127,1 Z M125.5,5 C125.223858,5 125,5.22385763 125,5.5 L125,5.5 L125,10.5 C125,10.7761424 125.223858,11 125.5,11 C125.776142,11 126,10.7761424 126,10.5 L126,10.5 L126,5.5 C126,5.22385763 125.776142,5 125.5,5 Z M128.5,5 C128.223858,5 128,5.22385763 128,5.5 L128,5.5 L128,10.5 C128,10.7761424 128.223858,11 128.5,11 C128.776142,11 129,10.7761424 129,10.5 L129,10.5 L129,5.5 C129,5.22385763 128.776142,5 128.5,5 Z" id="停用"></path>
                </g>
            </g>
        </g>
    </g>
</svg>