<?xml version="1.0" encoding="UTF-8"?>
<svg width="18px" height="16px" viewBox="0 0 18 16" version="1.1" xmlns="http://www.w3.org/2000/svg" xmlns:xlink="http://www.w3.org/1999/xlink">
    <title>画板</title>
    <g id="通用图标" stroke="none" stroke-width="1" fill="none" fill-rule="evenodd">
        <g transform="translate(-540.000000, -135.000000)" fill="#0091FF" fill-rule="nonzero" id="编组-3">
            <g transform="translate(66.000000, 30.000000)">
                <g id="编组备份-3" transform="translate(65.000000, 105.000000)">
                    <path d="M417.060306,4.75 C417.060306,2.6875 418.846737,1 421.030153,1 C423.213569,1 425,2.6875 425,4.75 L425,4.75 L425,7.28125 L423.412061,7.28125 L423.412061,4.84375 C423.412061,3.53125 422.320353,2.5 420.930907,2.5 C419.54146,2.5 418.449752,3.53125 418.449752,4.84375 L418.449752,4.84375 L418.449752,7.28125 L422.182103,7.28125 C422.77758,7.28125 423.174565,7.75 423.273811,8.21875 L423.273811,8.21875 L423.273811,15.0625 C423.273811,15.625 422.876826,16 422.281349,16 L422.281349,16 L412.992462,16 C412.396985,16 412,15.625 412,15.0625 L412,15.0625 L412,8.21875 C412,7.65625 412.396985,7.28125 412.992462,7.28125 L412.992462,7.28125 L417.060306,7.28125 Z M417.631631,9.77972003 C417.036154,9.77972003 416.440676,10.24847 416.440676,10.90472 C416.440676,11.37347 416.738415,11.74847 417.1354,11.93597 L417.1354,11.93597 L417.1354,13.43597 C417.1354,13.43597 417.1354,13.52972 417.234646,13.52972 L417.234646,13.52972 L418.127861,13.52972 C418.127861,13.52972 418.227108,13.52972 418.227108,13.43597 L418.227108,13.43597 L418.227108,11.93597 C418.624092,11.74847 418.921831,11.37347 418.822585,10.90472 C418.822585,10.34222 418.326354,9.77972003 417.631631,9.77972003 Z" id="解锁"></path>
                </g>
            </g>
        </g>
    </g>
</svg>