<?xml version="1.0" encoding="UTF-8"?>
<svg width="14px" height="14px" viewBox="0 0 14 14" version="1.1" xmlns="http://www.w3.org/2000/svg" xmlns:xlink="http://www.w3.org/1999/xlink">
    <title>up_disable</title>
    <g id="Page-1" stroke="none" stroke-width="1" fill="none" fill-rule="evenodd">
        <g id="up_disable" fill="#F0F0F0" fill-rule="nonzero">
            <path d="M7,0 C3.134375,0 0,3.134375 0,7 C0,10.865625 3.134375,14 7,14 C10.865625,14 14,10.865625 14,7 C14,3.134375 10.865625,0 7,0 Z M9.78125,8.671875 L9.0484375,8.671875 C8.8890625,8.671875 8.7375,8.5953125 8.64375,8.465625 L7,6.19375 L5.35625,8.465625 C5.2625,8.5953125 5.1125,8.671875 4.9515625,8.671875 L4.21875,8.671875 C4.1171875,8.671875 4.0578125,8.55625 4.1171875,8.4734375 L6.8984375,4.6296875 C6.9484375,4.5609375 7.05,4.5609375 7.1,4.6296875 L9.88125,8.4734375 C9.9421875,8.55625 9.8828125,8.671875 9.78125,8.671875 Z" id="形状"></path>
        </g>
    </g>
</svg>