<?xml version="1.0" encoding="UTF-8"?>
<svg width="19px" height="16px" viewBox="0 0 19 16" version="1.1" xmlns="http://www.w3.org/2000/svg" xmlns:xlink="http://www.w3.org/1999/xlink">
    <title>画板备份</title>
    <g id="通用图标" stroke="none" stroke-width="1" fill="none" fill-rule="evenodd">
        <g transform="translate(-189.000000, -171.000000)" fill="#F0F0F0" fill-rule="nonzero" id="编组-3">
            <g transform="translate(66.000000, 30.000000)">
                <g id="编组备份-4" transform="translate(65.000000, 141.000000)">
                    <path d="M67.5,2 C61.01875,2 59,8 59,8 C59,8 61.23125,14 67.5,14 C73.76875,14 76,8 76,8 C76,8 73.98125,2 67.5,2 Z M67.5,5.17647059 C69.0583333,5.17647059 70.3333333,6.44705882 70.3333333,8 C70.3333333,9.55294118 69.0583333,10.8235294 67.5,10.8235294 C65.9416667,10.8235294 64.6666667,9.55294118 64.6666667,8 C64.6666667,6.44705882 65.9416667,5.17647059 67.5,5.17647059 Z M67.5,5.88235294 C66.3263949,5.88235294 65.375,6.83045582 65.375,8 C65.375,9.16954418 66.3263949,10.1176471 67.5,10.1176471 C68.6736051,10.1176471 69.625,9.16954418 69.625,8 C69.625,6.83045582 68.6736051,5.88235294 67.5,5.88235294 Z" id="查看"></path>
                </g>
            </g>
        </g>
    </g>
</svg>