<?xml version="1.0" encoding="UTF-8"?>
<svg width="80px" height="80px" viewBox="0 0 80 80" version="1.1" xmlns="http://www.w3.org/2000/svg" xmlns:xlink="http://www.w3.org/1999/xlink">
    <title>切图</title>
    <defs>
        <linearGradient x1="50%" y1="0%" x2="50%" y2="99.9155673%" id="linearGradient-1">
            <stop stop-color="#B8E1FF" offset="0%"></stop>
            <stop stop-color="#0091FF" offset="100%"></stop>
        </linearGradient>
    </defs>
    <g id="登录页" stroke="none" stroke-width="1" fill="none" fill-rule="evenodd">
        <g id="社会治理欢迎页" transform="translate(-752.000000, -943.000000)" fill-rule="nonzero">
            <g id="编组备份" transform="translate(752.000000, 943.000000)">
                <path d="M0,39.7867193 C0,54.001145 7.58330549,67.1358161 19.8933592,74.243029 C32.2034129,81.3502419 47.3700246,81.3502419 59.6800783,74.243029 C71.990132,67.1358161 79.5734375,54.001145 79.5734375,39.7867193 C79.5734375,25.5722937 71.990132,12.4376226 59.6800783,5.33040968 C47.3700246,-1.77680323 32.2034129,-1.77680323 19.8933592,5.33040968 C7.58330549,12.4376226 0,25.5722937 0,39.7867193 L0,39.7867193 Z" id="路径" fill="url(#linearGradient-1)"></path>
                <g id="编组" transform="translate(18.000000, 18.000000)" fill="#FFFFFF">
                    <path d="M27.8935714,17.2607143 C32.0200715,21.4210135 32.0200715,28.130415 27.8935714,32.2907143 L18.315,41.8757143 C14.1553931,46.009977 7.4381783,46.009977 3.27857142,41.8757143 L3.10178571,41.6957143 C-1.03386228,37.5379326 -1.03386228,30.8202816 3.10178571,26.6625 L9.80678571,19.9671429 C9.77464283,21.9342858 10.1282143,23.9207143 10.8835714,25.7753571 L6.55071429,30.1082143 C4.30438435,32.3560637 4.30438435,35.9989363 6.55071429,38.2467857 L6.73071429,38.4235714 C8.98112936,40.6667322 12.6220849,40.6667322 14.8725,38.4235714 L24.4542857,28.845 C26.6992136,26.5953155 26.6992136,22.9528988 24.4542857,20.7032143 L24.2710714,20.5264286 C23.9278816,20.1849095 23.5422225,19.8889134 23.1235714,19.6457143 L26.6271429,16.1421429 C27.0032143,16.4282143 27.3728572,16.7367858 27.7167857,17.0839286 L27.8935714,17.2575 L27.8935714,17.2607143 Z M41.8757143,3.27857142 L41.6892857,3.10178571 C37.5315041,-1.03386228 30.8138531,-1.03386228 26.6560714,3.10178571 L17.0775,12.6835714 C12.9397201,16.8417271 12.9397201,23.5618443 17.0775,27.72 L17.2542857,27.8935714 C17.6014286,28.2310714 17.9678571,28.5428571 18.3439286,28.8353571 L21.8475,25.3253571 C21.4304078,25.0812893 21.0459179,24.7853617 20.7032143,24.4446429 L20.5232143,24.2710714 C18.2779168,22.0202851 18.2779168,18.3768577 20.5232143,16.1260714 L30.1082143,6.5475 C32.3545924,4.30367944 35.993979,4.30367944 38.2403571,6.5475 L38.4203571,6.72428571 C40.665285,8.9739702 40.665285,12.6163869 38.4203571,14.8660714 L34.0939286,19.1989286 C34.8460715,21.0567857 35.1996429,23.0367857 35.1642857,25.0103571 L41.8692857,18.3117857 C46.0049337,14.1540041 46.0049337,7.43635306 41.8692857,3.27857142 L41.8757143,3.27857142 Z" id="形状"></path>
                </g>
            </g>
        </g>
    </g>
</svg>