<?xml version="1.0" encoding="UTF-8"?>
<svg width="382px" height="264px" viewBox="0 0 382 264" version="1.1" xmlns="http://www.w3.org/2000/svg" xmlns:xlink="http://www.w3.org/1999/xlink">
    <title>编组 2</title>
    <defs>
        <rect id="path-1" x="0" y="0" width="382" height="264" rx="8"></rect>
        <filter x="-3.5%" y="-4.0%" width="107.1%" height="110.2%" filterUnits="objectBoundingBox" id="filter-3">
            <feMorphology radius="2" operator="dilate" in="SourceAlpha" result="shadowSpreadOuter1"></feMorphology>
            <feOffset dx="0" dy="3" in="shadowSpreadOuter1" result="shadowOffsetOuter1"></feOffset>
            <feGaussianBlur stdDeviation="2" in="shadowOffsetOuter1" result="shadowBlurOuter1"></feGaussianBlur>
            <feColorMatrix values="0 0 0 0 0.415686275   0 0 0 0 0.71372549   0 0 0 0 0.905882353  0 0 0 0.231561407 0" type="matrix" in="shadowBlurOuter1"></feColorMatrix>
        </filter>
        <linearGradient x1="74.7418575%" y1="31.2222073%" x2="0%" y2="80.2469136%" id="linearGradient-4">
            <stop stop-color="#FF6262" offset="0%"></stop>
            <stop stop-color="#FFADAD" offset="100%"></stop>
        </linearGradient>
    </defs>
    <g id="登录页" stroke="none" stroke-width="1" fill="none" fill-rule="evenodd">
        <g id="社会治理欢迎页备份-3" transform="translate(-1387.000000, -249.000000)">
            <g id="编组-7" transform="translate(1387.000000, 249.000000)">
                <g id="undraw_performance_overview_p9bm">
                    <mask id="mask-2" fill="white">
                        <use xlink:href="#path-1"></use>
                    </mask>
                    <g id="蒙版" opacity="0.899414062">
                        <use fill="black" fill-opacity="1" filter="url(#filter-3)" xlink:href="#path-1"></use>
                        <use fill="#FFFFFF" fill-rule="evenodd" xlink:href="#path-1"></use>
                    </g>
                    <circle id="椭圆形" fill-opacity="0.0632102273" fill="#0091FF" opacity="0.759486607" mask="url(#mask-2)" cx="318.5" cy="-60.5" r="208.5"></circle>
                    <circle id="椭圆形-copy-7" fill-opacity="0.0632102273" fill="#0091FF" opacity="0.759486607" mask="url(#mask-2)" transform="translate(19.000000, 438.000000) scale(-1, 1) translate(-19.000000, -438.000000) " cx="19" cy="438" r="253"></circle>
                </g>
                <path d="M242.185002,139.667683 L232.070249,139.667683 C231.606366,139.674282 231.151539,139.795559 230.747259,140.020449 L226.186732,126.446888 C224.726781,118.723478 219.227922,115 212.474554,115 L169.637655,115 C161.880389,115 157.169787,120.002074 155.919649,126.439689 L151.335809,140.053566 C150.91209,139.803682 150.428999,139.669057 149.935596,139.663364 L139.816472,139.663364 C139.068238,139.663361 138.350756,139.957584 137.822359,140.481103 C137.293961,141.004621 136.998083,141.714403 137.000009,142.453813 L137.000009,144.868458 C137.000009,145.607004 137.296148,146.315452 137.824335,146.837953 C138.352523,147.360454 139.069116,147.654206 139.816472,147.654588 L143.64848,148.301085 C142.437682,150.636538 141.754332,153.310358 141.754332,156.420456 L140.329349,172.44034 C140.330622,172.914116 140.362255,173.387337 140.424057,173.857162 C140.364652,174.155574 140.332951,174.458723 140.329349,174.762834 L140.329349,194.035362 C140.330958,196.777721 142.581052,199 145.356128,199 L153.02743,199 C155.802034,199 158.051294,196.777255 158.051295,194.035362 L158.051295,187.843963 L224.036145,187.843963 L224.036145,194.035362 C224.036145,195.352564 224.565843,196.615776 225.508631,197.546909 C226.451419,198.478042 227.730007,199 229.062924,199 L236.73714,199 C239.51141,199 241.7602,196.776926 241.761004,194.035362 L241.761004,174.754195 C241.758274,174.450654 241.72755,174.147991 241.669211,173.849963 C241.727428,173.379833 241.758077,172.906768 241.761004,172.43314 L240.344764,156.411817 C240.344764,153.29308 239.649757,150.619259 238.438959,148.273727 L242.182088,147.645948 C242.929563,147.646331 243.646534,147.353067 244.175079,146.830754 C244.703623,146.30844 245.000009,145.599922 245.000009,144.861259 L245.000009,142.452373 C245.000009,141.713593 244.704135,141.004852 244.175507,140.482455 C243.646878,139.960059 242.929682,139.666918 242.182088,139.667683 L242.185002,139.667683 Z M159.29269,136.81676 L162.643876,128.007696 L162.690501,127.800356 C163.022706,126.019249 163.765795,125.6996 164.867315,124.323094 L217.29589,124.323094 C218.404696,125.739917 219.096788,126.097002 219.401309,127.778758 L222.803491,136.81676 L224.047801,141.723804 C223.765136,145.314815 219.398395,148.151339 215.766001,148.151339 L166.327267,148.151339 C162.684673,148.151339 158.325218,145.314815 158.045466,141.723804 L159.29269,136.81676 Z M161.63852,178.705171 C158.559076,178.705171 155.782908,176.871873 154.604729,174.060267 C153.426549,171.24866 154.078421,168.012542 156.256333,165.861129 C158.434246,163.709716 161.70922,163.066768 164.553917,164.232134 C167.398614,165.397501 169.252719,168.141641 169.251541,171.184782 C169.251154,173.179695 168.448853,175.09275 167.021135,176.503096 C165.593417,177.913443 163.657232,178.705553 161.63852,178.705171 L161.63852,178.705171 Z M204.159242,173.15595 C204.159242,173.749633 203.920489,174.318979 203.495547,174.738641 C203.070605,175.158303 202.494314,175.393875 201.893548,175.393493 L180.534838,175.393493 C179.934207,175.393875 179.358064,175.158257 178.933354,174.738554 C178.508643,174.31885 178.270215,173.7495 178.270601,173.15595 L178.270601,166.868081 C178.270601,165.63232 179.284335,164.630536 180.534838,164.630536 L201.893548,164.630536 C202.494432,164.629773 203.070949,164.865222 203.495975,165.284967 C203.921,165.704712 204.159629,166.274281 204.159242,166.868081 L204.159242,173.15595 Z M220.45329,178.705171 C217.373846,178.705753 214.597323,176.872981 213.418599,174.061597 C212.239874,171.250214 212.891119,168.013973 215.068615,165.862147 C217.246111,163.710322 220.52096,163.066755 223.365883,164.231583 C226.210806,165.396412 228.065443,168.140201 228.064853,171.183342 C228.064081,173.178637 227.261256,175.091906 225.832991,176.502253 C224.404726,177.9126 222.468018,178.704495 220.448919,178.703731 L220.45329,178.705171 Z" id="形状" fill="url(#linearGradient-4)" fill-rule="nonzero"></path>
            </g>
        </g>
    </g>
</svg>