<?xml version="1.0" encoding="UTF-8"?>
<svg width="382px" height="264px" viewBox="0 0 382 264" version="1.1" xmlns="http://www.w3.org/2000/svg" xmlns:xlink="http://www.w3.org/1999/xlink">
    <title>编组 2</title>
    <defs>
        <rect id="path-1" x="0" y="0" width="382" height="264" rx="8"></rect>
        <filter x="-3.5%" y="-4.0%" width="107.1%" height="110.2%" filterUnits="objectBoundingBox" id="filter-3">
            <feMorphology radius="2" operator="dilate" in="SourceAlpha" result="shadowSpreadOuter1"></feMorphology>
            <feOffset dx="0" dy="3" in="shadowSpreadOuter1" result="shadowOffsetOuter1"></feOffset>
            <feGaussianBlur stdDeviation="2" in="shadowOffsetOuter1" result="shadowBlurOuter1"></feGaussianBlur>
            <feColorMatrix values="0 0 0 0 0.415686275   0 0 0 0 0.71372549   0 0 0 0 0.905882353  0 0 0 0.231561407 0" type="matrix" in="shadowBlurOuter1"></feColorMatrix>
        </filter>
        <linearGradient x1="100%" y1="12.2804519%" x2="5.52559511%" y2="80.25026%" id="linearGradient-4">
            <stop stop-color="#8795FF" offset="0%"></stop>
            <stop stop-color="#717AFF" stop-opacity="0.563100962" offset="100%"></stop>
        </linearGradient>
        <linearGradient x1="100%" y1="46.6924355%" x2="5.52559511%" y2="52.652595%" id="linearGradient-5">
            <stop stop-color="#8795FF" offset="0%"></stop>
            <stop stop-color="#717AFF" stop-opacity="0.563100962" offset="100%"></stop>
        </linearGradient>
    </defs>
    <g id="登录页" stroke="none" stroke-width="1" fill="none" fill-rule="evenodd">
        <g id="社会治理欢迎页备份-3" transform="translate(-563.000000, -543.000000)">
            <g id="编组-10" transform="translate(563.000000, 543.000000)">
                <g id="undraw_performance_overview_p9bm">
                    <mask id="mask-2" fill="white">
                        <use xlink:href="#path-1"></use>
                    </mask>
                    <g id="蒙版" opacity="0.899414062">
                        <use fill="black" fill-opacity="1" filter="url(#filter-3)" xlink:href="#path-1"></use>
                        <use fill="#FFFFFF" fill-rule="evenodd" xlink:href="#path-1"></use>
                    </g>
                    <circle id="椭圆形" fill-opacity="0.0632102273" fill="#0091FF" opacity="0.759486607" mask="url(#mask-2)" cx="318.5" cy="-60.5" r="208.5"></circle>
                    <circle id="椭圆形-copy-7" fill-opacity="0.0632102273" fill="#0091FF" opacity="0.759486607" mask="url(#mask-2)" transform="translate(19.000000, 438.000000) scale(-1, 1) translate(-19.000000, -438.000000) " cx="19" cy="438" r="253"></circle>
                </g>
                <g id="编组" transform="translate(145.000000, 115.000000)" fill-rule="nonzero">
                    <g>
                        <path d="M81.1535061,71.3541931 L10.5842428,71.3541931 C5.02909334,71.4422804 0.377554831,67.1653512 0,61.6223469 L0,9.73318263 C0.377554831,4.19017828 5.02909334,-0.0867509485 10.5842428,0.00133642335 L81.1535061,0.00133642335 C86.7079164,-0.0848100451 91.3583219,4.19107746 91.7377489,9.73318263 L91.7377489,61.6223469 C91.3601941,67.1653512 86.7086556,71.4422804 81.1535061,71.3541931 Z M36.2440556,59.0689795 C38.1600745,58.9030541 39.6588744,57.3471104 39.7530245,55.4262264 L39.7530245,33.4550355 C39.7954197,32.1675698 39.1327618,30.9593367 38.0243136,30.3030533 C36.9158654,29.6467699 35.5378442,29.6467699 34.4293959,30.3030533 C33.3209477,30.9593367 32.6582899,32.1675698 32.7006851,33.4550355 L32.7006851,55.4262264 C32.6243009,56.3949471 32.9667633,57.3499515 33.6413416,58.0493788 C34.3159198,58.7488061 35.2579169,59.125576 36.228766,59.0842691 L36.2440556,59.0689795 Z M51.7668472,59.0689795 C52.7373388,59.1090372 53.6785822,58.7318756 54.3528761,58.0327432 C55.02717,57.3336107 55.3700511,56.3793452 55.2949282,55.4109367 L55.2949282,44.4329861 C55.3554425,43.1333436 54.6965424,41.9056702 53.580024,41.2377486 C52.4635056,40.5698269 51.0701889,40.5698269 49.9536705,41.2377486 C48.8371521,41.9056702 48.178252,43.1333436 48.2387663,44.4329861 L48.2387663,55.4262264 C48.1624906,56.3952699 48.5048576,57.3505861 49.1792881,58.0505909 C49.8537186,58.7505957 50.795637,59.1282647 51.7668472,59.0880915 L51.7668472,59.0689795 Z M67.2896389,59.0689795 C68.2604881,59.1102863 69.2024851,58.7335165 69.8770633,58.0340892 C70.5516416,57.3346618 70.894104,56.3796574 70.8177197,55.4109367 L70.8177197,51.7490716 C70.8601149,50.4616059 70.1974571,49.2533728 69.0890089,48.5970894 C67.9805607,47.940806 66.6025394,47.940806 65.4940912,48.5970894 C64.385643,49.2533728 63.7229852,50.4616059 63.7653803,51.7490716 L63.7653803,55.4262264 C63.689097,56.3942556 64.0310581,57.3486038 64.7047736,58.0478942 C65.3784891,58.7471845 66.3194404,59.1244492 67.2896389,59.0842691 L67.2896389,59.0689795 Z M20.7174417,59.0689795 C22.645706,58.9096541 24.1560243,57.343701 24.2455225,55.4109367 L24.2455225,22.4770849 C24.3219067,21.5083642 23.9794444,20.5533598 23.3048661,19.8539325 C22.6302879,19.1545052 21.6882909,18.7777353 20.7174417,18.8190421 C19.7489046,18.7823513 18.8107914,19.1609909 18.1390813,19.8597154 C17.4673713,20.5584398 17.1259962,21.5107463 17.2008279,22.4770849 L17.2008279,55.4262264 C17.1244437,56.3949471 17.4669061,57.3499515 18.1414844,58.0493788 C18.8160627,58.7488061 19.7580597,59.125576 20.7289089,59.0842691 L20.7174417,59.0689795 Z" id="形状" fill="url(#linearGradient-4)"></path>
                        <path d="M22.9344372,78.1466089 L68.8033117,78.1466089 C72.4680822,78.2695378 75.3754031,81.2760155 75.3754031,84.9428471 C75.3754031,88.6096787 72.4680822,91.6161564 68.8033117,91.7390853 L22.9344372,91.7390853 C19.2696667,91.6161564 16.3623458,88.6096787 16.3623458,84.9428471 C16.3623458,81.2760155 19.2696667,78.2695378 22.9344372,78.1466089 L22.9344372,78.1466089 Z" id="路径" fill="url(#linearGradient-5)" opacity="0.530901228"></path>
                    </g>
                </g>
            </g>
        </g>
    </g>
</svg>