<?xml version="1.0" encoding="UTF-8"?>
<svg width="80px" height="80px" viewBox="0 0 80 80" version="1.1" xmlns="http://www.w3.org/2000/svg" xmlns:xlink="http://www.w3.org/1999/xlink">
    <title>切图</title>
    <defs>
        <linearGradient x1="50%" y1="0%" x2="50%" y2="99.9155673%" id="linearGradient-1">
            <stop stop-color="#B8E1FF" offset="0%"></stop>
            <stop stop-color="#0091FF" offset="100%"></stop>
        </linearGradient>
    </defs>
    <g id="登录页" stroke="none" stroke-width="1" fill="none" fill-rule="evenodd">
        <g id="社会治理欢迎页" transform="translate(-1256.000000, -943.000000)" fill-rule="nonzero">
            <g id="编组备份-4" transform="translate(1256.000000, 943.000000)">
                <path d="M0,39.7867193 C0,54.001145 7.58330549,67.1358161 19.8933592,74.243029 C32.2034129,81.3502419 47.3700246,81.3502419 59.6800783,74.243029 C71.990132,67.1358161 79.5734375,54.001145 79.5734375,39.7867193 C79.5734375,25.5722937 71.990132,12.4376226 59.6800783,5.33040968 C47.3700246,-1.77680323 32.2034129,-1.77680323 19.8933592,5.33040968 C7.58330549,12.4376226 0,25.5722937 0,39.7867193 L0,39.7867193 Z" id="路径" fill="url(#linearGradient-1)"></path>
                <g id="编组" transform="translate(21.000000, 18.000000)" fill="#FFFFFF">
                    <path d="M32.8895019,4.09926635 L24.2859628,4.09926635 C23.4245264,1.64878491 21.1074918,0.00615697727 18.5036783,0 C15.8986589,0.00372855016 13.579826,1.64710869 12.7195546,4.09926635 L4.11049806,4.09926635 C1.84075317,4.10027845 0.00101487277,5.93498977 0,8.1985327 L0,36.9025678 C0.00202933095,39.1653944 1.84147077,40.9989889 4.11049806,41 L32.8895019,41 C35.1592468,40.9989879 36.9989851,39.1642766 37,36.9007337 L37,8.1985327 C36.9989851,5.93498977 35.1592468,4.10027845 32.8895019,4.09926635 Z M18.4981608,4.09926635 C19.6337514,4.09977282 20.5539177,5.01824601 20.5534101,6.15073364 C20.552902,7.28322127 19.6319123,8.20087331 18.4963217,8.20036705 C17.3607311,8.20036705 16.4401531,7.28230422 16.4401531,6.14981659 C16.4401531,5.01732896 17.3607311,4.09926635 18.4963217,4.09926635 L18.4981608,4.09926635 Z M22.6086589,32.8033014 L8.22099612,32.8033014 L8.22099612,28.702201 L22.6086589,28.702201 L22.6086589,32.8014673 L22.6086589,32.8033014 Z M28.7734864,24.5974322 L8.22099612,24.5974322 L8.22099612,20.4981659 L28.7734864,20.4981659 L28.7734864,24.5974322 L28.7734864,24.5974322 Z M28.7734864,16.3988995 L8.22099612,16.3988995 L8.22099612,12.2996332 L28.7734864,12.2996332 L28.7734864,16.3988995 L28.7734864,16.3988995 Z" id="形状"></path>
                </g>
            </g>
        </g>
    </g>
</svg>