<?xml version="1.0" encoding="UTF-8"?>
<svg width="80px" height="80px" viewBox="0 0 80 80" version="1.1" xmlns="http://www.w3.org/2000/svg" xmlns:xlink="http://www.w3.org/1999/xlink">
    <title>切图</title>
    <defs>
        <linearGradient x1="50%" y1="0%" x2="50%" y2="99.9155673%" id="linearGradient-1">
            <stop stop-color="#B8E1FF" offset="0%"></stop>
            <stop stop-color="#0091FF" offset="100%"></stop>
        </linearGradient>
    </defs>
    <g id="登录页" stroke="none" stroke-width="1" fill="none" fill-rule="evenodd">
        <g id="社会治理欢迎页" transform="translate(-1592.000000, -943.000000)" fill-rule="nonzero">
            <g id="编组备份-6" transform="translate(1592.000000, 943.000000)">
                <path d="M0,39.7867193 C0,54.001145 7.58330549,67.1358161 19.8933592,74.243029 C32.2034129,81.3502419 47.3700246,81.3502419 59.6800783,74.243029 C71.990132,67.1358161 79.5734375,54.001145 79.5734375,39.7867193 C79.5734375,25.5722937 71.990132,12.4376226 59.6800783,5.33040968 C47.3700246,-1.77680323 32.2034129,-1.77680323 19.8933592,5.33040968 C7.58330549,12.4376226 0,25.5722937 0,39.7867193 L0,39.7867193 Z" id="路径" fill="url(#linearGradient-1)"></path>
                <g id="编组" transform="translate(18.000000, 25.000000)" fill="#FFFFFF">
                    <path d="M14.7375,33 L0.9,33 C0.405,33 0,32.5981055 0,32.1069012 L0,0.893098782 C0,0.401894452 0.405,0 0.9,0 L14.7375,0 C15.2325,0 15.6375,0.401894452 15.6375,0.893098782 L15.6375,32.0845737 C15.6375,32.5981055 15.2325,33 14.7375,33 L14.7375,33 Z M45,15.5399188 L17.6175,15.5399188 L17.6175,0.893098782 C17.6175,0.401894452 18.0225,0 18.5175,0 L44.1,0 C44.595,0 45,0.401894452 45,0.893098782 L45,15.5399188 Z M29.43,32.9776725 L18.5175,32.9776725 C18.0225,32.9776725 17.6175,32.5757781 17.6175,32.0845737 L17.6175,17.4600812 L30.33,17.4600812 L30.33,32.0845737 C30.33,32.5981055 29.925,32.9776725 29.43,32.9776725 L29.43,32.9776725 Z M44.1,32.9776725 L33.1875,32.9776725 C32.6925,32.9776725 32.2875,32.5757781 32.2875,32.0845737 L32.2875,17.4600812 L45,17.4600812 L45,32.0845737 C45,32.5981055 44.595,32.9776725 44.1,32.9776725 Z" id="形状"></path>
                </g>
            </g>
        </g>
    </g>
</svg>