<?xml version="1.0" encoding="UTF-8"?>
<svg width="382px" height="264px" viewBox="0 0 382 264" version="1.1" xmlns="http://www.w3.org/2000/svg" xmlns:xlink="http://www.w3.org/1999/xlink">
    <title>编组 2</title>
    <defs>
        <rect id="path-1" x="0" y="0" width="382" height="264" rx="8"></rect>
        <filter x="-3.5%" y="-4.0%" width="107.1%" height="110.2%" filterUnits="objectBoundingBox" id="filter-3">
            <feMorphology radius="2" operator="dilate" in="SourceAlpha" result="shadowSpreadOuter1"></feMorphology>
            <feOffset dx="0" dy="3" in="shadowSpreadOuter1" result="shadowOffsetOuter1"></feOffset>
            <feGaussianBlur stdDeviation="2" in="shadowOffsetOuter1" result="shadowBlurOuter1"></feGaussianBlur>
            <feColorMatrix values="0 0 0 0 0.415686275   0 0 0 0 0.71372549   0 0 0 0 0.905882353  0 0 0 0.231561407 0" type="matrix" in="shadowBlurOuter1"></feColorMatrix>
        </filter>
        <linearGradient x1="60.5737145%" y1="27.1896307%" x2="49.9937071%" y2="73.2631513%" id="linearGradient-4">
            <stop stop-color="#DDC319" offset="0.0316722973%"></stop>
            <stop stop-color="#F0A026" offset="100%"></stop>
        </linearGradient>
        <linearGradient x1="50%" y1="55.1373563%" x2="37.4307443%" y2="43.7300597%" id="linearGradient-5">
            <stop stop-color="#F1A517" offset="0%"></stop>
            <stop stop-color="#E8CF1D" offset="100%"></stop>
        </linearGradient>
    </defs>
    <g id="登录页" stroke="none" stroke-width="1" fill="none" fill-rule="evenodd">
        <g id="社会治理欢迎页备份-3" transform="translate(-151.000000, -543.000000)">
            <g id="编组-8" transform="translate(151.000000, 543.000000)">
                <g id="undraw_performance_overview_p9bm">
                    <mask id="mask-2" fill="white">
                        <use xlink:href="#path-1"></use>
                    </mask>
                    <g id="蒙版" opacity="0.899414062">
                        <use fill="black" fill-opacity="1" filter="url(#filter-3)" xlink:href="#path-1"></use>
                        <use fill="#FFFFFF" fill-rule="evenodd" xlink:href="#path-1"></use>
                    </g>
                    <circle id="椭圆形" fill-opacity="0.0632102273" fill="#0091FF" opacity="0.759486607" mask="url(#mask-2)" cx="318.5" cy="-60.5" r="208.5"></circle>
                    <circle id="椭圆形-copy-7" fill-opacity="0.0632102273" fill="#0091FF" opacity="0.759486607" mask="url(#mask-2)" transform="translate(19.000000, 438.000000) scale(-1, 1) translate(-19.000000, -438.000000) " cx="19" cy="438" r="253"></circle>
                </g>
                <g id="编组" transform="translate(142.000000, 111.000000)" fill-rule="nonzero">
                    <path d="M94.9399119,91.0317342 L83.2147616,91.0317342 L83.2147616,58.233662 C83.2147616,39.5439661 68.1074194,24.2167776 49.3077771,24.2167776 C30.4939733,24.5249763 15.3936638,39.543966 15.3936638,58.233662 L15.3936638,91.0317342 L3.68970752,91.0317342 C1.52646501,91.0317342 0.2933541,92.565928 0.2933541,94.4012332 C-0.00259250688,96.544833 1.83647673,98.078931 3.68970752,98.078931 L95.2428911,98.078931 C97.3991011,98.078931 98.6322119,96.544833 98.6322119,94.709432 C98.6056467,92.6893361 96.9648589,91.0581441 94.9328793,91.0317342 L94.9399119,91.0317342 Z M44.9953572,86.1281373 L48.384678,65.5890574 L35.1304702,65.5890574 L51.7739988,38.3250582 L48.3917106,58.8501552 L61.6388858,58.8501552 L44.9953572,86.1281373 L44.9953572,86.1281373 Z" id="形状" fill="url(#linearGradient-4)"></path>
                    <path d="M96.1730227,26.6685761 C97.0889928,26.9767749 97.7091127,27.5861809 98.3292327,28.5108728 C99.2098742,30.1252911 98.6686015,32.1424366 97.0961218,33.106271 L86.611115,39.2357673 L83.2217941,33.106271 L93.7068009,26.9767748 C94.6227711,26.3673688 95.242891,26.3673688 96.1730227,26.6685761 Z M4.92985094,27.2849736 L15.4077289,33.4144698 L12.0185044,38.9275685 L1.53349752,32.7980723 C-0.00259250688,32.1885705 -0.319540489,30.0379793 0.2933541,28.51796 L0.2933541,28.5108728 C0.913473982,27.593268 1.52646501,26.9767748 2.46362922,26.9767748 C3.37969571,26.668576 3.99971925,26.668576 4.92985094,27.2849736 Z M23.7224606,7.3623869 C24.5200787,7.6097786 25.1865085,8.16144689 25.5756913,8.89648486 L31.7412457,19.3131806 L25.8857032,22.6896711 L20.023128,12.2659839 C19.1000289,10.7318859 19.4101371,8.58828609 21.2562389,7.67058567 C22.1863706,7.05418823 22.7993615,7.05418823 23.7224606,7.3623869 Z M77.3663479,7.67058567 C78.9388275,8.63442016 79.4801003,10.6515655 78.5994588,12.2659839 L72.4339044,22.6825838 L66.8813411,19.3201721 L73.0468953,8.89648486 C73.5422031,8.12711208 74.3171587,7.57754001 75.210138,7.3623869 C75.8231289,7.3623869 76.746228,7.3623869 77.3663479,7.67058567 Z M49.3218423,-5.68434189e-14 L49.3148097,0.00699147614 C51.4710197,0.00699147614 52.6970016,1.54108944 52.6970016,3.37649047 L52.6970016,15.3342757 L45.6225097,15.3342757 L45.6225097,3.36949899 C45.6225097,1.53409796 47.4686115,-5.68434189e-14 49.3218423,-5.68434189e-14 Z" id="形状结合" fill="url(#linearGradient-5)" style="mix-blend-mode: multiply;" opacity="0.600000024"></path>
                </g>
            </g>
        </g>
    </g>
</svg>