<?xml version="1.0" encoding="UTF-8"?>
<svg width="382px" height="264px" viewBox="0 0 382 264" version="1.1" xmlns="http://www.w3.org/2000/svg" xmlns:xlink="http://www.w3.org/1999/xlink">
    <title>编组 2</title>
    <defs>
        <rect id="path-1" x="0" y="0" width="382" height="264" rx="8"></rect>
        <filter x="-3.5%" y="-4.0%" width="107.1%" height="110.2%" filterUnits="objectBoundingBox" id="filter-3">
            <feMorphology radius="2" operator="dilate" in="SourceAlpha" result="shadowSpreadOuter1"></feMorphology>
            <feOffset dx="0" dy="3" in="shadowSpreadOuter1" result="shadowOffsetOuter1"></feOffset>
            <feGaussianBlur stdDeviation="2" in="shadowOffsetOuter1" result="shadowBlurOuter1"></feGaussianBlur>
            <feColorMatrix values="0 0 0 0 0.415686275   0 0 0 0 0.71372549   0 0 0 0 0.905882353  0 0 0 0.231561407 0" type="matrix" in="shadowBlurOuter1"></feColorMatrix>
        </filter>
        <linearGradient x1="20.332377%" y1="78.6647767%" x2="86.8710611%" y2="5.24512773%" id="linearGradient-4">
            <stop stop-color="#70C6EC" offset="0%"></stop>
            <stop stop-color="#4098F5" offset="100%"></stop>
        </linearGradient>
    </defs>
    <g id="登录页" stroke="none" stroke-width="1" fill="none" fill-rule="evenodd">
        <g id="社会治理欢迎页备份-3" transform="translate(-1387.000000, -543.000000)">
            <g id="编组-12" transform="translate(1387.000000, 543.000000)">
                <g id="undraw_performance_overview_p9bm">
                    <mask id="mask-2" fill="white">
                        <use xlink:href="#path-1"></use>
                    </mask>
                    <g id="蒙版" opacity="0.899414062">
                        <use fill="black" fill-opacity="1" filter="url(#filter-3)" xlink:href="#path-1"></use>
                        <use fill="#FFFFFF" fill-rule="evenodd" xlink:href="#path-1"></use>
                    </g>
                    <circle id="椭圆形" fill-opacity="0.0632102273" fill="#0091FF" opacity="0.759486607" mask="url(#mask-2)" cx="318.5" cy="-60.5" r="208.5"></circle>
                    <circle id="椭圆形-copy-7" fill-opacity="0.0632102273" fill="#0091FF" opacity="0.759486607" mask="url(#mask-2)" transform="translate(19.000000, 438.000000) scale(-1, 1) translate(-19.000000, -438.000000) " cx="19" cy="438" r="253"></circle>
                </g>
                <g id="编组" transform="translate(139.000000, 108.000000)" fill="url(#linearGradient-4)" fill-rule="nonzero">
                    <path d="M104.993817,52.0453069 C104.8665,49.7081766 102.854891,47.9160015 100.500716,48.0423313 L95.9442373,48.0298512 C95.5063698,43.5390472 94.3608475,39.1443642 92.549532,35.0064005 L98.016888,31.8588282 L98.1295035,31.7969479 C99.4555283,31.0493259 100.274271,29.6516689 100.273041,28.1377614 C100.271812,26.6238539 99.4508017,25.227509 98.1235648,24.48201 C96.7963279,23.7365109 95.1678477,23.7569952 93.8600632,24.5356396 C93.827635,24.5257662 93.7929706,24.5257662 93.7605424,24.5356396 L88.4058021,27.5963715 C85.5147706,23.4220019 81.9063255,19.7852864 77.745558,16.8526096 L80.5787567,11.9703106 C81.2217085,10.9768504 81.4151249,9.76109524 81.1118782,8.61927419 C80.8086316,7.47745315 80.0365674,6.51441319 78.9838057,5.96480724 C77.9877129,5.44454472 76.8242199,5.33848383 75.7493483,5.66996281 C74.6744768,6.0014418 73.7762999,6.74329979 73.2524579,7.73229408 C73.2398857,7.76833766 73.2398857,7.80753098 73.2524579,7.84357456 L70.4690195,12.6764734 C65.9798189,10.6367831 61.1705273,9.37926707 56.2516942,8.95897889 L56.2516942,4.23736048 C56.2513292,1.8970248 54.3401771,0 51.9827776,0 C49.6253782,0 47.7142261,1.8970248 47.7138611,4.23736048 L47.7138611,9.00837909 C43.1194693,9.51139303 38.6358123,10.7413329 34.4330784,12.6515133 L31.5867849,7.76921421 C30.8619047,6.3956979 29.4357065,5.52842454 27.873876,5.5113885 C26.3120456,5.49435245 24.8669971,6.330307 24.1118931,7.68768002 C23.3567891,9.04505304 23.4136652,10.7044736 24.2599622,12.0077508 L27.1057319,16.8406496 C23.0304158,19.6909781 19.4794983,23.2161928 16.6083876,27.2620103 L11.9649588,24.5356396 C10.9641464,23.8975422 9.73953181,23.7056969 8.58942718,24.0068365 C7.43932256,24.3079761 6.46930528,25.0744566 5.9156683,26.1195658 C5.39158939,27.1085262 5.28474122,28.2636746 5.61863298,29.3308503 C5.95252474,30.3980259 6.69980082,31.2897955 7.69604226,31.809948 L12.4018025,34.5238385 C10.4688385,38.7673343 9.25020085,43.2969007 8.79443713,47.9320909 L4.03734508,47.9320909 C1.77300502,48.0542129 0,49.9126027 0,52.1638674 C0,54.415132 1.77300502,56.2735219 4.03734508,56.3956439 L8.84314991,56.3956439 C9.21714491,60.6122786 10.2313274,64.748516 11.8512956,68.6640517 L6.65840744,71.6499034 C5.60552505,72.1993926 4.83335168,73.1624357 4.53009178,74.3043067 C4.22683188,75.4461777 4.42034171,76.6619891 5.06345644,77.6554068 C5.67148817,78.5957287 6.63092845,79.2577 7.73065448,79.4956552 C8.8303805,79.7336104 9.98028144,79.5280517 10.927324,78.9242117 L15.8457444,76.0241605 C18.3076505,79.7620397 21.3298197,83.1049734 24.8078501,85.9374791 L21.4749525,91.7001416 C20.289181,93.7225278 20.9793449,96.3162956 23.0164766,97.493484 C25.0536084,98.6706725 27.6662877,97.9855044 28.8520593,95.9631182 L31.9099654,90.6965377 C36.8523013,93.3090943 42.2561123,94.9500727 47.8249053,95.5294365 L47.8249053,100.039934 L47.7625739,100.039934 C47.8848384,102.261127 49.7347188,104 51.9754445,104 C54.2161703,104 56.0660507,102.261127 56.1883152,100.039934 L56.1883152,95.5913168 C61.9264719,95.1181143 67.5093535,93.4997843 72.6024303,90.8332982 L75.5482446,95.926198 C76.7425283,97.8933693 79.3054004,98.5459403 81.3059616,97.392256 C83.3065228,96.2385717 84.0051955,93.7051321 82.875591,91.7006616 L79.6558327,86.2479203 C83.1913214,83.4852145 86.2699905,80.1907406 88.7803144,76.4838422 L93.698211,79.3090133 L93.8108266,79.3090133 C95.8220412,80.3603434 98.3105315,79.6518456 99.4548094,77.7021154 C100.599087,75.7523852 99.9928064,73.2537946 98.0797432,72.0352249 L97.9676514,71.9733447 L92.8250474,69.0488533 C94.519937,65.0537236 95.5891479,60.8246725 95.9955691,56.5084843 L100.502288,56.5084843 C101.712748,56.5720453 102.893421,56.1221196 103.750143,55.2708058 C104.606865,54.4194919 105.05897,53.246946 104.993817,52.0453069 Z M44.255253,18.5504163 C44.9999503,18.5371331 45.6952171,18.9192744 46.0791532,19.5528914 C46.4630893,20.1865083 46.4773656,20.9753393 46.1166044,21.6222395 C45.7558433,22.2691396 45.0748528,22.6758293 44.3301555,22.6891125 L44.2803951,22.6891125 C43.7308329,22.6891125 43.2037793,22.47238 42.8151801,22.0865936 C42.4265809,21.7008073 42.2082306,21.1775687 42.2082306,20.6319844 C42.2014853,19.4987842 43.1139568,18.5708968 44.255253,18.5504163 L44.255253,18.5504163 Z M36.8404331,76.0111604 C36.8334776,77.6945751 35.4532675,79.0536843 33.7575783,79.0469093 C32.061889,79.0400835 30.6927845,77.6699485 30.6995041,75.9865329 C30.7062734,74.3031173 32.0863131,72.9438376 33.7820031,72.9504046 L33.8574295,72.9504046 C34.6585463,72.9602958 35.4228876,73.2857658 35.9822395,73.8552099 C36.5415914,74.424654 36.8501142,75.1914056 36.8399093,75.9867203 L36.8404331,76.0111604 L36.8404331,76.0111604 Z M24.4830983,45.4896414 C24.4830983,37.6053706 30.9210434,31.2140257 38.8627995,31.2140257 C46.7982701,31.2275458 53.2283584,37.6110906 53.2425009,45.4896414 C53.2425009,53.3739121 46.8045557,59.764737 38.8627995,59.764737 C30.9210434,59.765257 24.4830983,53.374432 24.4830983,45.4896414 Z M64.6758739,74.5364346 C64.6412937,79.6074944 60.4724217,83.6905503 55.3643881,83.6567502 C50.2563544,83.62243 46.1435284,79.4837339 46.177575,74.4126742 C46.2121454,69.3483744 50.3700177,65.2699985 55.468623,65.2933986 L55.4518616,65.2923585 L55.4890509,65.2923585 L55.468623,65.2933986 C60.5625142,65.3095186 64.6831972,69.4164947 64.6758739,74.4745544 L64.6758739,74.5364346 L64.6758739,74.5364346 Z M62.1543224,32.5166308 C62.1541353,31.6046425 62.6440498,30.7618314 63.4395198,30.3056764 C64.2349899,29.8495213 65.2151647,29.8493231 66.0108218,30.3051564 C66.806479,30.7609896 67.2967393,31.6036024 67.2969265,32.5155907 L67.2471661,32.5155907 C67.2468769,33.9254866 66.0955159,35.0682807 64.6753403,35.0682807 C63.2754519,35.04082 62.1549047,33.9066574 62.1543224,32.5166308 L62.1543224,32.5166308 Z M73.9752928,59.7028568 C69.8394198,59.736657 66.4578093,56.4362041 66.4242866,52.3297481 C66.3897162,48.223812 69.7142332,44.8666789 73.85063,44.8328788 C77.9943599,44.8396388 81.3618279,48.1546517 81.4026838,52.2678678 C81.4026838,56.3504037 78.0865476,59.6685366 73.9752928,59.7028568 L73.9752928,59.7028568 Z" id="形状"></path>
                </g>
            </g>
        </g>
    </g>
</svg>