<?xml version="1.0" encoding="UTF-8"?>
<svg width="382px" height="264px" viewBox="0 0 382 264" version="1.1" xmlns="http://www.w3.org/2000/svg" xmlns:xlink="http://www.w3.org/1999/xlink">
    <title>编组 2</title>
    <defs>
        <rect id="path-1" x="0" y="0" width="382" height="264" rx="8"></rect>
        <filter x="-3.5%" y="-4.0%" width="107.1%" height="110.2%" filterUnits="objectBoundingBox" id="filter-3">
            <feMorphology radius="2" operator="dilate" in="SourceAlpha" result="shadowSpreadOuter1"></feMorphology>
            <feOffset dx="0" dy="3" in="shadowSpreadOuter1" result="shadowOffsetOuter1"></feOffset>
            <feGaussianBlur stdDeviation="2" in="shadowOffsetOuter1" result="shadowBlurOuter1"></feGaussianBlur>
            <feColorMatrix values="0 0 0 0 0.415686275   0 0 0 0 0.71372549   0 0 0 0 0.905882353  0 0 0 0.231561407 0" type="matrix" in="shadowBlurOuter1"></feColorMatrix>
        </filter>
        <linearGradient x1="60.5737145%" y1="11.3591778%" x2="49.9937071%" y2="89.4078361%" id="linearGradient-4">
            <stop stop-color="#19C7DD" offset="0.0316722973%"></stop>
            <stop stop-color="#29BAD9" offset="100%"></stop>
        </linearGradient>
        <linearGradient x1="37.4307443%" y1="51.6349818%" x2="58.5780354%" y2="47.5705648%" id="linearGradient-5">
            <stop stop-color="#0DB2E2" stop-opacity="0.637019231" offset="0%"></stop>
            <stop stop-color="#1DE8E8" offset="100%"></stop>
        </linearGradient>
    </defs>
    <g id="登录页" stroke="none" stroke-width="1" fill="none" fill-rule="evenodd">
        <g id="社会治理欢迎页备份-3" transform="translate(-151.000000, -249.000000)">
            <g id="椭圆形" transform="translate(151.000000, 249.000000)">
                <g id="undraw_performance_overview_p9bm">
                    <mask id="mask-2" fill="white">
                        <use xlink:href="#path-1"></use>
                    </mask>
                    <g id="蒙版" opacity="0.899414062">
                        <use fill="black" fill-opacity="1" filter="url(#filter-3)" xlink:href="#path-1"></use>
                        <use fill="#FFFFFF" fill-rule="evenodd" xlink:href="#path-1"></use>
                    </g>
                    <circle id="椭圆形" fill-opacity="0.0632102273" fill="#0091FF" opacity="0.759486607" mask="url(#mask-2)" cx="318.5" cy="-60.5" r="208.5"></circle>
                    <circle id="椭圆形-copy-7" fill-opacity="0.0632102273" fill="#0091FF" opacity="0.759486607" mask="url(#mask-2)" transform="translate(19.000000, 438.000000) scale(-1, 1) translate(-19.000000, -438.000000) " cx="19" cy="438" r="253"></circle>
                </g>
                <g id="编组" transform="translate(151.000000, 108.000000)" fill-rule="nonzero">
                    <path d="M76.6621801,28.4032391 L71.1627242,93.2234933 C71.0868692,95.1747353 69.4491841,96.6982741 67.4975526,96.6332032 L12.5182811,96.6332032 C10.565997,96.6992305 8.92726116,95.1754204 8.85141093,93.2234933 L3.35204935,28.4032391 C3.42789958,26.4513119 5.06663543,24.9275018 7.01891954,24.9935292 L72.9970086,24.9935292 C74.9490121,24.9274634 76.5872906,26.4515542 76.6621801,28.4032391 Z M29.6344944,57.4622605 L29.629304,57.4622605 C29.2328815,57.4609875 28.8698846,57.6842549 28.6922967,58.0386771 L20.1264517,74.9994617 C19.9624247,75.3194212 19.9761431,75.7015711 20.1626901,76.0089457 C20.3427004,76.3178413 20.6682545,76.5131452 21.0255219,76.5265693 L35.4411271,76.9320883 L35.4703821,76.9320883 C36.0380238,76.9342494 36.5037185,76.4831312 36.5195962,75.9157074 L36.6715331,71.218686 C36.6819034,70.9380757 36.5778498,70.6652885 36.3832304,70.4628706 C36.1898818,70.2597429 35.9233667,70.1423186 35.6429862,70.1367253 L30.2315781,70.0246128 L34.7594871,61.1032731 C34.8847479,60.8543249 34.9070525,60.566094 34.8215831,60.3008386 C34.7343481,60.0353386 34.544956,59.8155187 34.2952774,59.6899767 L30.0917207,57.5779591 C29.9502428,57.5047302 29.7937746,57.4651368 29.6344944,57.4622605 Z M52.8091215,59.9730889 C52.6462798,59.9733391 52.4856872,60.0111218 52.3398158,60.0835027 L48.1259726,62.1835352 L48.1224809,62.1835352 C47.6049768,62.4426433 47.3943658,63.0713964 47.6513821,63.5899426 L50.5124204,69.3827029 L41.0216476,69.6985618 C40.444317,69.7191749 39.9914818,70.2012389 40.0069732,70.7787295 L40.1450376,75.4810357 C40.151596,75.7607925 40.271118,76.025981 40.4763733,76.2161839 C40.6698947,76.3980575 40.9251899,76.4997709 41.19076,76.5008061 L41.2303957,76.5008061 L59.6943177,75.8760717 C60.0513039,75.8617038 60.3764389,75.6666513 60.5571496,75.3584481 C60.7410109,75.0516735 60.755321,74.6722066 60.5950866,74.3524558 L57.1317741,67.4017663 L53.7496205,60.5579989 C53.6257599,60.3076108 53.4071548,60.1169597 53.1422503,60.0282958 C53.0349237,59.9919992 52.9224193,59.9733547 52.8091215,59.9730889 Z M40.050195,37.2090684 C39.6772973,37.2086857 39.332028,37.4056235 39.142537,37.7267869 L30.8596155,51.9956456 C30.5680048,52.4970882 30.7370321,53.1399408 31.2375704,53.433101 L35.3099518,55.7970885 C35.4675554,55.8876235 35.6459166,55.9358064 35.8276698,55.936946 C36.201502,55.937483 36.547857,55.7406626 36.7387251,55.419228 L40.0518937,49.7161199 L40.057084,49.7110239 L45.1493302,58.4614581 C45.2880737,58.7039437 45.518924,58.8800679 45.789447,58.9498268 C45.877263,58.9734284 45.9677557,58.9856083 46.0586868,58.9860652 C46.2441945,58.9853614 46.4262661,58.9359629 46.5866912,58.8428104 L50.6538822,56.4736325 C50.8957435,56.3345227 51.0712208,56.1036833 51.1405522,55.8334212 C51.2128041,55.5644119 51.1736149,55.2776369 51.031837,55.0378757 L40.9577586,37.7267869 C40.7682846,37.4056525 40.423059,37.2087191 40.050195,37.2090684 Z" id="路径-2" fill="url(#linearGradient-4)"></path>
                    <path d="M76.5429898,20.1670311 L3.47793994,20.1670311 C1.5719287,20.1670311 0.0268012954,18.6219037 0.0268012954,16.7158925 L0.0268012954,13.6322336 C0.0268012954,12.7169183 0.39036628,11.8390835 1.03758304,11.191849 C1.68479979,10.5446146 2.56262471,10.1810005 3.47793994,10.1810005 L28.3488815,10.1810005 L28.3488815,3.45123301 C28.3488565,2.53590143 28.7124594,1.65805227 29.3596966,1.0108151 C30.0069338,0.363577938 30.8847829,0 31.8001145,0 L48.6316112,0 C50.5376224,0 52.0827498,1.5451274 52.0827498,3.45113864 L52.0827498,10.1706198 L76.5464816,10.1706198 C77.4617968,10.1705947 78.3396317,10.5341848 78.9868661,11.1814015 C79.6341006,11.8286183 79.997715,12.7064432 79.997715,13.6217584 L79.997715,16.7157981 C79.997715,17.6314076 79.6347992,18.5096789 78.9875336,19.1572808 C78.340268,19.8048827 77.4621856,20.1687298 76.5465759,20.1687298 L76.5429898,20.1670311 Z" id="路径" fill="url(#linearGradient-5)" style="mix-blend-mode: multiply;" opacity="0.578055246"></path>
                </g>
            </g>
        </g>
    </g>
</svg>