<?xml version="1.0" encoding="UTF-8"?>
<svg width="80px" height="80px" viewBox="0 0 80 80" version="1.1" xmlns="http://www.w3.org/2000/svg" xmlns:xlink="http://www.w3.org/1999/xlink">
    <title>切图</title>
    <defs>
        <linearGradient x1="50%" y1="0%" x2="50%" y2="99.9155673%" id="linearGradient-1">
            <stop stop-color="#B8E1FF" offset="0%"></stop>
            <stop stop-color="#0091FF" offset="100%"></stop>
        </linearGradient>
    </defs>
    <g id="登录页" stroke="none" stroke-width="1" fill="none" fill-rule="evenodd">
        <g id="社会治理欢迎页" transform="translate(-920.000000, -943.000000)" fill-rule="nonzero">
            <g id="编组备份-2" transform="translate(920.000000, 943.000000)">
                <path d="M0,39.7867193 C0,54.001145 7.58330549,67.1358161 19.8933592,74.243029 C32.2034129,81.3502419 47.3700246,81.3502419 59.6800783,74.243029 C71.990132,67.1358161 79.5734375,54.001145 79.5734375,39.7867193 C79.5734375,25.5722937 71.990132,12.4376226 59.6800783,5.33040968 C47.3700246,-1.77680323 32.2034129,-1.77680323 19.8933592,5.33040968 C7.58330549,12.4376226 0,25.5722937 0,39.7867193 L0,39.7867193 Z" id="路径" fill="url(#linearGradient-1)"></path>
                <g id="编组" transform="translate(16.000000, 20.000000)" fill="#FFFFFF">
                    <path d="M28.0162587,22.4895069 C27.7251623,22.1182346 27.5593152,21.6642599 27.5425554,21.1928347 C27.4904915,20.6561482 27.5916668,20.1157015 27.8343507,19.634156 C27.8298958,19.6386094 32.5580188,17.0794074 32.4666936,8.98912274 C32.3308195,5.75523554 30.347651,0 24.2169802,0 L23.8665288,0 C17.4537149,0 15.7497196,5.75523554 15.6205278,8.98912274 C15.5343999,16.6051237 20.2484158,19.634156 20.2484158,19.634156 C20.6405826,20.1568032 20.843007,20.7973767 20.8223541,21.4503878 C20.8223541,21.7138787 20.3679554,22.2542207 20.0665078,22.4932181 C17.4344104,24.5981765 7.9581173,26.7179796 7.34111506,31.2515079 C6.86741178,33.1746205 4.05340638,36.2244352 13.4094174,37.4520802 C16.9964259,37.8599947 20.6056715,38.0404696 24.2154952,37.9924222 C45.914521,37.9924222 41.425477,33.7869586 40.8173846,31.323504 C40.2048372,26.7884912 30.6453862,24.5966921 28.0155162,22.4909914 M48.8525208,29.490201 C48.3498608,25.8443773 41.1760032,24.0793592 39.0324587,22.385595 C38.7959897,22.0878224 38.66027,21.7226481 38.6448833,21.3427648 C38.6027099,20.9079895 38.6856572,20.4702185 38.8839624,20.0809772 C38.8839624,20.0809772 42.7315022,17.6457273 42.660224,11.5171511 C42.5547916,8.9193533 40.9324692,4.28339753 35.9407652,4.28339753 L35.6586222,4.28339753 C34.7121972,4.27111891 33.7735022,4.45510395 32.9017878,4.82373946 C33.968734,8.40202042 35.2561971,14.9662844 29.8531582,19.3676962 C27.7333732,22.5303295 34.796601,24.381446 33.6962432,23.8886066 C40.0815853,26.7588021 41.8078551,28.9647036 42.2726486,31.241859 C42.6654213,33.1412203 42.8851959,34.3087448 42.8851959,34.3087448 C42.8851959,34.3087448 47.6712325,33.5769081 48.9104344,32.6483809 C49.0466626,31.5970734 49.0273993,30.5314485 48.8532633,29.4857476 M16.481064,23.1226274 C17.0070853,22.9575353 17.5127179,22.7334398 17.9883017,22.4546222 C18.8547778,21.9090846 19.5244962,20.7898049 17.9140535,19.4114876 C12.5830354,11.7331395 14.5253673,6.62809563 15.3346723,4.70498298 C14.592227,4.42169159 13.8031266,4.28044229 13.0084774,4.28859312 L12.7293043,4.28859312 C7.62771298,4.28859312 6.26971407,8.92900228 6.17244895,11.5268001 C6.10562561,17.6598297 9.8529304,20.1002752 9.85293044,20.1002752 C10.0488028,20.4902703 10.1301514,20.9277555 10.0875546,21.3620627 C10.0744322,21.7407555 9.94218713,22.1056687 9.70963147,22.4048929 C7.61954567,24.0979149 0.63205098,25.8681286 0.144240543,29.5184056 C-0.0284128043,30.5658216 -0.0461745645,31.632914 0.0915243638,32.6854923 C1.23568858,33.5613213 4.89612302,34.3072604 4.89612302,34.3072604 C5.14522575,33.5026965 5.34971917,32.6850023 5.50867038,31.8579081 C5.96306913,29.6045041 9.01689609,25.9497737 16.4825489,23.1270807" id="形状"></path>
                </g>
            </g>
        </g>
    </g>
</svg>