<?xml version="1.0" encoding="UTF-8"?>
<svg width="80px" height="80px" viewBox="0 0 80 80" version="1.1" xmlns="http://www.w3.org/2000/svg" xmlns:xlink="http://www.w3.org/1999/xlink">
    <title>切图</title>
    <defs>
        <linearGradient x1="50%" y1="0%" x2="50%" y2="99.9155673%" id="linearGradient-1">
            <stop stop-color="#B8E1FF" offset="0%"></stop>
            <stop stop-color="#0091FF" offset="100%"></stop>
        </linearGradient>
        <linearGradient x1="50%" y1="0%" x2="50%" y2="99.9155673%" id="linearGradient-2">
            <stop stop-color="#B8E1FF" offset="0%"></stop>
            <stop stop-color="#0091FF" offset="100%"></stop>
        </linearGradient>
    </defs>
    <g id="登录页" stroke="none" stroke-width="1" fill="none" fill-rule="evenodd">
        <g id="社会治理欢迎页" transform="translate(-416.000000, -943.000000)" fill-rule="nonzero">
            <g id="编组" transform="translate(416.000000, 943.000000)">
                <path d="M39.8705719,0.0442809539 C61.8806984,0.0442809539 79.7234313,17.887014 79.7234313,39.8971405 C79.7234313,61.907267 61.8806984,79.7499999 39.8705719,79.7499999 C17.8604454,79.7499999 0.017712366,61.907267 0.017712366,39.8971405 C0.017712366,29.327505 4.2164837,19.1907742 11.6903447,11.7169132 C19.1642056,4.24305229 29.3009364,0.0442809539 39.8705719,0.0442809539 L39.8705719,0.0442809539 Z" id="形状" fill="url(#linearGradient-1)"></path>
                <path d="M59.6641588,24.5847862 C60.0243501,23.3179866 59.6703553,21.9554644 58.7390876,21.0241967 C57.8078199,20.092929 56.4452977,19.7389342 55.1784981,20.0991255 L29.8187951,27.3479178 C28.6132318,27.6903093 27.6703115,28.6315548 27.3257774,29.8365075 L20.0814131,55.2006385 C19.7232816,56.4668268 20.0782044,57.8276848 21.0091182,58.7576796 C21.940032,59.6876745 23.3012399,60.041253 24.5670739,59.6818712 L49.9267768,52.4375069 C51.130639,52.0937978 52.0716573,51.1527795 52.4153665,49.9489173 L59.6641588,24.5847862 Z" id="路径" fill="#FFFFFF"></path>
                <path d="M39.6757357,32.5774986 C42.3771179,32.4839712 44.9143041,33.8717778 46.2927184,36.1968987 C47.6711326,38.5220197 47.6711326,41.4139604 46.2927184,43.7390813 C44.9143041,46.0642022 42.3771179,47.4520088 39.6757357,47.3584814 C35.6936108,47.2206122 32.53669,43.9525008 32.53669,39.96799 C32.53669,35.9834792 35.6936108,32.7153679 39.6757357,32.5774986 Z" id="路径" fill="url(#linearGradient-2)"></path>
            </g>
        </g>
    </g>
</svg>