<?xml version="1.0" encoding="UTF-8"?>
<svg width="382px" height="264px" viewBox="0 0 382 264" version="1.1" xmlns="http://www.w3.org/2000/svg" xmlns:xlink="http://www.w3.org/1999/xlink">
    <title>编组 2</title>
    <defs>
        <rect id="path-1" x="0" y="0" width="382" height="264" rx="8"></rect>
        <filter x="-3.5%" y="-4.0%" width="107.1%" height="110.2%" filterUnits="objectBoundingBox" id="filter-3">
            <feMorphology radius="2" operator="dilate" in="SourceAlpha" result="shadowSpreadOuter1"></feMorphology>
            <feOffset dx="0" dy="3" in="shadowSpreadOuter1" result="shadowOffsetOuter1"></feOffset>
            <feGaussianBlur stdDeviation="2" in="shadowOffsetOuter1" result="shadowBlurOuter1"></feGaussianBlur>
            <feColorMatrix values="0 0 0 0 0.415686275   0 0 0 0 0.71372549   0 0 0 0 0.905882353  0 0 0 0.231561407 0" type="matrix" in="shadowBlurOuter1"></feColorMatrix>
        </filter>
        <linearGradient x1="71.5520254%" y1="23.8017941%" x2="20.2537454%" y2="86.40001%" id="linearGradient-4">
            <stop stop-color="#84B2FE" offset="0%"></stop>
            <stop stop-color="#6FD5FF" offset="100%"></stop>
        </linearGradient>
    </defs>
    <g id="登录页" stroke="none" stroke-width="1" fill="none" fill-rule="evenodd">
        <g id="社会治理欢迎页备份-3" transform="translate(-975.000000, -543.000000)">
            <g id="编组-11" transform="translate(975.000000, 543.000000)">
                <g id="undraw_performance_overview_p9bm">
                    <mask id="mask-2" fill="white">
                        <use xlink:href="#path-1"></use>
                    </mask>
                    <g id="蒙版" opacity="0.899414062">
                        <use fill="black" fill-opacity="1" filter="url(#filter-3)" xlink:href="#path-1"></use>
                        <use fill="#FFFFFF" fill-rule="evenodd" xlink:href="#path-1"></use>
                    </g>
                    <circle id="椭圆形" fill-opacity="0.0632102273" fill="#0091FF" opacity="0.759486607" mask="url(#mask-2)" cx="318.5" cy="-60.5" r="208.5"></circle>
                    <circle id="椭圆形-copy-7" fill-opacity="0.0632102273" fill="#0091FF" opacity="0.759486607" mask="url(#mask-2)" transform="translate(19.000000, 438.000000) scale(-1, 1) translate(-19.000000, -438.000000) " cx="19" cy="438" r="253"></circle>
                </g>
                <g id="编组" transform="translate(146.000000, 105.000000)" fill="url(#linearGradient-4)" fill-rule="nonzero">
                    <path d="M44.3210256,0.000694332739 C44.485307,0.00247976092 44.6224155,0.00743929069 44.6864555,0.012398884 C47.3208353,0.341173554 46.9418852,3.4432409 62.4620847,10.1190427 C68.9818648,12.9171332 75.0733321,13.1094181 76.1549653,13.1591154 C79.615081,13.3296514 82.455895,13.3111546 84.2831131,13.6678776 C87.3765941,14.2697333 88.1560968,15.5415373 88.3410293,17.7192753 L88.3410293,17.7192753 L88.3413485,27.8686549 C88.3615735,28.6415298 89.2575809,67.3952513 66.2087854,89.3905176 C60.5978196,94.7508144 52.88577,99.9749263 44.6987708,101.556805 C44.5262546,101.584753 44.3537385,101.618799 44.1811213,101.65 C44.1811213,101.65 43.8022721,101.584753 43.6174405,101.544304 C35.455173,99.9561247 27.7521075,94.7445133 22.1412427,89.3905176 C1.18779223,69.394821 0.0233532841,35.5492437 3.83373888e-16,28.9800852 L0.000777626532,28.4156139 C0.0032664513,28.0496668 0.00889785858,27.8570181 0.00889785858,27.8570181 L0.00889785858,17.719377 C0.193729471,15.5416389 0.976361491,14.2697333 4.06994345,13.6679792 C5.89716152,13.3112563 8.73807634,13.3297531 12.1981922,13.1592171 C13.2765951,13.1095198 19.3712927,12.9172348 25.9003597,10.1191443 C41.3988558,3.45574148 41.0537226,0.347474646 43.6635727,0.0155494796 C43.7436226,0.00619949167 43.9747883,0 44.1934366,0 Z M56.2428868,51.1997367 L55.5782332,51.4489817 L30.1967753,51.4489817 L30.1967753,55.1461172 L51.7564752,55.1461172 C49.637892,57.3477821 47.0208186,59.9233147 44.5699086,62.2496021 C42.4513254,60.920295 40.2496604,59.6740696 38.3803223,58.5940075 L35.6801672,61.4187852 C40.2496604,64.1604811 46.4392467,68.273025 49.3886469,70.8900984 L52.3380471,67.6083715 C51.1749034,66.652932 49.637892,65.5313291 47.8931764,64.3681854 C51.7980161,60.5048865 56.0767234,56.2261792 59.1507461,52.9444523 L56.2428868,51.1997367 Z M42.4928662,42.5176995 L39.7511703,44.7193644 C41.9112943,46.5887026 44.5699086,49.2473168 45.7745932,50.9920324 L48.6824525,48.4580407 C47.4362271,46.754866 44.6529903,44.2624151 42.4928662,42.5176995 Z M44.3206635,32.298651 C40.0004154,38.1143697 32.1491952,43.3485165 24.7133834,46.3809983 C25.7519046,47.3364378 26.9150484,48.7072858 27.5381611,49.745807 C33.4785023,46.9625702 39.543466,42.933108 44.2791227,38.2389922 C48.8901567,42.7669446 55.370529,47.1287336 60.7708392,49.5796436 C61.4354927,48.5411224 62.723259,46.9210294 63.6786985,46.1317533 C57.9876024,43.9300883 50.9671991,39.7344627 46.6884918,35.6219188 C47.1039003,35.1649695 47.5193088,34.6664793 47.8931764,34.1679891 L44.3206635,32.298651 Z" id="形状"></path>
                </g>
            </g>
        </g>
    </g>
</svg>