<?xml version="1.0" encoding="UTF-8"?>
<svg width="80px" height="80px" viewBox="0 0 80 80" version="1.1" xmlns="http://www.w3.org/2000/svg" xmlns:xlink="http://www.w3.org/1999/xlink">
    <title>切图</title>
    <defs>
        <linearGradient x1="50%" y1="0%" x2="50%" y2="99.9155673%" id="linearGradient-1">
            <stop stop-color="#B8E1FF" offset="0%"></stop>
            <stop stop-color="#0091FF" offset="100%"></stop>
        </linearGradient>
    </defs>
    <g id="登录页" stroke="none" stroke-width="1" fill="none" fill-rule="evenodd">
        <g id="社会治理欢迎页" transform="translate(-1088.000000, -943.000000)" fill-rule="nonzero">
            <g id="编组备份-3" transform="translate(1088.000000, 943.000000)">
                <path d="M0,39.7867193 C0,54.001145 7.58330549,67.1358161 19.8933592,74.243029 C32.2034129,81.3502419 47.3700246,81.3502419 59.6800783,74.243029 C71.990132,67.1358161 79.5734375,54.001145 79.5734375,39.7867193 C79.5734375,25.5722937 71.990132,12.4376226 59.6800783,5.33040968 C47.3700246,-1.77680323 32.2034129,-1.77680323 19.8933592,5.33040968 C7.58330549,12.4376226 0,25.5722937 0,39.7867193 L0,39.7867193 Z" id="路径" fill="url(#linearGradient-1)"></path>
                <g id="编组" transform="translate(21.000000, 21.000000)" fill="#FFFFFF">
                    <path d="M38.9760459,0.043331024 C37.6945987,-0.223662461 36.4854692,0.830463268 36.4854692,0.830463268 C36.0181437,1.30241026 35.3957735,1.77214153 34.3060777,2.40417383 C32.9051968,3.19130607 30.7258053,4.13575398 27.9240436,4.13575398 C26.3677528,4.13575398 24.8110967,3.82186122 23.2540754,3.19407571 C22.0087871,2.7215748 20.4523137,2.09231214 18.8958403,1.77768082 C17.1832264,1.3051799 15.4711604,1.14786424 13.914687,1.14786424 C11.4241104,1.14786424 7.68824541,2.24962781 4.57475069,3.82333837 L4.26356558,2.56425913 C3.95238046,1.62258087 3.02813876,0.485919809 1.46070811,1.03264713 C-0.445300712,1.6973612 0.060922959,3.82333837 0.060922959,3.82333837 L11.5797029,44.2711895 C11.5797029,44.4285052 11.7352955,44.7431365 11.890888,44.9010061 L11.890888,45.0583217 C12.3580309,45.6861072 12.9807664,46 13.7590944,46 C14.0702795,46 14.3814647,46 14.6904583,45.8432383 C15.6245615,45.3707373 16.2474796,44.2689738 15.9357466,43.3245259 L14.3814647,37.6583924 L12.6693987,31.5203119 C13.2917689,30.103917 14.5370572,28.8448377 16.0935306,28.0577055 C17.8061445,27.2711272 19.8293956,26.6413106 21.8531946,26.6413106 C22.4761126,26.6413106 23.2540754,26.6413106 23.8764457,26.7986262 C24.8105489,26.9559419 25.5890595,26.9559419 26.5231627,26.9559419 C29.6361096,26.9559419 32.9051968,26.0142636 35.7069586,24.4383374 C37.8863501,23.1792581 39.1316384,21.7606475 39.1316384,21.7606475 C39.4428235,21.4460162 39.5984161,20.9740692 39.7545565,20.5015683 C39.7545565,20.5015683 40.987244,3.42672564 41,2.40251204 C41.0124456,1.37829845 40.2569452,0.310878437 38.9760459,0.043331024 Z" id="路径"></path>
                </g>
            </g>
        </g>
    </g>
</svg>